# ProBuilder 5.0.3
# https://unity3d.com/unity/features/worldbuilding/probuilder
# 11/28/2021 2:58:52 PM

mtllib ./Tree_2_PT_V1.mtl
o Tree_2_PT_V1

g Tree_2_PT_V1
v 1.182895 7.898149 0
v 1.820288 6.846196 0.6952882
v 0.6952881 7.773247 1.125
v 1.913964 5.346196 1.182895
v 1.125 6.273247 1.820288
v 0 6.923389 1.913964
v 0 8.346196 0
v -0.6952882 7.773247 1.125
v -1.182895 7.898149 0
v 0.6952881 7.773247 -1.125
v -0.6952882 7.773247 -1.125
v 0 6.923389 -1.913964
v 1.820288 6.846196 -0.6952881
v 1.125 6.273247 -1.820288
v 1.913964 5.346196 -1.182895
v 2.25 5.346196 0
v -1.820288 6.846196 0.6952882
v -1.125 6.273247 1.820288
v -1.913964 5.346196 1.182895
v 0 5.346196 2.25
v 1.125 4.419146 1.820288
v 0 3.769003 1.913964
v 1.820288 3.846196 0.6952882
v 1.820288 3.846196 -0.6952881
v 1.182895 2.794244 0
v 1.125 4.419146 -1.820288
v 0 5.346196 -2.25
v 0 3.769003 -1.913964
v -1.125 6.273247 -1.820288
v -1.820288 6.846196 -0.6952881
v -1.913964 5.346196 -1.182895
v -1.182895 2.794244 0
v -1.820288 3.846196 0.6952882
v -0.6952882 2.919145 1.125
v -1.125 4.419146 1.820288
v 0 2.346196 0
v 0.6952881 2.919145 1.125
v -0.6952882 2.919145 -1.125
v 0.6952881 2.919145 -1.125
v -1.820288 3.846196 -0.6952881
v -1.125 4.419146 -1.820288
v -2.25 5.346196 0
v -0.25 0 0
v -0.25 2.5 0
v -0.125 0 0.2165065
v -0.125 2.5 0.2165065
v 0.125 0 0.2165065
v 0.125 2.5 0.2165065
v 0.25 0 0
v 0.25 2.5 0
v 0.125 0 -0.2165065
v 0.125 2.5 -0.2165065
v -0.125 0 -0.2165065
v -0.125 2.5 -0.2165065
v 0 0 0
v 0 2.5 0

vt -0.2582326 0.8197389
vt -0.8956258 1.515027
vt 0.2293742 1.944739
vt -1.515027 2.456196
vt -2.002634 0.9561963
vt -2.640027 1.883247
vt 0.8956258 2.456196
vt 0.2003376 1.883247
vt -0.2293742 3.383247
vt -0.9246624 2.53339
vt 0.9246624 0.8197389
vt 0.9246624 2.733703
vt 1.619951 1.944739
vt 2.107557 0.8197389
vt 0.2293742 -0.3052611
vt 1.619951 -0.3052611
vt 0.9246624 -1.094225
vt -0.8956258 0.1244507
vt 0.2293742 3.383247
vt 0.9246624 2.53339
vt -0.2003377 1.883247
vt -0.8956258 2.456196
vt -0.1244507 2.456196
vt 1.000549 1.883247
vt 0.3631561 0.9561963
vt -0.8197389 3.508149
vt -0.8197389 0.9561963
vt 2.744951 1.515027
vt -1.619951 3.383247
vt -2.049662 1.883247
vt -2.744951 2.456196
vt 1.515027 2.456196
vt 2.640027 1.883247
vt 2.002634 0.9561963
vt -0.9246624 0.9561963
vt 0.9893019 0.9561963
vt 0.2003376 0.0291455
vt -0.9246624 -0.620997
vt -1.515027 -0.5438037
vt -0.1244507 -0.5438037
vt -0.8197389 -1.595756
vt -0.9893019 0.9561963
vt -0.2003377 0.02914548
vt 0.9246623 0.9561963
vt 0.9246624 -0.620997
vt 1.619951 3.383247
vt 2.049662 1.883247
vt 2.744951 0.1244507
vt 2.744951 2.456196
vt -1.000549 1.883247
vt 0.1244507 2.456196
vt -0.3631561 0.9561963
vt -2.107557 0.8197389
vt -2.744951 1.515027
vt -1.619951 1.944739
vt 1.515027 -0.5438037
vt 2.640027 0.02914549
vt -2.744951 -0.5438037
vt -2.049662 0.0291455
vt -1.619951 -1.470855
vt -0.9246624 0.8197389
vt -0.9246624 2.733703
vt -0.2293742 1.944739
vt 0.2582326 0.8197389
vt -1.619951 -0.3052611
vt -0.2293742 -0.3052611
vt -0.9246624 -1.094225
vt -2.744951 0.1244507
vt 1.619951 -1.470855
vt 2.049662 0.02914548
vt 2.744951 -0.5438037
vt 0.1244507 -0.5438037
vt -1.000549 0.02914549
vt 0.8197389 -1.595756
vt 0.8197388 0.9561963
vt -2.838627 0.9561963
vt 0.8956258 1.515027
vt -0.2293742 -1.470855
vt 0.8956258 -0.5438037
vt -2.640027 0.02914548
vt 0.2293742 -1.470855
vt 0.8956258 0.1244507
vt -0.8956258 -0.5438037
vt 1.000549 0.02914548
vt 2.838627 0.9561963
vt 0.8197389 3.508149
vt 0.05801272 -0.5992261
vt 0.05801272 1.900774
vt 0.3080128 -0.5992261
vt 0.3080128 1.900774
vt -0.625 -0.5992261
vt -0.625 1.900774
vt -0.375 -0.5992261
vt -0.375 1.900774
vt -0.8080127 -0.5992261
vt -0.8080127 1.900774
vt -0.5580127 -0.5992261
vt -0.5580127 1.900774
vt -0.3080126 -0.5992261
vt -0.3080126 1.900774
vt -0.05801261 -0.5992261
vt -0.05801261 1.900774
vt 0.375 -0.5992261
vt 0.375 1.900774
vt 0.625 -0.5992261
vt 0.625 1.900774
vt 0.5580127 -0.5992261
vt 0.5580127 1.900774
vt 0.8080127 -0.5992261
vt 0.8080127 1.900774
vt -0.75 0.5
vt -0.5 0.5
vt -0.625 0.7165064
vt 0.75 0.5
vt 0.5 0.5
vt 0.625 0.7165064
vt -0.375 0.7165064
vt 0.375 0.7165064
vt -0.25 0.5
vt 0.25 0.5
vt -0.375 0.2834936
vt 0.375 0.2834936
vt -0.625 0.2834936
vt 0.625 0.2834936

vn 0.6712373 0.6464415 0.3627036
vn 0.7655955 0.2416264 0.5962216
vn 0.6246949 0.4685213 0.6246951
vn 0.3415199 0.4740253 0.8115813
vn 0.3430366 0.9056544 0.249231
vn 0 0.6803636 0.7328748
vn 0 0.891092 0.4538228
vn -0.3430366 0.9056544 0.2492309
vn 0.3430366 0.9056544 -0.249231
vn -0.3430366 0.9056544 -0.2492309
vn 0 0.891092 -0.4538228
vn 0 0.6803636 -0.7328748
vn 0.6712373 0.6464415 -0.3627036
vn 0.3415198 0.4740254 -0.8115813
vn 0.624695 0.4685214 -0.6246951
vn 0.7655956 0.2416264 -0.5962215
vn 0.8552532 0.5182104 0
vn 0.9514481 0.147281 -0.2702865
vn 0.9613307 0.2753968 0
vn 0.9514481 0.147281 0.2702865
vn -0.6712373 0.6464415 0.3627036
vn -0.3415199 0.4740253 0.8115813
vn -0.6246949 0.4685213 0.6246951
vn -0.7655955 0.2416264 0.5962216
vn 0.1978733 0.2042619 0.9587091
vn 0.6284283 0 0.7778675
vn 0.3568221 0 0.9341723
vn 0.1978733 -0.2042619 0.9587091
vn 0.9514481 -0.147281 0.2702865
vn 0.9514481 -0.147281 -0.2702865
vn 0.9613307 -0.2753967 0
vn 0.8552532 -0.5182104 0
vn 0.6284284 0 -0.7778674
vn 0.1978732 0.2042619 -0.9587092
vn 0.356822 0 -0.9341724
vn 0.1978732 -0.2042619 -0.9587092
vn -0.3415198 0.4740254 -0.8115813
vn -0.6712373 0.6464415 -0.3627036
vn -0.624695 0.4685213 -0.6246951
vn -0.7655956 0.2416265 -0.5962215
vn -0.6712374 -0.6464415 0.3627035
vn -0.7655955 -0.2416264 0.5962216
vn -0.6246951 -0.4685212 0.6246951
vn -0.3415199 -0.4740253 0.8115813
vn -0.3430367 -0.9056544 0.2492308
vn 0 -0.6803635 0.7328749
vn 0 -0.8910921 0.4538226
vn 0.3430366 -0.9056544 0.2492308
vn -0.3430367 -0.9056544 -0.2492308
vn 0.3430366 -0.9056544 -0.2492308
vn 0 -0.8910921 -0.4538226
vn 0 -0.6803635 -0.7328749
vn -0.6712374 -0.6464414 -0.3627035
vn -0.3415198 -0.4740253 -0.8115813
vn -0.6246951 -0.4685213 -0.6246951
vn -0.7655956 -0.2416264 -0.5962215
vn -0.8552532 -0.5182104 0
vn -0.9514481 -0.147281 -0.2702865
vn -0.9613307 -0.2753968 0
vn -0.9514481 -0.147281 0.2702865
vn -0.1978733 -0.2042619 0.9587091
vn -0.6284283 0 0.7778675
vn -0.3568221 0 0.9341723
vn -0.1978733 0.2042619 0.9587091
vn 0.6712373 -0.6464415 0.3627035
vn 0.3415199 -0.4740253 0.8115813
vn 0.6246951 -0.4685213 0.6246951
vn 0.7655955 -0.2416264 0.5962216
vn 0.3415198 -0.4740253 -0.8115813
vn 0.6712374 -0.6464414 -0.3627035
vn 0.6246951 -0.4685213 -0.6246951
vn 0.7655956 -0.2416265 -0.5962215
vn -0.6284284 0 -0.7778674
vn -0.1978732 -0.2042619 -0.9587092
vn -0.356822 0 -0.9341724
vn -0.1978732 0.2042619 -0.9587092
vn -0.9514481 0.147281 0.2702865
vn -0.9514481 0.147281 -0.2702865
vn -0.9613307 0.2753967 0
vn -0.8552532 0.5182104 0
vn -1 0 0
vn -0.5000001 0 0.8660253
vn 0.5000001 0 0.8660253
vn 1 0 0
vn 0.5000001 0 -0.8660253
vn -0.5000001 0 -0.8660253
vn 0 -1 0
vn 0 1 0

usemtl DefaultHDMaterial
f 3/3/1 2/2/1 1/1/1
f 5/6/2 4/5/2 2/4/2
f 3/9/3 5/8/3 2/7/3
f 6/10/4 5/8/4 3/9/4
f 7/11/5 3/3/5 1/1/5
f 8/13/6 6/12/6 3/3/6
f 7/11/7 8/13/7 3/3/7
f 9/14/8 8/13/8 7/11/8
f 10/15/9 7/11/9 1/1/9
f 11/16/10 9/14/10 7/11/10
f 10/15/11 11/16/11 7/11/11
f 12/17/12 11/16/12 10/15/12
f 13/18/13 10/15/13 1/1/13
f 14/21/14 12/20/14 10/19/14
f 13/22/15 14/21/15 10/19/15
f 15/25/16 14/24/16 13/23/16
f 2/4/17 13/23/17 1/26/17
f 16/27/18 15/25/18 13/23/18
f 2/4/19 16/27/19 13/23/19
f 4/5/20 16/27/20 2/4/20
f 17/28/21 8/13/21 9/14/21
f 18/30/22 6/10/22 8/29/22
f 17/31/23 18/30/23 8/29/23
f 19/34/24 18/33/24 17/32/24
f 20/35/25 5/8/25 6/10/25
f 21/37/26 4/36/26 5/8/26
f 20/35/27 21/37/27 5/8/27
f 22/38/28 21/37/28 20/35/28
f 23/39/29 16/27/29 4/5/29
f 24/40/30 15/25/30 16/27/30
f 23/39/31 24/40/31 16/27/31
f 25/41/32 24/40/32 23/39/32
f 26/43/33 14/21/33 15/42/33
f 27/44/34 12/20/34 14/21/34
f 26/43/35 27/44/35 14/21/35
f 28/45/36 27/44/36 26/43/36
f 29/47/37 11/46/37 12/20/37
f 30/48/38 9/14/38 11/16/38
f 29/47/39 30/49/39 11/46/39
f 31/52/40 30/51/40 29/50/40
f 34/55/41 33/54/41 32/53/41
f 35/57/42 19/34/42 33/56/42
f 34/60/43 35/59/43 33/58/43
f 22/38/44 35/59/44 34/60/44
f 36/61/45 34/55/45 32/53/45
f 37/63/46 22/62/46 34/55/46
f 36/61/47 37/63/47 34/55/47
f 25/64/48 37/63/48 36/61/48
f 38/65/49 36/61/49 32/53/49
f 39/66/50 25/64/50 36/61/50
f 38/65/51 39/66/51 36/61/51
f 28/67/52 39/66/52 38/65/52
f 40/68/53 38/65/53 32/53/53
f 41/70/54 28/45/54 38/69/54
f 40/71/55 41/70/55 38/69/55
f 31/52/56 41/73/56 40/72/56
f 33/56/57 40/72/57 32/74/57
f 42/75/58 31/52/58 40/72/58
f 33/56/59 42/75/59 40/72/59
f 19/34/60 42/75/60 33/56/60
f 20/35/61 35/59/61 22/38/61
f 18/30/62 19/76/62 35/59/62
f 20/35/63 18/30/63 35/59/63
f 6/10/64 18/30/64 20/35/64
f 23/77/65 37/63/65 25/64/65
f 21/37/66 22/38/66 37/78/66
f 23/79/67 21/37/67 37/78/67
f 4/5/68 21/80/68 23/39/68
f 26/43/69 39/81/69 28/45/69
f 24/82/70 25/64/70 39/66/70
f 26/43/71 24/83/71 39/81/71
f 15/25/72 24/40/72 26/84/72
f 29/47/73 41/70/73 31/85/73
f 27/44/74 28/45/74 41/70/74
f 29/47/75 27/44/75 41/70/75
f 12/20/76 27/44/76 29/47/76
f 17/32/77 42/75/77 19/34/77
f 30/51/78 31/52/78 42/75/78
f 17/32/79 30/51/79 42/75/79
f 9/86/80 30/51/80 17/32/80
f 43/111/87 55/112/87 45/113/87
f 45/113/87 55/112/87 47/117/87
f 47/117/87 55/112/87 49/119/87
f 49/119/87 55/112/87 51/121/87
f 51/121/87 55/112/87 53/123/87
f 53/123/87 55/112/87 43/111/87
f 46/116/88 56/115/88 44/114/88
f 48/118/88 56/115/88 46/116/88
f 50/120/88 56/115/88 48/118/88
f 52/122/88 56/115/88 50/120/88
f 54/124/88 56/115/88 52/122/88
f 44/114/88 56/115/88 54/124/88
f 46/90/82 44/88/81 43/87/81
f 43/87/81 45/89/82 46/90/82
f 48/94/83 46/92/82 45/91/82
f 45/91/82 47/93/83 48/94/83
f 50/98/84 48/96/83 47/95/83
f 47/95/83 49/97/84 50/98/84
f 52/102/85 50/100/84 49/99/84
f 49/99/84 51/101/85 52/102/85
f 54/106/86 52/104/85 51/103/85
f 51/103/85 53/105/86 54/106/86
f 44/110/81 54/108/86 53/107/86
f 53/107/86 43/109/81 44/110/81

