<svg width="32" height="32" viewBox="0 0 32 32" fill="none" xmlns="http://www.w3.org/2000/svg">
<path fill-rule="evenodd" clip-rule="evenodd" d="M5.78769 8.84618C5.9118 5.35556 8.43961 2.41757 11.8726 1.77389C14.6004 1.26242 17.3996 1.26242 20.1274 1.77389C23.5604 2.41757 26.0882 5.35555 26.2123 8.84618L26.6091 20.0069C26.8227 26.014 22.0109 31 16 31C9.98914 31 5.17728 26.014 5.39086 20.0069L5.40369 19.6463L7.21201 21.4547C8.38358 22.6262 10.2831 22.6262 11.4547 21.4547C12.1977 20.7117 12.4694 19.6759 12.27 18.7187C13.292 18.2404 14 17.2029 14 16C14 14.7971 13.292 13.7596 12.27 13.2813C12.4695 12.3241 12.1977 11.2883 11.4547 10.5453C10.2831 9.37377 8.38359 9.37377 7.21201 10.5453L5.67254 12.0848L5.78769 8.84618Z" fill="black"/>
<path d="M6 16H11" stroke="black" stroke-width="2" stroke-linecap="round"/>
<path d="M9.33333 12.6667L6 16L9.33333 19.3333" stroke="black" stroke-width="2" stroke-linecap="round" stroke-linejoin="round"/>
</svg>
