<svg width="32" height="32" viewBox="0 0 32 32" fill="none" xmlns="http://www.w3.org/2000/svg">
<path fill-rule="evenodd" clip-rule="evenodd" d="M11.8726 1.77388C8.43961 2.41757 5.9118 5.35555 5.78769 8.84618L5.39086 20.0069C5.17728 26.014 9.98914 31 16 31C22.0109 31 26.8227 26.014 26.6091 20.0069L26.2123 8.84618C26.0882 5.35555 23.5604 2.41757 20.1274 1.77388C17.3996 1.26242 14.6004 1.26242 11.8726 1.77388ZM17 9V13C17 13.5523 16.5523 14 16 14C15.4477 14 15 13.5523 15 13V9C15 8.44772 15.4477 8 16 8C16.5523 8 17 8.44772 17 9ZM13 9C13 7.34315 14.3431 6 16 6C17.6569 6 19 7.34315 19 9V13C19 14.6569 17.6569 16 16 16C14.3431 16 13 14.6569 13 13V9Z" fill="black"/>
</svg>
