<svg width="32" height="32" viewBox="0 0 32 32" fill="none" xmlns="http://www.w3.org/2000/svg">
<path fill-rule="evenodd" clip-rule="evenodd" d="M20.1274 1.77388C23.5604 2.41757 26.0882 5.35555 26.2123 8.84618L26.6091 20.0069C26.8227 26.014 22.0109 31 16 31C9.98914 31 5.17728 26.014 5.39087 20.0069L5.78769 8.84618C5.9118 5.35555 8.43961 2.41757 11.8726 1.77388C14.6004 1.26242 17.3996 1.26242 20.1274 1.77388ZM18.741 3C21.9696 3 24.6194 5.55497 24.737 8.78152L25 16H16V4C16 3.44772 16.4477 3 17 3H18.741Z" fill="black"/>
<rect width="6" height="10" rx="3" transform="matrix(-1 0 0 1 19 6)" fill="black"/>
</svg>
