<svg width="32" height="32" viewBox="0 0 32 32" fill="none" xmlns="http://www.w3.org/2000/svg">
<path fill-rule="evenodd" clip-rule="evenodd" d="M5.78769 8.84618C5.9118 5.35556 8.43961 2.41757 11.8726 1.77389C14.6004 1.26242 17.3996 1.26242 20.1274 1.77389C23.5604 2.41757 26.0882 5.35555 26.2123 8.84618L26.6091 20.0069C26.8227 26.014 22.0109 31 16 31C9.98914 31 5.17728 26.014 5.39086 20.0069L5.78769 8.84618ZM17 8.41426L18.6262 10.0404C19.0167 10.431 19.6499 10.431 20.0404 10.0404C20.4309 9.64992 20.4309 9.01675 20.0404 8.62623L16.7071 5.29289C16.3165 4.90237 15.6834 4.90237 15.2929 5.29289L11.9595 8.62623C11.569 9.01675 11.569 9.64992 11.9595 10.0404C12.35 10.431 12.9832 10.431 13.3737 10.0404L15 8.41417V12C15 12.5523 15.4477 13 16 13C16.5523 13 17 12.5523 17 12V8.41426Z" fill="black"/>
</svg>
