<svg width="32" height="32" viewBox="0 0 32 32" fill="none" xmlns="http://www.w3.org/2000/svg">
<g clip-path="url(#clip0)">
<path fill-rule="evenodd" clip-rule="evenodd" d="M5.48603 0.83952C3.09344 1.21715 1.21743 3.09314 0.846627 5.48679C-0.278293 12.7486 -0.282195 19.1814 0.834918 26.4374C1.20933 28.8693 3.13588 30.7579 5.56865 31.1266C13.2517 32.2911 18.7483 32.2911 26.4314 31.1266C28.8641 30.7579 30.791 28.869 31.1724 26.4382C32.2892 19.3197 32.2757 13.3648 31.1319 5.64617C30.7655 3.17416 28.8258 1.23446 26.3538 0.868127C18.6078 -0.27976 12.6381 -0.289296 5.48603 0.83952ZM21.2495 23H10.8801V20.7841L16.0577 15.9901C17.3787 14.7188 18.089 13.9233 18.089 12.7656C18.089 11.4872 17.1373 10.6918 15.8588 10.6918C14.5307 10.6918 13.65 11.544 13.6571 12.9361H10.7381C10.731 10.081 12.8262 8.25568 15.8801 8.25568C18.998 8.25568 21.0577 10.0384 21.0577 12.5597C21.0577 14.2145 20.2551 15.5781 17.2651 18.3054L15.1415 20.3864V20.4858H21.2495V23Z" fill="black"/>
</g>
<defs>
<clipPath id="clip0">
<rect width="32" height="32" fill="white"/>
</clipPath>
</defs>
</svg>
