<svg width="32" height="32" viewBox="0 0 32 32" fill="none" xmlns="http://www.w3.org/2000/svg">
<g clip-path="url(#clip0)">
<path fill-rule="evenodd" clip-rule="evenodd" d="M5.48603 0.83952C3.09344 1.21715 1.21743 3.09314 0.846627 5.48679C-0.278293 12.7486 -0.282195 19.1814 0.834918 26.4374C1.20933 28.8693 3.13588 30.7579 5.56865 31.1266C13.2517 32.2911 18.7483 32.2911 26.4314 31.1266C28.8641 30.7579 30.791 28.869 31.1724 26.4382C32.2892 19.3197 32.2757 13.3648 31.1319 5.64617C30.7655 3.17416 28.8258 1.23446 26.3538 0.868127C18.6078 -0.27976 12.6381 -0.289296 5.48603 0.83952ZM21.6401 19.0866C21.633 21.4446 19.275 23.1989 15.9938 23.1989C12.7125 23.1989 10.3475 21.4446 10.3546 19.0866C10.3475 17.2685 11.7324 15.7841 13.508 15.4929V15.3935C11.9597 15.081 10.8873 13.7599 10.8944 12.169C10.8873 9.91761 13.0463 8.25568 15.9938 8.25568C18.9341 8.25568 21.0932 9.91761 21.1003 12.169C21.0932 13.767 20.0066 15.081 18.4867 15.3935V15.4929C20.2338 15.7841 21.633 17.2685 21.6401 19.0866ZM13.5506 18.8452C13.5506 20.0739 14.5307 20.9403 15.9938 20.9403C17.4498 20.9403 18.437 20.081 18.437 18.8452C18.437 17.5881 17.4 16.679 15.9938 16.679C14.5804 16.679 13.5506 17.5881 13.5506 18.8452ZM13.8915 12.4886C13.8915 13.6392 14.7651 14.4418 15.9938 14.4418C17.2154 14.4418 18.0961 13.6392 18.0961 12.4886C18.0961 11.3594 17.2296 10.571 15.9938 10.571C14.7509 10.571 13.8915 11.3523 13.8915 12.4886Z" fill="black"/>
</g>
<defs>
<clipPath id="clip0">
<rect width="32" height="32" fill="white"/>
</clipPath>
</defs>
</svg>
