<svg width="32" height="32" viewBox="0 0 32 32" fill="none" xmlns="http://www.w3.org/2000/svg">
<g clip-path="url(#clip0)">
<path fill-rule="evenodd" clip-rule="evenodd" d="M5.48603 0.83952C3.09344 1.21715 1.21743 3.09314 0.846627 5.48679C-0.278293 12.7486 -0.282195 19.1814 0.834918 26.4374C1.20933 28.8693 3.13588 30.7579 5.56865 31.1266C13.2517 32.2911 18.7483 32.2911 26.4314 31.1266C28.8641 30.7579 30.791 28.869 31.1724 26.4382C32.2892 19.3197 32.2757 13.3648 31.1319 5.64617C30.7655 3.17416 28.8258 1.23446 26.3538 0.868127C18.6078 -0.27976 12.6381 -0.289296 5.48603 0.83952ZM10.4554 18.0099L9.80771 20H7.83043L10.8432 11.2727H13.2211L16.2296 20H14.2523L13.6046 18.0099H10.4554ZM11.998 13.267L10.9242 16.5696H13.1401L12.0662 13.267H11.998ZM17.2459 11.2727H19.0613V20H17.2459V11.2727ZM22.7654 13.4545H23.997V14.8182H22.7654V17.9886C22.7654 18.4915 23.0169 18.6278 23.3791 18.6278C23.5287 18.6278 23.6948 18.595 23.7937 18.5754C23.8074 18.5727 23.8199 18.5703 23.8308 18.5682L24.1163 19.919C23.9331 19.9787 23.6007 20.0724 23.1319 20.0895C21.8152 20.1449 20.9416 19.5099 20.9501 18.2273V14.8182H20.0552V13.4545H20.9501V11.8864H22.7654V13.4545Z" fill="black"/>
</g>
<defs>
<clipPath id="clip0">
<rect width="32" height="32" fill="white"/>
</clipPath>
</defs>
</svg>
