<svg width="32" height="32" viewBox="0 0 32 32" fill="none" xmlns="http://www.w3.org/2000/svg">
<g clip-path="url(#clip0)">
<path fill-rule="evenodd" clip-rule="evenodd" d="M5.48603 0.83952C3.09344 1.21715 1.21743 3.09314 0.846627 5.48679C-0.278293 12.7486 -0.282195 19.1814 0.834918 26.4374C1.20933 28.8693 3.13588 30.7579 5.56865 31.1266C13.2517 32.2911 18.7483 32.2911 26.4314 31.1266C28.8641 30.7579 30.791 28.869 31.1724 26.4382C32.2892 19.3197 32.2757 13.3648 31.1319 5.64617C30.7655 3.17416 28.8258 1.23446 26.3538 0.868127C18.6078 -0.27976 12.6381 -0.289296 5.48603 0.83952ZM16.2646 8.25568C19.631 8.25568 22.1737 10.1875 22.5785 13.5469H19.4677C19.2333 11.9489 18.0188 10.9759 16.3356 10.9759C14.0842 10.9759 12.6069 12.7017 12.6069 15.7273C12.6069 18.8381 14.1055 20.4787 16.3143 20.4787C17.9549 20.4787 19.1765 19.5838 19.4677 18.0284L22.5785 18.0426C22.2447 20.7202 19.9933 23.1989 16.2646 23.1989C12.3725 23.1989 9.48899 20.4716 9.48899 15.7273C9.48899 10.9688 12.4222 8.25568 16.2646 8.25568Z" fill="black"/>
</g>
<defs>
<clipPath id="clip0">
<rect width="32" height="32" fill="white"/>
</clipPath>
</defs>
</svg>
