<svg width="32" height="32" viewBox="0 0 32 32" fill="none" xmlns="http://www.w3.org/2000/svg">
<g clip-path="url(#clip0)">
<path fill-rule="evenodd" clip-rule="evenodd" d="M5.48603 0.83952C3.09344 1.21715 1.21743 3.09314 0.846627 5.48679C-0.278293 12.7486 -0.282195 19.1814 0.834918 26.4374C1.20933 28.8693 3.13588 30.7579 5.56865 31.1266C13.2517 32.2911 18.7483 32.2911 26.4314 31.1266C28.8641 30.7579 30.791 28.869 31.1724 26.4382C32.2892 19.3197 32.2757 13.3648 31.1319 5.64617C30.7655 3.17416 28.8258 1.23446 26.3538 0.868127C18.6078 -0.27976 12.6381 -0.289296 5.48603 0.83952ZM7.26021 6.62784C8.94345 6.62784 10.2148 7.59375 10.4172 9.27344H8.86177C8.74459 8.47443 8.13734 7.98793 7.29572 7.98793C6.17001 7.98793 5.43137 8.85085 5.43137 10.3636C5.43137 11.919 6.18066 12.7393 7.28507 12.7393C8.10538 12.7393 8.71618 12.2919 8.86177 11.5142L10.4172 11.5213C10.2503 12.8601 9.12456 14.0994 7.26021 14.0994C5.31419 14.0994 3.87243 12.7358 3.87243 10.3636C3.87243 7.98438 5.33905 6.62784 7.26021 6.62784ZM14.6412 13.2436C14.3749 13.7514 13.8529 14.103 13.0468 14.103C12.0063 14.103 11.2357 13.5561 11.2357 12.4766C11.2357 11.2585 12.2052 10.8963 13.2847 10.7969C14.2329 10.7045 14.6057 10.6584 14.6057 10.3068V10.2855C14.6057 9.83807 14.311 9.57883 13.7961 9.57883C13.2528 9.57883 12.9296 9.84517 12.8266 10.2074L11.4275 10.0938C11.637 9.09943 12.4964 8.47443 13.8032 8.47443C15.0177 8.47443 16.1185 9.02131 16.1185 10.321V14H14.6839V13.2436H14.6412ZM12.681 12.4268C12.681 12.8423 13.0148 13.0589 13.48 13.0589C14.1441 13.0589 14.6164 12.6222 14.6164 12.0504V11.4716C14.4353 11.5923 13.8955 11.6705 13.5653 11.7166C13.0326 11.7912 12.681 12.0007 12.681 12.4268ZM18.805 16.0455H17.2922V8.54545H18.7836V9.46165H18.8511C19.0535 9.01776 19.4903 8.47443 20.403 8.47443C21.5997 8.47443 22.6118 9.40483 22.6118 11.2798C22.6118 13.1051 21.6423 14.0888 20.3994 14.0888C19.5187 14.0888 19.0606 13.581 18.8511 13.1264H18.805V16.0455ZM19.92 9.67827C19.1849 9.67827 18.773 10.2997 18.773 11.2727C18.773 12.2457 19.192 12.8849 19.92 12.8849C20.6622 12.8849 21.067 12.2244 21.067 11.2727C21.067 10.3281 20.6693 9.67827 19.92 9.67827ZM25.8362 8.47443C27.214 8.47443 28.0237 9.09588 28.1586 10.1009L26.7737 10.1861C26.6991 9.83452 26.3866 9.54688 25.8611 9.54688C25.3923 9.54688 25.023 9.75994 25.0265 10.0866C25.023 10.3494 25.2112 10.5234 25.719 10.6335L26.7062 10.8324C27.7645 11.049 28.2794 11.5213 28.2829 12.3097C28.2794 13.3857 27.2673 14.1065 25.854 14.1065C24.4086 14.1065 23.5209 13.4638 23.3788 12.4197L24.8667 12.3416C24.9591 12.7855 25.3177 13.0163 25.8575 13.0163C26.3866 13.0163 26.7382 12.7855 26.7453 12.4624C26.7382 12.1889 26.5216 12.0149 26.0457 11.919L25.1011 11.7308C24.0358 11.5178 23.5209 10.9886 23.5244 10.1719C23.5209 9.12074 24.4406 8.47443 25.8362 8.47443ZM9.5396 26H4.88406V18.7273H6.4217V24.7322H9.5396V26ZM15.6786 23.294C15.6786 24.9737 14.6488 26.1065 12.994 26.1065C11.3391 26.1065 10.3093 24.9737 10.3093 23.294C10.3093 21.6037 11.3391 20.4744 12.994 20.4744C14.6488 20.4744 15.6786 21.6037 15.6786 23.294ZM11.8469 23.2834C11.8469 24.2351 12.2376 24.9347 13.0011 24.9347C13.7504 24.9347 14.141 24.2351 14.141 23.2834C14.141 22.3317 13.7504 21.6286 13.0011 21.6286C12.2376 21.6286 11.8469 22.3317 11.8469 23.2834ZM21.5629 24.0007C21.4918 25.2543 20.5792 26.1065 19.1268 26.1065C17.4471 26.1065 16.4421 24.9524 16.4421 23.294C16.4421 21.6214 17.4648 20.4744 19.1197 20.4744C20.5437 20.4744 21.4989 21.3018 21.5629 22.5625H20.1353C20.0536 22.0192 19.6985 21.6534 19.1445 21.6534C18.4414 21.6534 17.9798 22.2429 17.9798 23.2727C17.9798 24.3168 18.4379 24.9098 19.1445 24.9098C19.663 24.9098 20.0465 24.5831 20.1353 24.0007H21.5629ZM24.0442 26H22.5314V18.7273H24.0442V22.6158H24.1259L25.873 20.5455H27.6096L25.5854 22.907L27.7125 26H25.9405L24.4526 23.8018L24.0442 24.267V26Z" fill="black"/>
</g>
<defs>
<clipPath id="clip0">
<rect width="32" height="32" fill="white"/>
</clipPath>
</defs>
</svg>
