<svg width="32" height="32" viewBox="0 0 32 32" fill="none" xmlns="http://www.w3.org/2000/svg">
<g clip-path="url(#clip0)">
<path fill-rule="evenodd" clip-rule="evenodd" d="M5.45034 4.63387C3.07686 4.91561 1.11066 6.64967 0.672851 8.99937C-0.220765 13.7954 -0.22427 18.1514 0.662337 22.944C1.10242 25.3229 3.10828 27.0643 5.51198 27.3385C13.2436 28.2205 18.7564 28.2205 26.488 27.3385C28.8917 27.0643 30.8992 25.3234 31.3482 22.9461C32.2305 18.2739 32.2171 14.1965 31.308 9.16523C30.869 6.73551 28.8433 4.92843 26.3894 4.65506C18.6132 3.78877 12.6292 3.78171 5.45034 4.63387ZM11.3146 20H9.46946V11.2727H15.2479V12.794H11.3146V14.8736H14.8643V16.3949H11.3146V20ZM22.6594 20H16.4379V18.6705L19.5444 15.794C20.337 15.0312 20.7631 14.554 20.7631 13.8594C20.7631 13.0923 20.1921 12.6151 19.4251 12.6151C18.6282 12.6151 18.0998 13.1264 18.104 13.9616H16.3526C16.3484 12.2486 17.6055 11.1534 19.4379 11.1534C21.3086 11.1534 22.5444 12.223 22.5444 13.7358C22.5444 14.7287 22.0629 15.5469 20.2688 17.1832L18.9947 18.4318V18.4915H22.6594V20Z" fill="black"/>
</g>
<defs>
<clipPath id="clip0">
<rect width="32" height="32" fill="white"/>
</clipPath>
</defs>
</svg>
