<svg width="32" height="32" viewBox="0 0 32 32" fill="none" xmlns="http://www.w3.org/2000/svg">
<g clip-path="url(#clip0)">
<path fill-rule="evenodd" clip-rule="evenodd" d="M5.45034 4.63387C3.07686 4.91561 1.11066 6.64967 0.672851 8.99937C-0.220765 13.7954 -0.22427 18.1514 0.662337 22.944C1.10242 25.3229 3.10828 27.0643 5.51198 27.3385C13.2436 28.2205 18.7564 28.2205 26.488 27.3385C28.8917 27.0643 30.8992 25.3234 31.3482 22.9461C32.2305 18.2739 32.2171 14.1965 31.308 9.16523C30.869 6.73551 28.8433 4.92843 26.3894 4.65506C18.6132 3.78877 12.6292 3.78171 5.45034 4.63387ZM11.1271 20H9.28196V11.2727H15.0604V12.794H11.1271V14.8736H14.6768V16.3949H11.1271V20ZM22.8938 17.652C22.8896 19.0668 21.4748 20.1193 19.506 20.1193C17.5373 20.1193 16.1183 19.0668 16.1225 17.652C16.1183 16.5611 16.9492 15.6705 18.0146 15.4957V15.4361C17.0856 15.2486 16.4421 14.456 16.4464 13.5014C16.4421 12.1506 17.7376 11.1534 19.506 11.1534C21.2702 11.1534 22.5657 12.1506 22.57 13.5014C22.5657 14.4602 21.9137 15.2486 21.0018 15.4361V15.4957C22.0501 15.6705 22.8896 16.5611 22.8938 17.652ZM18.0401 17.5071C18.0401 18.2443 18.6282 18.7642 19.506 18.7642C20.3796 18.7642 20.9719 18.2486 20.9719 17.5071C20.9719 16.7528 20.3498 16.2074 19.506 16.2074C18.658 16.2074 18.0401 16.7528 18.0401 17.5071ZM18.2447 13.6932C18.2447 14.3835 18.7688 14.8651 19.506 14.8651C20.239 14.8651 20.7674 14.3835 20.7674 13.6932C20.7674 13.0156 20.2475 12.5426 19.506 12.5426C18.7603 12.5426 18.2447 13.0114 18.2447 13.6932Z" fill="black"/>
</g>
<defs>
<clipPath id="clip0">
<rect width="32" height="32" fill="white"/>
</clipPath>
</defs>
</svg>
