<svg width="32" height="32" viewBox="0 0 32 32" fill="none" xmlns="http://www.w3.org/2000/svg">
<g clip-path="url(#clip0)">
<path fill-rule="evenodd" clip-rule="evenodd" d="M5.48603 0.83952C3.09344 1.21715 1.21743 3.09314 0.846627 5.48679C-0.278293 12.7486 -0.282195 19.1814 0.834918 26.4374C1.20933 28.8693 3.13588 30.7579 5.56865 31.1266C13.2517 32.2911 18.7483 32.2911 26.4314 31.1266C28.8641 30.7579 30.791 28.869 31.1724 26.4382C32.2892 19.3197 32.2757 13.3648 31.1319 5.64617C30.7655 3.17416 28.8258 1.23446 26.3538 0.868127C18.6078 -0.27976 12.6381 -0.289296 5.48603 0.83952ZM26.3418 23H12.7623L5.53214 15.7273L12.7623 8.45455H26.3418V23ZM7.71254 15.7273L13.3944 21.4375H24.8077V10.017H13.3944L7.71254 15.7273ZM18.7992 15.7273L22.0165 18.9375L20.9796 19.9886L17.7551 16.7713L14.5307 19.9886L13.4938 18.9375L16.7111 15.7273L13.4938 12.517L14.5307 11.4659L17.7551 14.6832L20.9796 11.4659L22.0165 12.517L18.7992 15.7273Z" fill="black"/>
</g>
<defs>
<clipPath id="clip0">
<rect width="32" height="32" fill="white"/>
</clipPath>
</defs>
</svg>
