<svg width="32" height="32" viewBox="0 0 32 32" fill="none" xmlns="http://www.w3.org/2000/svg">
<g clip-path="url(#clip0)">
<path fill-rule="evenodd" clip-rule="evenodd" d="M5.48603 0.83952C3.09344 1.21715 1.21743 3.09314 0.846627 5.48679C-0.278293 12.7486 -0.282195 19.1814 0.834918 26.4374C1.20933 28.8693 3.13588 30.7579 5.56865 31.1266C13.2517 32.2911 18.7483 32.2911 26.4314 31.1266C28.8641 30.7579 30.791 28.869 31.1724 26.4382C32.2892 19.3197 32.2757 13.3648 31.1319 5.64617C30.7655 3.17416 28.8258 1.23446 26.3538 0.868127C18.6078 -0.27976 12.6381 -0.289296 5.48603 0.83952ZM21.5495 12.6378H18.6021C18.4885 11.4943 17.5865 10.8267 16.1163 10.8267C14.6106 10.8267 13.7797 11.5156 13.7797 12.4531C13.7583 13.4972 14.8166 13.9659 16.0808 14.2571L17.3876 14.5696C19.916 15.1378 21.7413 16.4233 21.7484 18.8452C21.7413 21.5085 19.6532 23.206 16.1021 23.206C12.5723 23.206 10.3208 21.5795 10.2427 18.4332H13.2186C13.318 19.8892 14.4686 20.6278 16.0666 20.6278C17.6291 20.6278 18.6376 19.9034 18.6447 18.8381C18.6376 17.858 17.7569 17.4034 16.1731 17.0199L14.5893 16.6222C12.1319 16.0327 10.6191 14.804 10.6262 12.6591C10.612 10.017 12.9487 8.25568 16.1376 8.25568C19.3762 8.25568 21.5069 10.0455 21.5495 12.6378Z" fill="black"/>
</g>
<defs>
<clipPath id="clip0">
<rect width="32" height="32" fill="white"/>
</clipPath>
</defs>
</svg>
