<svg width="32" height="32" viewBox="0 0 32 32" fill="none" xmlns="http://www.w3.org/2000/svg">
<g clip-path="url(#clip0)">
<path d="M1.83484 5.63987C2.13889 3.67711 3.67736 2.13736 5.64193 1.82729C12.6858 0.715551 18.5532 0.723067 26.2072 1.85732C28.2434 2.15907 29.8409 3.75656 30.1427 5.79276C31.273 13.4199 31.2843 19.2728 30.1845 26.2832C29.8718 28.2761 28.2899 29.8335 26.2815 30.1379C18.6978 31.2874 13.3022 31.2874 5.71851 30.1379C3.70976 29.8334 2.12987 28.2767 1.82327 26.2852C0.721755 19.1305 0.725567 12.8006 1.83484 5.63987Z" stroke="black" stroke-width="2"/>
<path d="M15.9973 23.3196C19.655 23.3196 21.8638 20.5355 21.8709 15.7415C21.878 10.983 19.6408 8.25568 15.9973 8.25568C12.3468 8.25568 10.1309 10.9759 10.1238 15.7415C10.1096 20.5213 12.3326 23.3125 15.9973 23.3196ZM15.9973 20.7699C14.3283 20.7699 13.2488 19.0938 13.2559 15.7415C13.263 12.4389 14.3354 10.777 15.9973 10.777C17.6522 10.777 18.7317 12.4389 18.7317 15.7415C18.7388 19.0938 17.6593 20.7699 15.9973 20.7699Z" fill="black"/>
</g>
<defs>
<clipPath id="clip0">
<rect width="32" height="32" fill="white"/>
</clipPath>
</defs>
</svg>
