<svg width="32" height="32" viewBox="0 0 32 32" fill="none" xmlns="http://www.w3.org/2000/svg">
<g clip-path="url(#clip0)">
<path d="M1.83484 5.63987C2.13889 3.67711 3.67736 2.13736 5.64193 1.82729C12.6858 0.715551 18.5532 0.723067 26.2072 1.85732C28.2434 2.15907 29.8409 3.75656 30.1427 5.79276C31.273 13.4199 31.2843 19.2728 30.1845 26.2832C29.8718 28.2761 28.2899 29.8335 26.2815 30.1379C18.6978 31.2874 13.3022 31.2874 5.71851 30.1379C3.70976 29.8334 2.12987 28.2767 1.82327 26.2852C0.721755 19.1305 0.725567 12.8006 1.83484 5.63987Z" stroke="black" stroke-width="2"/>
<path d="M14.9293 23.2131C16.2006 23.2131 17.5785 22.858 18.6509 22.0199L19.5316 23H22.685L20.4975 20.4929C21.3072 19.4205 21.8185 17.8793 21.8185 15.9048H19.3114C19.3114 16.8565 19.0771 17.7017 18.6935 18.419L16.293 15.6634L17.1452 15.0526C18.3668 14.1719 19.0771 13.0639 19.0771 11.6932C19.0771 9.83239 17.6353 8.26278 15.2987 8.26278C12.9123 8.26278 11.3285 9.8892 11.3285 11.9986C11.3285 13.2912 11.9535 14.3707 12.7134 15.3366C11.1296 16.4233 10.0643 17.4531 10.0643 19.1364C10.0643 21.4304 11.9038 23.2131 14.9293 23.2131ZM17.0174 20.2017C16.4066 20.5781 15.739 20.7841 15.0785 20.7841C13.8143 20.7841 12.9975 20.0028 12.9975 18.9659C12.9975 18.4119 13.3739 17.7727 14.1765 17.1903L14.2617 17.1335L17.0174 20.2017ZM14.837 13.9375C14.2972 13.2557 13.9208 12.652 13.9208 12.0483C13.9208 11.3168 14.4748 10.706 15.32 10.6989C16.1722 10.6918 16.6552 11.2884 16.6552 11.8636C16.6552 12.4744 16.3214 12.9787 15.5969 13.4403L14.837 13.9375Z" fill="black"/>
</g>
<defs>
<clipPath id="clip0">
<rect width="32" height="32" fill="white"/>
</clipPath>
</defs>
</svg>
