<svg width="32" height="32" viewBox="0 0 32 32" fill="none" xmlns="http://www.w3.org/2000/svg">
<g clip-path="url(#clip0)">
<path d="M1.83484 5.63987C2.13889 3.67711 3.67736 2.13736 5.64193 1.82729C12.6858 0.715551 18.5532 0.723067 26.2072 1.85732C28.2434 2.15907 29.8409 3.75656 30.1427 5.79276C31.273 13.4199 31.2843 19.2728 30.1845 26.2832C29.8718 28.2761 28.2899 29.8335 26.2815 30.1379C18.6978 31.2874 13.3022 31.2874 5.71851 30.1379C3.70976 29.8334 2.12987 28.2767 1.82327 26.2852C0.721755 19.1305 0.725567 12.8006 1.83484 5.63987Z" stroke="black" stroke-width="2"/>
<path d="M10.6529 23H16.8674C20.1344 23 21.8745 21.2955 21.8745 18.9801C21.8745 16.8281 20.3333 15.5284 18.6784 15.4503V15.3082C20.1912 14.9673 21.3063 13.8949 21.3063 12.1832C21.3063 10.0028 19.687 8.45455 16.4767 8.45455H10.6529V23ZM13.7282 20.4858V16.6222H16.3063C17.7836 16.6222 18.6998 17.4744 18.6998 18.6747C18.6998 19.7685 17.954 20.4858 16.2353 20.4858H13.7282ZM13.7282 14.5412V10.9403H16.0648C17.4284 10.9403 18.2026 11.6435 18.2026 12.6946C18.2026 13.8452 17.2651 14.5412 16.008 14.5412H13.7282Z" fill="black"/>
</g>
<defs>
<clipPath id="clip0">
<rect width="32" height="32" fill="white"/>
</clipPath>
</defs>
</svg>
