<svg width="32" height="32" viewBox="0 0 32 32" fill="none" xmlns="http://www.w3.org/2000/svg">
<g clip-path="url(#clip0)">
<path d="M1.83484 5.63987C2.13889 3.67711 3.67736 2.13736 5.64193 1.82729C12.6858 0.715551 18.5532 0.723067 26.2072 1.85732C28.2434 2.15907 29.8409 3.75656 30.1427 5.79276C31.273 13.4199 31.2843 19.2728 30.1845 26.2832C29.8718 28.2761 28.2899 29.8335 26.2815 30.1379C18.6978 31.2874 13.3022 31.2874 5.71851 30.1379C3.70976 29.8334 2.12987 28.2767 1.82327 26.2852C0.721755 19.1305 0.725567 12.8006 1.83484 5.63987Z" stroke="black" stroke-width="2"/>
<path d="M19.6284 26.1605V23.8949C17.9451 23.8949 17.6042 23.2486 17.6042 21.8778V19.804C17.6042 18.7102 17.1355 17.7301 15.0758 17.3111V17.027C17.1355 16.608 17.6042 15.6278 17.6042 14.5412V12.4673C17.6042 11.0895 17.9451 10.4432 19.6284 10.4432V8.18466C16.7591 8.18466 14.7065 8.66051 14.7065 12.1619V13.7315C14.7065 15.1875 14.1596 15.8054 12.5261 15.8054V18.5327C14.1596 18.5327 14.7065 19.1506 14.7065 20.6065V22.1832C14.7065 25.6847 16.7591 26.1605 19.6284 26.1605Z" fill="black"/>
</g>
<defs>
<clipPath id="clip0">
<rect width="32" height="32" fill="white"/>
</clipPath>
</defs>
</svg>
