<svg width="32" height="32" viewBox="0 0 32 32" fill="none" xmlns="http://www.w3.org/2000/svg">
<g clip-path="url(#clip0)">
<path d="M1.65593 9.18254C2.00847 7.29048 3.60086 5.86043 5.56822 5.6269C12.6651 4.78447 18.5722 4.79038 26.2787 5.64891C28.3153 5.87579 29.9675 7.37016 30.3239 9.34304C31.213 14.2635 31.2235 18.2174 30.3655 22.7605C30.004 24.6751 28.376 26.1166 26.3747 26.3449C18.7183 27.2184 13.2817 27.2184 5.62532 26.3449C3.624 26.1166 1.9996 24.6754 1.64565 22.7621C0.781401 18.0903 0.784765 13.8581 1.65593 9.18254Z" stroke="black" stroke-width="2"/>
<path d="M9.29368 20H11.1388V16.3949H14.6886V14.8736H11.1388V12.794H15.0721V11.2727H9.29368V20ZM19.4879 20.1193C21.4482 20.1193 22.8501 19.0412 22.8459 17.5497C22.8501 16.4631 22.1598 15.6875 20.8771 15.5256V15.4574C21.853 15.2827 22.5263 14.5923 22.522 13.6122C22.5263 12.2358 21.3203 11.1534 19.5135 11.1534C17.7237 11.1534 16.3771 12.2017 16.3516 13.7102H18.12C18.1413 13.0455 18.7507 12.6151 19.505 12.6151C20.2507 12.6151 20.7493 13.0668 20.745 13.723C20.7493 14.4091 20.1655 14.8736 19.326 14.8736H18.5121V16.2287H19.326C20.3146 16.2287 20.9325 16.723 20.9283 17.4261C20.9325 18.1207 20.3359 18.598 19.4922 18.598C18.6783 18.598 18.0689 18.1719 18.0348 17.5327H16.1768C16.2067 19.0582 17.5703 20.1193 19.4879 20.1193Z" fill="black"/>
</g>
<defs>
<clipPath id="clip0">
<rect width="32" height="32" fill="white"/>
</clipPath>
</defs>
</svg>
