<svg width="32" height="32" viewBox="0 0 32 32" fill="none" xmlns="http://www.w3.org/2000/svg">
<g clip-path="url(#clip0)">
<path d="M1.65593 9.18254C2.00847 7.29048 3.60086 5.86043 5.56822 5.6269C12.6651 4.78447 18.5722 4.79038 26.2787 5.64891C28.3153 5.87579 29.9675 7.37016 30.3239 9.34304C31.213 14.2635 31.2235 18.2174 30.3655 22.7605C30.004 24.6751 28.376 26.1166 26.3747 26.3449C18.7183 27.2184 13.2817 27.2184 5.62532 26.3449C3.624 26.1166 1.9996 24.6754 1.64565 22.7621C0.781401 18.0903 0.784765 13.8581 1.65593 9.18254Z" stroke="black" stroke-width="2"/>
<path d="M9.28196 20H11.1271V16.3949H14.6768V14.8736H11.1271V12.794H15.0604V11.2727H9.28196V20ZM19.506 20.1193C21.4748 20.1193 22.8896 19.0668 22.8938 17.652C22.8896 16.5611 22.0501 15.6705 21.0018 15.4957V15.4361C21.9137 15.2486 22.5657 14.4602 22.57 13.5014C22.5657 12.1506 21.2702 11.1534 19.506 11.1534C17.7376 11.1534 16.4421 12.1506 16.4464 13.5014C16.4421 14.456 17.0856 15.2486 18.0146 15.4361V15.4957C16.9492 15.6705 16.1183 16.5611 16.1225 17.652C16.1183 19.0668 17.5373 20.1193 19.506 20.1193ZM19.506 18.7642C18.6282 18.7642 18.0401 18.2443 18.0401 17.5071C18.0401 16.7528 18.658 16.2074 19.506 16.2074C20.3498 16.2074 20.9719 16.7528 20.9719 17.5071C20.9719 18.2486 20.3796 18.7642 19.506 18.7642ZM19.506 14.8651C18.7688 14.8651 18.2447 14.3835 18.2447 13.6932C18.2447 13.0114 18.7603 12.5426 19.506 12.5426C20.2475 12.5426 20.7674 13.0156 20.7674 13.6932C20.7674 14.3835 20.239 14.8651 19.506 14.8651Z" fill="black"/>
</g>
<defs>
<clipPath id="clip0">
<rect width="32" height="32" fill="white"/>
</clipPath>
</defs>
</svg>
