<svg width="32" height="32" viewBox="0 0 32 32" fill="none" xmlns="http://www.w3.org/2000/svg">
<g clip-path="url(#clip0)">
<path d="M1.83484 5.63987C2.13889 3.67711 3.67736 2.13736 5.64193 1.82729C12.6858 0.715551 18.5532 0.723067 26.2072 1.85732C28.2434 2.15907 29.8409 3.75656 30.1427 5.79276C31.273 13.4199 31.2843 19.2728 30.1845 26.2832C29.8718 28.2761 28.2899 29.8335 26.2815 30.1379C18.6978 31.2874 13.3022 31.2874 5.71851 30.1379C3.70976 29.8334 2.12987 28.2767 1.82327 26.2852C0.721755 19.1305 0.725567 12.8006 1.83484 5.63987Z" stroke="black" stroke-width="2"/>
<path d="M22.8084 15.7273C22.8084 10.9688 19.8539 8.25568 15.9973 8.25568C12.1195 8.25568 9.18626 10.9688 9.18626 15.7273C9.18626 20.4645 12.1195 23.1989 15.9973 23.1989C19.8539 23.1989 22.8084 20.4858 22.8084 15.7273ZM19.6905 15.7273C19.6905 18.8097 18.2275 20.4787 15.9973 20.4787C13.7601 20.4787 12.3042 18.8097 12.3042 15.7273C12.3042 12.6449 13.7601 10.9759 15.9973 10.9759C18.2275 10.9759 19.6905 12.6449 19.6905 15.7273Z" fill="black"/>
</g>
<defs>
<clipPath id="clip0">
<rect width="32" height="32" fill="white"/>
</clipPath>
</defs>
</svg>
