<svg width="32" height="32" viewBox="0 0 32 32" fill="none" xmlns="http://www.w3.org/2000/svg">
<g clip-path="url(#clip0)">
<path d="M1.83484 5.63987C2.13889 3.67711 3.67736 2.13736 5.64193 1.82729C12.6858 0.715551 18.5532 0.723067 26.2072 1.85732C28.2434 2.15907 29.8409 3.75656 30.1427 5.79276C31.273 13.4199 31.2843 19.2728 30.1845 26.2832C29.8718 28.2761 28.2899 29.8335 26.2815 30.1379C18.6978 31.2874 13.3022 31.2874 5.71851 30.1379C3.70976 29.8334 2.12987 28.2767 1.82327 26.2852C0.721755 19.1305 0.725567 12.8006 1.83484 5.63987Z" stroke="black" stroke-width="2"/>
<path d="M18.6021 12.6378H21.5495C21.5069 10.0455 19.3762 8.25568 16.1376 8.25568C12.9487 8.25568 10.612 10.017 10.6262 12.6591C10.6191 14.804 12.1319 16.0327 14.5893 16.6222L16.1731 17.0199C17.7569 17.4034 18.6376 17.858 18.6447 18.8381C18.6376 19.9034 17.6291 20.6278 16.0666 20.6278C14.4686 20.6278 13.318 19.8892 13.2186 18.4332H10.2427C10.3208 21.5795 12.5723 23.206 16.1021 23.206C19.6532 23.206 21.7413 21.5085 21.7484 18.8452C21.7413 16.4233 19.916 15.1378 17.3876 14.5696L16.0808 14.2571C14.8166 13.9659 13.7583 13.4972 13.7797 12.4531C13.7797 11.5156 14.6106 10.8267 16.1163 10.8267C17.5865 10.8267 18.4885 11.4943 18.6021 12.6378Z" fill="black"/>
</g>
<defs>
<clipPath id="clip0">
<rect width="32" height="32" fill="white"/>
</clipPath>
</defs>
</svg>
