<svg width="32" height="32" viewBox="0 0 32 32" fill="none" xmlns="http://www.w3.org/2000/svg">
<g clip-path="url(#clip0)">
<path fill-rule="evenodd" clip-rule="evenodd" d="M5.48603 0.83952C3.09344 1.21715 1.21743 3.09314 0.846627 5.48679C-0.278293 12.7486 -0.282195 19.1814 0.834918 26.4374C1.20933 28.8693 3.13588 30.7579 5.56865 31.1266C13.2517 32.2911 18.7483 32.2911 26.4314 31.1266C28.8641 30.7579 30.791 28.869 31.1724 26.4382C32.2892 19.3197 32.2757 13.3648 31.1319 5.64617C30.7655 3.17416 28.8258 1.23446 26.3538 0.868127C18.6078 -0.27976 12.6381 -0.289296 5.48603 0.83952ZM21.8709 15.7415C21.8638 20.5355 19.655 23.3196 15.9973 23.3196C12.3326 23.3125 10.1096 20.5213 10.1238 15.7415C10.1309 10.9759 12.3468 8.25568 15.9973 8.25568C19.6408 8.25568 21.878 10.983 21.8709 15.7415ZM13.2559 15.7415C13.2488 19.0938 14.3283 20.7699 15.9973 20.7699C17.6593 20.7699 18.7388 19.0938 18.7317 15.7415C18.7317 12.4389 17.6522 10.777 15.9973 10.777C14.3354 10.777 13.263 12.4389 13.2559 15.7415Z" fill="black"/>
</g>
<defs>
<clipPath id="clip0">
<rect width="32" height="32" fill="white"/>
</clipPath>
</defs>
</svg>
