<svg width="32" height="32" viewBox="0 0 32 32" fill="none" xmlns="http://www.w3.org/2000/svg">
<g clip-path="url(#clip0)">
<path fill-rule="evenodd" clip-rule="evenodd" d="M5.48603 0.83952C3.09344 1.21715 1.21743 3.09314 0.846627 5.48679C-0.278293 12.7486 -0.282195 19.1814 0.834918 26.4374C1.20933 28.8693 3.13588 30.7579 5.56865 31.1266C13.2517 32.2911 18.7483 32.2911 26.4314 31.1266C28.8641 30.7579 30.791 28.869 31.1724 26.4382C32.2892 19.3197 32.2757 13.3648 31.1319 5.64617C30.7655 3.17416 28.8258 1.23446 26.3538 0.868127C18.6078 -0.27976 12.6381 -0.289296 5.48603 0.83952ZM21.5602 18.9162C21.5673 21.402 19.2306 23.1989 15.9636 23.1989C12.7676 23.1989 10.4949 21.4304 10.4451 18.8878H13.5417C13.5985 19.9531 14.6142 20.6634 15.9707 20.6634C17.377 20.6634 18.3713 19.8679 18.3642 18.7102C18.3713 17.5384 17.3414 16.7145 15.6937 16.7145H14.3372V14.456H15.6937C17.0929 14.456 18.0659 13.6818 18.0588 12.5384C18.0659 11.4446 17.2349 10.6918 15.992 10.6918C14.7349 10.6918 13.7193 11.4091 13.6838 12.517H10.7363C10.7789 10.0028 13.0233 8.25568 16.0062 8.25568C19.0176 8.25568 21.0275 10.0597 21.0204 12.3537C21.0275 13.9872 19.9054 15.1378 18.2789 15.429V15.5426C20.4167 15.8125 21.5673 17.1051 21.5602 18.9162Z" fill="black"/>
</g>
<defs>
<clipPath id="clip0">
<rect width="32" height="32" fill="white"/>
</clipPath>
</defs>
</svg>
