<svg width="32" height="32" viewBox="0 0 32 32" fill="none" xmlns="http://www.w3.org/2000/svg">
<g clip-path="url(#clip0)">
<path fill-rule="evenodd" clip-rule="evenodd" d="M5.48603 0.83952C3.09344 1.21715 1.21743 3.09314 0.846627 5.48679C-0.278293 12.7486 -0.282195 19.1814 0.834918 26.4374C1.20933 28.8693 3.13588 30.7579 5.56865 31.1266C13.2517 32.2911 18.7483 32.2911 26.4314 31.1266C28.8641 30.7579 30.791 28.869 31.1724 26.4382C32.2892 19.3197 32.2757 13.3648 31.1319 5.64617C30.7655 3.17416 28.8258 1.23446 26.3538 0.868127C18.6078 -0.27976 12.6381 -0.289296 5.48603 0.83952ZM21.4794 18.1491C21.4865 21.0895 19.2848 23.1989 16.0462 23.1989C13.0348 23.1989 10.8402 21.402 10.7834 18.8878H13.7663C13.8374 20.017 14.8246 20.7841 16.0462 20.7841C17.4879 20.7841 18.5178 19.7401 18.5178 18.2273C18.5178 16.7003 17.4666 15.642 16.0036 15.6349C15.1442 15.6349 14.2777 16.0114 13.8303 16.6151L11.0959 16.125L11.7848 8.45455H20.6768V10.9688H14.3203L13.9439 14.6122H14.0291C14.5405 13.8949 15.6413 13.3622 16.9197 13.3622C19.5405 13.3622 21.4865 15.3651 21.4794 18.1491Z" fill="black"/>
</g>
<defs>
<clipPath id="clip0">
<rect width="32" height="32" fill="white"/>
</clipPath>
</defs>
</svg>
