<svg width="32" height="32" viewBox="0 0 32 32" fill="none" xmlns="http://www.w3.org/2000/svg">
<g clip-path="url(#clip0)">
<path fill-rule="evenodd" clip-rule="evenodd" d="M5.48603 0.83952C3.09344 1.21715 1.21743 3.09314 0.846627 5.48679C-0.278293 12.7486 -0.282195 19.1814 0.834918 26.4374C1.20933 28.8693 3.13588 30.7579 5.56865 31.1266C13.2517 32.2911 18.7483 32.2911 26.4314 31.1266C28.8641 30.7579 30.791 28.869 31.1724 26.4382C32.2892 19.3197 32.2757 13.3648 31.1319 5.64617C30.7655 3.17416 28.8258 1.23446 26.3538 0.868127C18.6078 -0.27976 12.6381 -0.289296 5.48603 0.83952ZM21.6001 18.1278C21.6072 21.0895 19.3984 23.2131 16.1598 23.1989C13.1697 23.1847 10.343 21.3807 10.3501 16.054C10.3643 11.1676 12.6726 8.25568 16.2663 8.25568C19.1712 8.25568 21.1598 10.1236 21.451 12.517H18.4183C18.1839 11.5014 17.3814 10.8906 16.2663 10.8906C14.37 10.8906 13.3757 12.652 13.3615 15.4858H13.4609C14.1143 14.2003 15.5277 13.4332 17.1257 13.4332C19.7038 13.4332 21.6072 15.4006 21.6001 18.1278ZM13.674 18.2202C13.674 19.6406 14.7251 20.7841 16.1456 20.7841C17.5661 20.7841 18.6243 19.669 18.6172 18.2131C18.6243 16.7713 17.5874 15.6562 16.1669 15.6562C14.7536 15.6562 13.6811 16.8068 13.674 18.2202Z" fill="black"/>
</g>
<defs>
<clipPath id="clip0">
<rect width="32" height="32" fill="white"/>
</clipPath>
</defs>
</svg>
