<svg width="32" height="32" viewBox="0 0 32 32" fill="none" xmlns="http://www.w3.org/2000/svg">
<g clip-path="url(#clip0)">
<path fill-rule="evenodd" clip-rule="evenodd" d="M5.48603 0.83952C3.09344 1.21715 1.21743 3.09314 0.846627 5.48679C-0.278293 12.7486 -0.282195 19.1814 0.834918 26.4374C1.20933 28.8693 3.13588 30.7579 5.56865 31.1266C13.2517 32.2911 18.7483 32.2911 26.4314 31.1266C28.8641 30.7579 30.791 28.869 31.1724 26.4382C32.2892 19.3197 32.2757 13.3648 31.1319 5.64617C30.7655 3.17416 28.8258 1.23446 26.3538 0.868127C18.6078 -0.27976 12.6381 -0.289296 5.48603 0.83952ZM10.407 13.2983C10.3928 10.3722 12.5874 8.24148 15.8402 8.25568C18.8303 8.26989 21.6428 10.081 21.6499 15.3509C21.657 20.2869 19.3345 23.1989 15.7337 23.1989C12.8217 23.1989 10.8331 21.3452 10.549 18.8949H13.5817C13.8161 19.9531 14.6186 20.5639 15.7337 20.5639C17.63 20.5639 18.6314 18.8097 18.6385 15.9261H18.5391C17.8928 17.2045 16.4723 17.9787 14.8743 17.9787C12.2962 17.9787 10.4141 16.0114 10.407 13.2983ZM18.3331 13.206C18.3189 11.821 17.2749 10.6705 15.8615 10.6705C14.4339 10.6705 13.3757 11.7926 13.3899 13.2131C13.397 14.6406 14.4126 15.7486 15.8331 15.7486C17.2393 15.7486 18.3402 14.598 18.3331 13.206Z" fill="black"/>
</g>
<defs>
<clipPath id="clip0">
<rect width="32" height="32" fill="white"/>
</clipPath>
</defs>
</svg>
