<svg width="32" height="32" viewBox="0 0 32 32" fill="none" xmlns="http://www.w3.org/2000/svg">
<g clip-path="url(#clip0)">
<path fill-rule="evenodd" clip-rule="evenodd" d="M5.48603 0.83952C3.09344 1.21715 1.21743 3.09314 0.846627 5.48679C-0.278293 12.7486 -0.282195 19.1814 0.834918 26.4374C1.20933 28.8693 3.13588 30.7579 5.56865 31.1266C13.2517 32.2911 18.7483 32.2911 26.4314 31.1266C28.8641 30.7579 30.791 28.869 31.1724 26.4382C32.2892 19.3197 32.2757 13.3648 31.1319 5.64617C30.7655 3.17416 28.8258 1.23446 26.3538 0.868127C18.6078 -0.27976 12.6381 -0.289296 5.48603 0.83952ZM18.6509 22.0199C17.5785 22.858 16.2006 23.2131 14.9293 23.2131C11.9038 23.2131 10.0643 21.4304 10.0643 19.1364C10.0643 17.4531 11.1296 16.4233 12.7134 15.3366C11.9535 14.3707 11.3285 13.2912 11.3285 11.9986C11.3285 9.8892 12.9123 8.26278 15.2987 8.26278C17.6353 8.26278 19.0771 9.83239 19.0771 11.6932C19.0771 13.0639 18.3668 14.1719 17.1452 15.0526L16.293 15.6634L18.6935 18.419C19.0771 17.7017 19.3114 16.8565 19.3114 15.9048H21.8185C21.8185 17.8793 21.3072 19.4205 20.4975 20.4929L22.685 23H19.5316L18.6509 22.0199ZM15.0785 20.7841C15.739 20.7841 16.4066 20.5781 17.0174 20.2017L14.2617 17.1335L14.1765 17.1903C13.3739 17.7727 12.9975 18.4119 12.9975 18.9659C12.9975 20.0028 13.8143 20.7841 15.0785 20.7841ZM13.9208 12.0483C13.9208 12.652 14.2972 13.2557 14.837 13.9375L15.5969 13.4403C16.3214 12.9787 16.6552 12.4744 16.6552 11.8636C16.6552 11.2884 16.1722 10.6918 15.32 10.6989C14.4748 10.706 13.9208 11.3168 13.9208 12.0483Z" fill="black"/>
</g>
<defs>
<clipPath id="clip0">
<rect width="32" height="32" fill="white"/>
</clipPath>
</defs>
</svg>
