<svg width="32" height="32" viewBox="0 0 32 32" fill="none" xmlns="http://www.w3.org/2000/svg">
<g clip-path="url(#clip0)">
<path fill-rule="evenodd" clip-rule="evenodd" d="M5.48603 0.83952C3.09344 1.21715 1.21743 3.09314 0.846627 5.48679C-0.278293 12.7486 -0.282195 19.1814 0.834918 26.4374C1.20933 28.8693 3.13588 30.7579 5.56865 31.1266C13.2517 32.2911 18.7483 32.2911 26.4314 31.1266C28.8641 30.7579 30.791 28.869 31.1724 26.4382C32.2892 19.3197 32.2757 13.3648 31.1319 5.64617C30.7655 3.17416 28.8258 1.23446 26.3538 0.868127C18.6078 -0.27976 12.6381 -0.289296 5.48603 0.83952ZM21.3223 26.2102C20.4345 26.7145 18.4529 27.1903 16.4288 27.1903C10.3848 27.1903 6.91175 23.8168 6.90465 18.0142C6.91175 12.304 10.4132 8.51847 16.5211 8.51847C22.1674 8.51847 25.5055 12.0128 25.4984 17.0625C25.5055 20.5497 24.3336 23.0213 21.2654 23.1918C19.6177 23.3125 18.9643 22.6449 18.8081 21.6648H18.7228C18.389 22.5241 16.9402 23.1989 15.3279 23.1065C13.0836 22.9858 11.1802 21.2741 11.166 17.929C11.1802 14.6335 13.2257 13.0781 15.122 12.8011C16.72 12.5597 18.2257 13.1491 18.4672 13.7741H18.5666V12.9787H20.7896V19.9105C20.7967 20.571 21.095 20.9403 21.5851 20.9403C22.5652 20.9403 23.0765 19.6761 23.0694 16.8991C23.0765 12.4389 19.9018 10.8054 16.4856 10.8054C11.7626 10.8054 9.44727 13.8665 9.43306 17.929C9.44727 22.4176 11.9615 24.875 16.5922 24.875C18.2257 24.875 19.8592 24.4631 20.6191 24.1506L21.3223 26.2102ZM13.6163 17.8438C13.6234 19.3494 14.2484 20.7699 16.1021 20.7699C17.8422 20.7699 18.4529 19.7543 18.4316 17.8224C18.4245 16.1179 17.8848 15.1662 16.0879 15.1662C14.5112 15.1662 13.6234 16.2244 13.6163 17.8438Z" fill="black"/>
</g>
<defs>
<clipPath id="clip0">
<rect width="32" height="32" fill="white"/>
</clipPath>
</defs>
</svg>
