<svg width="32" height="32" viewBox="0 0 32 32" fill="none" xmlns="http://www.w3.org/2000/svg">
<g clip-path="url(#clip0)">
<path fill-rule="evenodd" clip-rule="evenodd" d="M5.48603 0.83952C3.09344 1.21715 1.21743 3.09314 0.846627 5.48679C-0.278293 12.7486 -0.282195 19.1814 0.834918 26.4374C1.20933 28.8693 3.13588 30.7579 5.56865 31.1266C13.2517 32.2911 18.7483 32.2911 26.4314 31.1266C28.8641 30.7579 30.791 28.869 31.1724 26.4382C32.2892 19.3197 32.2757 13.3648 31.1319 5.64617C30.7655 3.17416 28.8258 1.23446 26.3538 0.868127C18.6078 -0.27976 12.6381 -0.289296 5.48603 0.83952ZM16.8674 23H10.6529V8.45455H16.4767C19.687 8.45455 21.3063 10.0028 21.3063 12.1832C21.3063 13.8949 20.1912 14.9673 18.6784 15.3082V15.4503C20.3333 15.5284 21.8745 16.8281 21.8745 18.9801C21.8745 21.2955 20.1344 23 16.8674 23ZM13.7282 16.6222V20.4858H16.2353C17.954 20.4858 18.6998 19.7685 18.6998 18.6747C18.6998 17.4744 17.7836 16.6222 16.3063 16.6222H13.7282ZM13.7282 10.9403V14.5412H16.008C17.2651 14.5412 18.2026 13.8452 18.2026 12.6946C18.2026 11.6435 17.4284 10.9403 16.0648 10.9403H13.7282Z" fill="black"/>
</g>
<defs>
<clipPath id="clip0">
<rect width="32" height="32" fill="white"/>
</clipPath>
</defs>
</svg>
