<svg width="32" height="32" viewBox="0 0 32 32" fill="none" xmlns="http://www.w3.org/2000/svg">
<g clip-path="url(#clip0)">
<path fill-rule="evenodd" clip-rule="evenodd" d="M0.846627 5.48679C1.21743 3.09314 3.09344 1.21715 5.48603 0.83952C12.6381 -0.289296 18.6078 -0.27976 26.3538 0.868127C28.8258 1.23446 30.7655 3.17416 31.1319 5.64617C32.2757 13.3648 32.2892 19.3197 31.1724 26.4382C30.791 28.869 28.8641 30.7579 26.4314 31.1266C18.7483 32.2911 13.2517 32.2911 5.56865 31.1266C3.13588 30.7579 1.20933 28.8693 0.834918 26.4374C-0.282195 19.1814 -0.278293 12.7486 0.846627 5.48679ZM9.41421 15L12.7071 11.7071C13.0976 11.3166 13.0976 10.6834 12.7071 10.2929C12.3166 9.90237 11.6834 9.90237 11.2929 10.2929L6.29289 15.2929C5.90237 15.6834 5.90237 16.3166 6.29289 16.7071L11.2929 21.7071C11.6834 22.0976 12.3166 22.0976 12.7071 21.7071C13.0976 21.3166 13.0976 20.6834 12.7071 20.2929L9.41421 17H25C25.5523 17 26 16.5523 26 16C26 15.4477 25.5523 15 25 15H9.41421Z" fill="black"/>
</g>
<defs>
<clipPath id="clip0">
<rect width="32" height="32" fill="white"/>
</clipPath>
</defs>
</svg>
