<svg width="32" height="32" viewBox="0 0 32 32" fill="none" xmlns="http://www.w3.org/2000/svg">
<g clip-path="url(#clip0)">
<path fill-rule="evenodd" clip-rule="evenodd" d="M5.48603 0.83952C3.09344 1.21715 1.21743 3.09314 0.846627 5.48679C-0.278293 12.7486 -0.282195 19.1814 0.834918 26.4374C1.20933 28.8693 3.13588 30.7579 5.56865 31.1266C13.2517 32.2911 18.7483 32.2911 26.4314 31.1266C28.8641 30.7579 30.791 28.869 31.1724 26.4382C32.2892 19.3197 32.2757 13.3648 31.1319 5.64617C30.7655 3.17416 28.8258 1.23446 26.3538 0.868127C18.6078 -0.27976 12.6381 -0.289296 5.48603 0.83952ZM9.73686 11.1534C11.7567 11.1534 13.2823 12.3125 13.5252 14.3281H11.6587C11.5181 13.3693 10.7894 12.7855 9.77947 12.7855C8.42862 12.7855 7.54226 13.821 7.54226 15.6364C7.54226 17.5028 8.44141 18.4872 9.76669 18.4872C10.7511 18.4872 11.484 17.9503 11.6587 17.017L13.5252 17.0256C13.3249 18.6321 11.9741 20.1193 9.73686 20.1193C7.40163 20.1193 5.67152 18.483 5.67152 15.6364C5.67152 12.7812 7.43146 11.1534 9.73686 11.1534ZM17.0643 13.4545H18.2958V14.8182H17.0643V17.9886C17.0643 18.4915 17.3157 18.6278 17.6779 18.6278C17.8276 18.6278 17.9936 18.595 18.0925 18.5754C18.1062 18.5727 18.1187 18.5703 18.1296 18.5682L18.4151 19.919C18.2319 19.9787 17.8995 20.0724 17.4308 20.0895C16.114 20.1449 15.2404 19.5099 15.2489 18.2273V14.8182H14.354V13.4545H15.2489V11.8864H17.0643V13.4545ZM21.2937 20H19.4783V13.4545H21.2383V14.5966H21.3065C21.5451 13.7869 22.146 13.3608 22.8789 13.3608C23.0621 13.3608 23.288 13.3864 23.4499 13.4247V15.0355C23.2795 14.9801 22.9343 14.9375 22.6829 14.9375C21.8817 14.9375 21.2937 15.4915 21.2937 16.2969V20ZM24.3885 11.2727H26.2038V20H24.3885V11.2727Z" fill="black"/>
</g>
<defs>
<clipPath id="clip0">
<rect width="32" height="32" fill="white"/>
</clipPath>
</defs>
</svg>
