<svg width="32" height="32" viewBox="0 0 32 32" fill="none" xmlns="http://www.w3.org/2000/svg">
<g clip-path="url(#clip0)">
<path fill-rule="evenodd" clip-rule="evenodd" d="M5.48603 0.83952C3.09344 1.21715 1.21743 3.09314 0.846627 5.48679C-0.278293 12.7486 -0.282195 19.1814 0.834918 26.4374C1.20933 28.8693 3.13588 30.7579 5.56865 31.1266C13.2517 32.2911 18.7483 32.2911 26.4314 31.1266C28.8641 30.7579 30.791 28.869 31.1724 26.4382C32.2892 19.3197 32.2757 13.3648 31.1319 5.64617C30.7655 3.17416 28.8258 1.23446 26.3538 0.868127C18.6078 -0.27976 12.6381 -0.289296 5.48603 0.83952ZM12.3699 10.4432V8.17756C15.2392 8.17756 17.2917 8.65341 17.2917 12.1548V13.7315C17.2917 15.1875 17.8386 15.8054 19.4721 15.8054V18.5327C17.8386 18.5327 17.2917 19.1506 17.2917 20.6065V22.1761C17.2917 25.6776 15.2392 26.1534 12.3699 26.1534V23.8949C14.0531 23.8949 14.394 23.2486 14.394 21.8707V19.7969C14.394 18.7102 14.8627 17.7301 16.9224 17.3111V17.027C14.8627 16.608 14.394 15.6278 14.394 14.5341V12.4602C14.394 11.0895 14.0531 10.4432 12.3699 10.4432Z" fill="black"/>
</g>
<defs>
<clipPath id="clip0">
<rect width="32" height="32" fill="white"/>
</clipPath>
</defs>
</svg>
