<svg width="32" height="32" viewBox="0 0 32 32" fill="none" xmlns="http://www.w3.org/2000/svg">
<g clip-path="url(#clip0)">
<path fill-rule="evenodd" clip-rule="evenodd" d="M5.48603 0.83952C3.09344 1.21715 1.21743 3.09314 0.846627 5.48679C-0.278293 12.7486 -0.282195 19.1814 0.834918 26.4374C1.20933 28.8693 3.13588 30.7579 5.56865 31.1266C13.2517 32.2911 18.7483 32.2911 26.4314 31.1266C28.8641 30.7579 30.791 28.869 31.1724 26.4382C32.2892 19.3197 32.2757 13.3648 31.1319 5.64617C30.7655 3.17416 28.8258 1.23446 26.3538 0.868127C18.6078 -0.27976 12.6381 -0.289296 5.48603 0.83952ZM19.6284 23.8949V26.1605C16.7591 26.1605 14.7065 25.6847 14.7065 22.1832V20.6065C14.7065 19.1506 14.1596 18.5327 12.5261 18.5327V15.8054C14.1596 15.8054 14.7065 15.1875 14.7065 13.7315V12.1619C14.7065 8.66051 16.7591 8.18466 19.6284 8.18466V10.4432C17.9451 10.4432 17.6042 11.0895 17.6042 12.4673V14.5412C17.6042 15.6278 17.1355 16.608 15.0758 17.027V17.3111C17.1355 17.7301 17.6042 18.7102 17.6042 19.804V21.8778C17.6042 23.2486 17.9451 23.8949 19.6284 23.8949Z" fill="black"/>
</g>
<defs>
<clipPath id="clip0">
<rect width="32" height="32" fill="white"/>
</clipPath>
</defs>
</svg>
