<svg width="32" height="32" viewBox="0 0 32 32" fill="none" xmlns="http://www.w3.org/2000/svg">
<g clip-path="url(#clip0)">
<path fill-rule="evenodd" clip-rule="evenodd" d="M5.48603 0.83952C3.09344 1.21715 1.21743 3.09314 0.846627 5.48679C-0.278293 12.7486 -0.282195 19.1814 0.834918 26.4374C1.20933 28.8693 3.13588 30.7579 5.56865 31.1266C13.2517 32.2911 18.7483 32.2911 26.4314 31.1266C28.8641 30.7579 30.791 28.869 31.1724 26.4382C32.2892 19.3197 32.2757 13.3648 31.1319 5.64617C30.7655 3.17416 28.8258 1.23446 26.3538 0.868127C18.6078 -0.27976 12.6381 -0.289296 5.48603 0.83952ZM8.71165 16.0852C8.71165 17.9034 7.63778 19 5.86506 19H3.80256V13.1818H5.8821C7.63778 13.1818 8.71165 14.2727 8.71165 16.0852ZM5.03267 14.2358V17.946H5.81392C6.90767 17.946 7.48438 17.3835 7.48438 16.0852C7.48438 14.7926 6.90767 14.2358 5.81676 14.2358H5.03267ZM13.5661 17.75C13.3956 18.5597 12.6683 19.0852 11.5888 19.0852C10.245 19.0852 9.42401 18.2216 9.42401 16.8381C9.42401 15.4915 10.2564 14.5795 11.5405 14.5795C12.6939 14.5795 13.5916 15.3125 13.5916 16.7955V17.1278H10.62V17.1307C10.62 17.7812 11.0036 18.1818 11.6087 18.1818C12.0121 18.1818 12.3246 18.0085 12.4467 17.6761L13.5661 17.75ZM11.5604 15.483C11.0234 15.483 10.6456 15.8807 10.62 16.3778H12.4524C12.4496 15.858 12.0859 15.483 11.5604 15.483ZM14.3814 13.1818H15.5916V19H14.3814V13.1818ZM20.527 17.75C20.3565 18.5597 19.6293 19.0852 18.5497 19.0852C17.206 19.0852 16.3849 18.2216 16.3849 16.8381C16.3849 15.4915 17.2173 14.5795 18.5014 14.5795C19.6548 14.5795 20.5526 15.3125 20.5526 16.7955V17.1278H17.581V17.1307C17.581 17.7812 17.9645 18.1818 18.5696 18.1818C18.973 18.1818 19.2855 18.0085 19.4077 17.6761L20.527 17.75ZM18.5213 15.483C17.9844 15.483 17.6065 15.8807 17.581 16.3778H19.4134C19.4105 15.858 19.0469 15.483 18.5213 15.483ZM22.8423 14.6364H23.6634V15.5455H22.8423V17.6591C22.8423 17.9943 23.0099 18.0852 23.2514 18.0852C23.3512 18.0852 23.4619 18.0633 23.5278 18.0503C23.537 18.0485 23.5453 18.0468 23.5526 18.0455L23.7429 18.946C23.6207 18.9858 23.3991 19.0483 23.0866 19.0597C22.2088 19.0966 21.6264 18.6733 21.6321 17.8182V15.5455H21.0355V14.6364H21.6321V13.5909H22.8423V14.6364ZM28.3707 17.75C28.2003 18.5597 27.473 19.0852 26.3935 19.0852C25.0497 19.0852 24.2287 18.2216 24.2287 16.8381C24.2287 15.4915 25.0611 14.5795 26.3452 14.5795C27.4986 14.5795 28.3963 15.3125 28.3963 16.7955V17.1278H25.4247V17.1307C25.4247 17.7812 25.8082 18.1818 26.4134 18.1818C26.8168 18.1818 27.1293 18.0085 27.2514 17.6761L28.3707 17.75ZM26.3651 15.483C25.8281 15.483 25.4503 15.8807 25.4247 16.3778H27.2571C27.2543 15.858 26.8906 15.483 26.3651 15.483Z" fill="black"/>
</g>
<defs>
<clipPath id="clip0">
<rect width="32" height="32" fill="white"/>
</clipPath>
</defs>
</svg>
