<svg width="32" height="32" viewBox="0 0 32 32" fill="none" xmlns="http://www.w3.org/2000/svg">
<g clip-path="url(#clip0)">
<path fill-rule="evenodd" clip-rule="evenodd" d="M5.48603 0.83952C3.09344 1.21715 1.21743 3.09314 0.846627 5.48679C-0.278293 12.7486 -0.282195 19.1814 0.834918 26.4374C1.20933 28.8693 3.13588 30.7579 5.56865 31.1266C13.2517 32.2911 18.7483 32.2911 26.4314 31.1266C28.8641 30.7579 30.791 28.869 31.1724 26.4382C32.2892 19.3197 32.2757 13.3648 31.1319 5.64617C30.7655 3.17416 28.8258 1.23446 26.3538 0.868127C18.6078 -0.27976 12.6381 -0.289296 5.48603 0.83952ZM16.8691 24.8182H15.193L15.2072 23.1705C12.1958 22.9077 10.3137 21.3026 10.2427 18.4332H13.2186C13.2967 19.6193 14.0779 20.3295 15.2356 20.5497L15.2711 16.7926L14.5893 16.6222C12.1319 16.0327 10.6191 14.804 10.6262 12.6591C10.612 10.2372 12.5723 8.56108 15.3493 8.29119L15.3635 6.63636H17.0396L17.0254 8.3054C19.7598 8.60369 21.514 10.2869 21.5495 12.6378H18.6021C18.5169 11.7429 17.9416 11.1392 16.997 10.919L16.9686 14.4702L17.3876 14.5696C19.916 15.1378 21.7413 16.4233 21.7484 18.8452C21.7413 21.3097 19.9586 22.9432 16.8833 23.1776L16.8691 24.8182ZM16.9402 17.233L16.9118 20.5497C17.9842 20.3366 18.6376 19.6974 18.6447 18.8381C18.6376 18.0284 18.041 17.581 16.9402 17.233ZM13.7797 12.4531C13.7654 13.2699 14.4047 13.7315 15.2924 14.0369L15.3208 10.8977C14.3194 11.1037 13.7797 11.6932 13.7797 12.4531Z" fill="black"/>
</g>
<defs>
<clipPath id="clip0">
<rect width="32" height="32" fill="white"/>
</clipPath>
</defs>
</svg>
