<svg width="32" height="32" viewBox="0 0 32 32" fill="none" xmlns="http://www.w3.org/2000/svg">
<g clip-path="url(#clip0)">
<path fill-rule="evenodd" clip-rule="evenodd" d="M5.48603 0.83952C3.09344 1.21715 1.21743 3.09314 0.846627 5.48679C-0.278293 12.7486 -0.282195 19.1814 0.834918 26.4374C1.20933 28.8693 3.13588 30.7579 5.56865 31.1266C13.2517 32.2911 18.7483 32.2911 26.4314 31.1266C28.8641 30.7579 30.791 28.869 31.1724 26.4382C32.2892 19.3197 32.2757 13.3648 31.1319 5.64617C30.7655 3.17416 28.8258 1.23446 26.3538 0.868127C18.6078 -0.27976 12.6381 -0.289296 5.48603 0.83952ZM15.1548 13H12.8821V11.4659C12.8821 10.1662 13.7344 8.6392 14.7216 7.83665L16.0568 8.625C15.5241 9.46307 15.1548 10.3366 15.1548 11.4517V13ZM18.7415 13H16.4688V11.4659C16.4688 10.1662 17.321 8.6392 18.3082 7.83665L19.6435 8.625C19.1108 9.46307 18.7415 10.3366 18.7415 11.4517V13Z" fill="black"/>
</g>
<defs>
<clipPath id="clip0">
<rect width="32" height="32" fill="white"/>
</clipPath>
</defs>
</svg>
