<svg width="32" height="32" viewBox="0 0 32 32" fill="none" xmlns="http://www.w3.org/2000/svg">
<g clip-path="url(#clip0)">
<path fill-rule="evenodd" clip-rule="evenodd" d="M5.48603 0.83952C3.09344 1.21715 1.21743 3.09314 0.846627 5.48679C-0.278293 12.7486 -0.282195 19.1814 0.834918 26.4374C1.20933 28.8693 3.13588 30.7579 5.56865 31.1266C13.2517 32.2911 18.7483 32.2911 26.4314 31.1266C28.8641 30.7579 30.791 28.869 31.1724 26.4382C32.2892 19.3197 32.2757 13.3648 31.1319 5.64617C30.7655 3.17416 28.8258 1.23446 26.3538 0.868127C18.6078 -0.27976 12.6381 -0.289296 5.48603 0.83952ZM12.957 19H9.02521V13.1818H12.9457V14.196H10.2553V15.5824H12.744V16.5966H10.2553V17.9858H12.957V19ZM15.9379 15.5852C15.4492 15.5852 15.114 15.9148 15.1112 16.4773V19H13.9009V14.6364H15.0543V15.4062H15.1055C15.3015 14.8977 15.7702 14.5795 16.418 14.5795C17.3271 14.5795 17.9237 15.2045 17.9237 16.2216V19H16.7134V16.4375C16.7163 15.9034 16.4237 15.5852 15.9379 15.5852ZM21.7241 18.3011C21.5565 18.6648 21.19 19.071 20.4854 19.071C19.4911 19.071 18.7156 18.2841 18.7156 16.8239C18.7156 15.3239 19.5252 14.5795 20.4826 14.5795C21.2127 14.5795 21.5621 15.0142 21.7241 15.3693H21.761V13.1818H22.9684V19H21.7752V18.3011H21.7241ZM19.9513 16.8182C19.9513 17.5795 20.2752 18.108 20.869 18.108C21.4513 18.108 21.7866 17.5966 21.7866 16.8182C21.7866 16.0398 21.457 15.5426 20.869 15.5426C20.2695 15.5426 19.9513 16.0625 19.9513 16.8182Z" fill="black"/>
</g>
<defs>
<clipPath id="clip0">
<rect width="32" height="32" fill="white"/>
</clipPath>
</defs>
</svg>
