<svg width="32" height="32" viewBox="0 0 32 32" fill="none" xmlns="http://www.w3.org/2000/svg">
<path fill-rule="evenodd" clip-rule="evenodd" d="M0 14C0 12.8954 0.895431 12 2 12H15C15.5523 12 16 11.5523 16 11V4C16 2.89543 16.8954 2 18 2H30C31.1046 2 32 2.89543 32 4V26C32 27.1046 31.1046 28 30 28H2C0.895431 28 0 27.1046 0 26V14ZM24 13C24.5523 13 25 13.4477 25 14V20V21H24H14.4142L15.7071 22.2929C16.0976 22.6834 16.0976 23.3166 15.7071 23.7071C15.3166 24.0976 14.6834 24.0976 14.2929 23.7071L11.2929 20.7071C11.197 20.6112 11.1247 20.5007 11.0759 20.3828C11.0273 20.2657 11.0004 20.1375 11 20.003C11 20.002 11 20.001 11 20C11 19.999 11 19.998 11 19.997C11.0004 19.8625 11.0273 19.7343 11.0759 19.6172C11.1247 19.4993 11.197 19.3888 11.2929 19.2929L14.2929 16.2929C14.6834 15.9024 15.3166 15.9024 15.7071 16.2929C16.0976 16.6834 16.0976 17.3166 15.7071 17.7071L14.4142 19H23V14C23 13.4477 23.4477 13 24 13Z" fill="black"/>
</svg>
