<svg width="32" height="32" viewBox="0 0 32 32" fill="none" xmlns="http://www.w3.org/2000/svg">
<g clip-path="url(#clip0)">
<path fill-rule="evenodd" clip-rule="evenodd" d="M5.48603 0.83952C3.09344 1.21715 1.21743 3.09314 0.846627 5.48679C-0.278293 12.7486 -0.282195 19.1814 0.834918 26.4374C1.20933 28.8693 3.13588 30.7579 5.56865 31.1266C13.2517 32.2911 18.7483 32.2911 26.4314 31.1266C28.8641 30.7579 30.791 28.869 31.1724 26.4382C32.2892 19.3197 32.2757 13.3648 31.1319 5.64617C30.7655 3.17416 28.8258 1.23446 26.3538 0.868127C18.6078 -0.27976 12.6381 -0.289296 5.48603 0.83952ZM12.0918 20H6.19407V11.2727H12.0748V12.794H8.03924V14.8736H11.7722V16.3949H8.03924V18.4787H12.0918V20ZM16.1667 13.3693C17.8201 13.3693 18.7917 14.1151 18.9537 15.321L17.2917 15.4233C17.2022 15.0014 16.8272 14.6562 16.1966 14.6562C15.6341 14.6562 15.1909 14.9119 15.1951 15.304C15.1909 15.6193 15.4167 15.8281 16.0261 15.9602L17.2108 16.1989C18.4806 16.4588 19.0985 17.0256 19.1028 17.9716C19.0985 19.2628 17.8841 20.1278 16.188 20.1278C14.4537 20.1278 13.3883 19.3565 13.2179 18.1037L15.0034 18.0099C15.1142 18.5426 15.5446 18.8196 16.1923 18.8196C16.8272 18.8196 17.2491 18.5426 17.2576 18.1548C17.2491 17.8267 16.9892 17.6179 16.4181 17.5028L15.2846 17.277C14.0062 17.0213 13.3883 16.3864 13.3926 15.4062C13.3883 14.1449 14.492 13.3693 16.1667 13.3693ZM26.1266 17.6009C26.0414 19.1051 24.9462 20.1278 23.2033 20.1278C21.1877 20.1278 19.9817 18.7429 19.9817 16.7528C19.9817 14.7457 21.209 13.3693 23.1948 13.3693C24.9036 13.3693 26.0499 14.3622 26.1266 15.875H24.4135C24.3155 15.223 23.8894 14.7841 23.2246 14.7841C22.3809 14.7841 21.8269 15.4915 21.8269 16.7273C21.8269 17.9801 22.3766 18.6918 23.2246 18.6918C23.8468 18.6918 24.307 18.2997 24.4135 17.6009H26.1266Z" fill="black"/>
</g>
<defs>
<clipPath id="clip0">
<rect width="32" height="32" fill="white"/>
</clipPath>
</defs>
</svg>
