<svg width="32" height="32" viewBox="0 0 32 32" fill="none" xmlns="http://www.w3.org/2000/svg">
<g clip-path="url(#clip0)">
<path fill-rule="evenodd" clip-rule="evenodd" d="M5.45034 4.63387C3.07686 4.91561 1.11066 6.64967 0.672851 8.99937C-0.220765 13.7954 -0.22427 18.1514 0.662337 22.944C1.10242 25.3229 3.10828 27.0643 5.51198 27.3385C13.2436 28.2205 18.7564 28.2205 26.488 27.3385C28.8917 27.0643 30.8992 25.3234 31.3482 22.9461C32.2305 18.2739 32.2171 14.1965 31.308 9.16523C30.869 6.73551 28.8433 4.92843 26.3894 4.65506C18.6132 3.78877 12.6292 3.78171 5.45034 4.63387ZM8.02752 20H6.18235V11.2727H11.9608V12.794H8.02752V14.8736H11.5772V16.3949H8.02752V20ZM15.2132 11.2727H16.9476V20H15.1025V13.0241H15.0513L13.0527 14.277V12.6406L15.2132 11.2727ZM25.9679 15.6449C25.9636 18.5213 24.6383 20.1918 22.4437 20.1918C20.2449 20.1875 18.911 18.5128 18.9196 15.6449C18.9238 12.7855 20.2534 11.1534 22.4437 11.1534C24.6298 11.1534 25.9721 12.7898 25.9679 15.6449ZM20.7988 15.6449C20.7946 17.6562 21.4423 18.6619 22.4437 18.6619C23.4409 18.6619 24.0886 17.6562 24.0843 15.6449C24.0843 13.6634 23.4366 12.6662 22.4437 12.6662C21.4466 12.6662 20.8031 13.6634 20.7988 15.6449Z" fill="black"/>
</g>
<defs>
<clipPath id="clip0">
<rect width="32" height="32" fill="white"/>
</clipPath>
</defs>
</svg>
