<svg width="32" height="32" viewBox="0 0 32 32" fill="none" xmlns="http://www.w3.org/2000/svg">
<g clip-path="url(#clip0)">
<path fill-rule="evenodd" clip-rule="evenodd" d="M5.45034 4.63387C3.07686 4.91561 1.11066 6.64967 0.672851 8.99937C-0.220765 13.7954 -0.22427 18.1514 0.662337 22.944C1.10242 25.3229 3.10828 27.0643 5.51198 27.3385C13.2436 28.2205 18.7564 28.2205 26.488 27.3385C28.8917 27.0643 30.8992 25.3234 31.3482 22.9461C32.2305 18.2739 32.2171 14.1965 31.308 9.16523C30.869 6.73551 28.8433 4.92843 26.3894 4.65506C18.6132 3.78877 12.6292 3.78171 5.45034 4.63387ZM8.37908 20H6.53391V11.2727H12.3123V12.794H8.37908V14.8736H11.9288V16.3949H8.37908V20ZM15.5648 11.2727H17.2992V20H15.454V13.0241H15.4029L13.4043 14.277V12.6406L15.5648 11.2727ZM25.595 20H19.3734V18.6705L22.4799 15.794C23.2726 15.0312 23.6987 14.554 23.6987 13.8594C23.6987 13.0923 23.1277 12.6151 22.3606 12.6151C21.5637 12.6151 21.0353 13.1264 21.0396 13.9616H19.2882C19.2839 12.2486 20.541 11.1534 22.3734 11.1534C24.2441 11.1534 25.4799 12.223 25.4799 13.7358C25.4799 14.7287 24.9984 15.5469 23.2044 17.1832L21.9302 18.4318V18.4915H25.595V20Z" fill="black"/>
</g>
<defs>
<clipPath id="clip0">
<rect width="32" height="32" fill="white"/>
</clipPath>
</defs>
</svg>
