<svg width="32" height="32" viewBox="0 0 32 32" fill="none" xmlns="http://www.w3.org/2000/svg">
<g clip-path="url(#clip0)">
<path fill-rule="evenodd" clip-rule="evenodd" d="M5.45034 4.63387C3.07686 4.91561 1.11066 6.64967 0.672851 8.99937C-0.220765 13.7954 -0.22427 18.1514 0.662337 22.944C1.10242 25.3229 3.10828 27.0643 5.51198 27.3385C13.2436 28.2205 18.7564 28.2205 26.488 27.3385C28.8917 27.0643 30.8992 25.3234 31.3482 22.9461C32.2305 18.2739 32.2171 14.1965 31.308 9.16523C30.869 6.73551 28.8433 4.92843 26.3894 4.65506C18.6132 3.78877 12.6292 3.78171 5.45034 4.63387ZM11.1388 20H9.29368V11.2727H15.0721V12.794H11.1388V14.8736H14.6886V16.3949H11.1388V20ZM22.8459 17.5497C22.8501 19.0412 21.4482 20.1193 19.4879 20.1193C17.5703 20.1193 16.2067 19.0582 16.1768 17.5327H18.0348C18.0689 18.1719 18.6783 18.598 19.4922 18.598C20.3359 18.598 20.9325 18.1207 20.9283 17.4261C20.9325 16.723 20.3146 16.2287 19.326 16.2287H18.5121V14.8736H19.326C20.1655 14.8736 20.7493 14.4091 20.745 13.723C20.7493 13.0668 20.2507 12.6151 19.505 12.6151C18.7507 12.6151 18.1413 13.0455 18.12 13.7102H16.3516C16.3771 12.2017 17.7237 11.1534 19.5135 11.1534C21.3203 11.1534 22.5263 12.2358 22.522 13.6122C22.5263 14.5923 21.853 15.2827 20.8771 15.4574V15.5256C22.1598 15.6875 22.8501 16.4631 22.8459 17.5497Z" fill="black"/>
</g>
<defs>
<clipPath id="clip0">
<rect width="32" height="32" fill="white"/>
</clipPath>
</defs>
</svg>
