<svg width="32" height="32" viewBox="0 0 32 32" fill="none" xmlns="http://www.w3.org/2000/svg">
<g clip-path="url(#clip0)">
<path fill-rule="evenodd" clip-rule="evenodd" d="M5.45034 4.63387C3.07686 4.91561 1.11066 6.64967 0.672851 8.99937C-0.220765 13.7954 -0.22427 18.1514 0.662337 22.944C1.10242 25.3229 3.10828 27.0643 5.51198 27.3385C13.2436 28.2205 18.7564 28.2205 26.488 27.3385C28.8917 27.0643 30.8992 25.3234 31.3482 22.9461C32.2305 18.2739 32.2171 14.1965 31.308 9.16523C30.869 6.73551 28.8433 4.92843 26.3894 4.65506C18.6132 3.78877 12.6292 3.78171 5.45034 4.63387ZM11.2267 20H9.38157V11.2727H15.16V12.794H11.2267V14.8736H14.7765V16.3949H11.2267V20ZM22.7974 17.0895C22.8017 18.8537 21.4806 20.1193 19.5375 20.1193C17.7306 20.1193 16.4139 19.0412 16.3798 17.5327H18.1696C18.2122 18.2102 18.8045 18.6705 19.5375 18.6705C20.4025 18.6705 21.0204 18.044 21.0204 17.1364C21.0204 16.2202 20.3897 15.5852 19.5119 15.581C18.9963 15.581 18.4764 15.8068 18.2079 16.169L16.5673 15.875L16.9806 11.2727H22.3159V12.7812H18.502L18.2761 14.9673H18.3272C18.6341 14.5369 19.2946 14.2173 20.0616 14.2173C21.6341 14.2173 22.8017 15.419 22.7974 17.0895Z" fill="black"/>
</g>
<defs>
<clipPath id="clip0">
<rect width="32" height="32" fill="white"/>
</clipPath>
</defs>
</svg>
