<svg width="32" height="32" viewBox="0 0 32 32" fill="none" xmlns="http://www.w3.org/2000/svg">
<g clip-path="url(#clip0)">
<path fill-rule="evenodd" clip-rule="evenodd" d="M5.45034 4.63387C3.07686 4.91561 1.11066 6.64967 0.672851 8.99937C-0.220765 13.7954 -0.22427 18.1514 0.662337 22.944C1.10242 25.3229 3.10828 27.0643 5.51198 27.3385C13.2436 28.2205 18.7564 28.2205 26.488 27.3385C28.8917 27.0643 30.8992 25.3234 31.3482 22.9461C32.2305 18.2739 32.2171 14.1965 31.308 9.16523C30.869 6.73551 28.8433 4.92843 26.3894 4.65506C18.6132 3.78877 12.6292 3.78171 5.45034 4.63387ZM11.133 20H9.28782V11.2727H15.0662V12.794H11.133V14.8736H14.6827V16.3949H11.133V20ZM22.8699 17.0767C22.8741 18.8537 21.5488 20.1278 19.6056 20.1193C17.8116 20.1108 16.1156 19.0284 16.1199 15.8324C16.1284 12.9006 17.5133 11.1534 19.6696 11.1534C21.4125 11.1534 22.6056 12.2741 22.7804 13.7102H20.9608C20.8201 13.1009 20.3386 12.7344 19.6696 12.7344C18.5318 12.7344 17.9352 13.7912 17.9267 15.4915H17.9863C18.3784 14.7202 19.2264 14.2599 20.1852 14.2599C21.7321 14.2599 22.8741 15.4403 22.8699 17.0767ZM18.1142 17.1321C18.1142 17.9844 18.7449 18.6705 19.5971 18.6705C20.4494 18.6705 21.0843 18.0014 21.0801 17.1278C21.0843 16.2628 20.4622 15.5938 19.6099 15.5938C18.7619 15.5938 18.1184 16.2841 18.1142 17.1321Z" fill="black"/>
</g>
<defs>
<clipPath id="clip0">
<rect width="32" height="32" fill="white"/>
</clipPath>
</defs>
</svg>
