<svg width="32" height="32" viewBox="0 0 32 32" fill="none" xmlns="http://www.w3.org/2000/svg">
<g clip-path="url(#clip0)">
<path fill-rule="evenodd" clip-rule="evenodd" d="M5.45034 4.63387C3.07686 4.91561 1.11066 6.64967 0.672851 8.99937C-0.220765 13.7954 -0.22427 18.1514 0.662337 22.944C1.10242 25.3229 3.10828 27.0643 5.51198 27.3385C13.2436 28.2205 18.7564 28.2205 26.488 27.3385C28.8917 27.0643 30.8992 25.3234 31.3482 22.9461C32.2305 18.2739 32.2171 14.1965 31.308 9.16523C30.869 6.73551 28.8433 4.92843 26.3894 4.65506C18.6132 3.78877 12.6292 3.78171 5.45034 4.63387ZM11.133 20H9.28782V11.2727H15.0662V12.794H11.133V14.8736H14.6827V16.3949H11.133V20ZM16.1539 14.179C16.1454 12.4233 17.4622 11.1449 19.4139 11.1534C21.2079 11.1619 22.8954 12.2486 22.8997 15.4105C22.9039 18.3722 21.5105 20.1193 19.35 20.1193C17.6028 20.1193 16.4096 19.0071 16.2392 17.5369H18.0588C18.1994 18.1719 18.6809 18.5384 19.35 18.5384C20.4877 18.5384 21.0886 17.4858 21.0929 15.7557H21.0332C20.6454 16.5227 19.7931 16.9872 18.8343 16.9872C17.2875 16.9872 16.1582 15.8068 16.1539 14.179ZM20.9096 14.1236C20.9011 13.2926 20.2747 12.6023 19.4267 12.6023C18.5701 12.6023 17.9352 13.2756 17.9437 14.1278C17.948 14.9844 18.5574 15.6491 19.4096 15.6491C20.2534 15.6491 20.9139 14.9588 20.9096 14.1236Z" fill="black"/>
</g>
<defs>
<clipPath id="clip0">
<rect width="32" height="32" fill="white"/>
</clipPath>
</defs>
</svg>
