<svg width="32" height="32" viewBox="0 0 32 32" fill="none" xmlns="http://www.w3.org/2000/svg">
<g clip-path="url(#clip0)">
<path fill-rule="evenodd" clip-rule="evenodd" d="M5.48603 0.83952C3.09344 1.21715 1.21743 3.09314 0.846627 5.48679C-0.278293 12.7486 -0.282195 19.1814 0.834918 26.4374C1.20933 28.8693 3.13588 30.7579 5.56865 31.1266C13.2517 32.2911 18.7483 32.2911 26.4314 31.1266C28.8641 30.7579 30.791 28.869 31.1724 26.4382C32.2892 19.3197 32.2757 13.3648 31.1319 5.64617C30.7655 3.17416 28.8258 1.23446 26.3538 0.868127C18.6078 -0.27976 12.6381 -0.289296 5.48603 0.83952ZM22.4267 13.1562H19.3017C18.911 11.7926 17.8386 10.9759 16.2548 10.9759C14.0318 10.9759 12.519 12.6875 12.519 15.7131C12.519 18.7528 13.975 20.4787 16.2832 20.4787C18.3287 20.4787 19.5574 19.3352 19.6 17.5312H16.475V15.2159H22.5616V17.0483C22.5616 20.8764 19.9409 23.1989 16.269 23.1989C12.171 23.1989 9.4011 20.3438 9.4011 15.7415C9.4011 11.0256 12.3627 8.25568 16.2051 8.25568C19.4934 8.25568 22.0289 10.2798 22.4267 13.1562Z" fill="black"/>
</g>
<defs>
<clipPath id="clip0">
<rect width="32" height="32" fill="white"/>
</clipPath>
</defs>
</svg>
