<svg width="32" height="32" viewBox="0 0 32 32" fill="none" xmlns="http://www.w3.org/2000/svg">
<g clip-path="url(#clip0)">
<path fill-rule="evenodd" clip-rule="evenodd" d="M5.48603 0.83952C3.09344 1.21715 1.21743 3.09314 0.846627 5.48679C-0.278293 12.7486 -0.282195 19.1814 0.834918 26.4374C1.20933 28.8693 3.13588 30.7579 5.56865 31.1266C13.2517 32.2911 18.7483 32.2911 26.4314 31.1266C28.8641 30.7579 30.791 28.869 31.1724 26.4382C32.2892 19.3197 32.2757 13.3648 31.1319 5.64617C30.7655 3.17416 28.8258 1.23446 26.3538 0.868127C18.6078 -0.27976 12.6381 -0.289296 5.48603 0.83952ZM6.25923 19H5.02912V13.1818H6.25923V15.5824H8.75639V13.1818H9.98367V19H8.75639V16.5966H6.25923V19ZM15.0945 16.8352C15.0945 18.179 14.2706 19.0852 12.9467 19.0852C11.6229 19.0852 10.799 18.179 10.799 16.8352C10.799 15.483 11.6229 14.5795 12.9467 14.5795C14.2706 14.5795 15.0945 15.483 15.0945 16.8352ZM12.0291 16.8267C12.0291 17.5881 12.3416 18.1477 12.9524 18.1477C13.5518 18.1477 13.8643 17.5881 13.8643 16.8267C13.8643 16.0653 13.5518 15.5028 12.9524 15.5028C12.3416 15.5028 12.0291 16.0653 12.0291 16.8267ZM17.0916 19H15.8814V14.6364H17.0348V15.4062H17.0859C17.2678 14.892 17.7138 14.5795 18.3018 14.5795C18.9013 14.5795 19.3473 14.9006 19.4865 15.4062H19.532C19.7109 14.9062 20.2081 14.5795 20.8473 14.5795C21.6598 14.5795 22.2223 15.1193 22.2223 16.0653V19H21.0149V16.304C21.0149 15.8182 20.7251 15.5767 20.3388 15.5767C19.8984 15.5767 19.6399 15.8835 19.6399 16.3352V19H18.4666V16.2784C18.4666 15.8494 18.1996 15.5767 17.8018 15.5767C17.3984 15.5767 17.0916 15.8977 17.0916 16.3807V19ZM27.1442 17.75C26.9737 18.5597 26.2464 19.0852 25.1669 19.0852C23.8232 19.0852 23.0021 18.2216 23.0021 16.8381C23.0021 15.4915 23.8345 14.5795 25.1186 14.5795C26.272 14.5795 27.1697 15.3125 27.1697 16.7955V17.1278H24.1982V17.1307C24.1982 17.7812 24.5817 18.1818 25.1868 18.1818C25.5902 18.1818 25.9027 18.0085 26.0249 17.6761L27.1442 17.75ZM25.1385 15.483C24.6016 15.483 24.2237 15.8807 24.1982 16.3778H26.0305C26.0277 15.858 25.6641 15.483 25.1385 15.483Z" fill="black"/>
</g>
<defs>
<clipPath id="clip0">
<rect width="32" height="32" fill="white"/>
</clipPath>
</defs>
</svg>
