<svg width="32" height="32" viewBox="0 0 32 32" fill="none" xmlns="http://www.w3.org/2000/svg">
<g clip-path="url(#clip0)">
<path fill-rule="evenodd" clip-rule="evenodd" d="M5.48603 0.83952C3.09344 1.21715 1.21743 3.09314 0.846627 5.48679C-0.278293 12.7486 -0.282195 19.1814 0.834918 26.4374C1.20933 28.8693 3.13588 30.7579 5.56865 31.1266C13.2517 32.2911 18.7483 32.2911 26.4314 31.1266C28.8641 30.7579 30.791 28.869 31.1724 26.4382C32.2892 19.3197 32.2757 13.3648 31.1319 5.64617C30.7655 3.17416 28.8258 1.23446 26.3538 0.868127C18.6078 -0.27976 12.6381 -0.289296 5.48603 0.83952ZM4.95881 13.1818H6.18892V19H4.95881V13.1818ZM9.2152 15.5852C8.72656 15.5852 8.39134 15.9148 8.38849 16.4773V19H7.17827V14.6364H8.33168V15.4062H8.38281C8.57884 14.8977 9.04759 14.5795 9.69531 14.5795C10.6044 14.5795 11.201 15.2045 11.201 16.2216V19H9.99077V16.4375C9.99361 15.9034 9.70099 15.5852 9.2152 15.5852ZM13.9276 14.5795C15.0298 14.5795 15.6776 15.0767 15.7855 15.8807L14.6776 15.9489C14.6179 15.6676 14.3679 15.4375 13.9474 15.4375C13.5724 15.4375 13.277 15.608 13.2798 15.8693C13.277 16.0795 13.4276 16.2188 13.8338 16.3068L14.6236 16.4659C15.4702 16.6392 15.8821 17.017 15.8849 17.6477C15.8821 18.5085 15.0724 19.0852 13.9418 19.0852C12.7855 19.0852 12.0753 18.571 11.9616 17.7358L13.152 17.6733C13.2259 18.0284 13.5128 18.2131 13.9446 18.2131C14.3679 18.2131 14.6491 18.0284 14.6548 17.7699C14.6491 17.5511 14.4759 17.4119 14.0952 17.3352L13.3395 17.1847C12.4872 17.0142 12.0753 16.5909 12.0781 15.9375C12.0753 15.0966 12.8111 14.5795 13.9276 14.5795ZM20.6129 17.75C20.4425 18.5597 19.7152 19.0852 18.6357 19.0852C17.2919 19.0852 16.4709 18.2216 16.4709 16.8381C16.4709 15.4915 17.3033 14.5795 18.5874 14.5795C19.7408 14.5795 20.6385 15.3125 20.6385 16.7955V17.1278H17.6669V17.1307C17.6669 17.7812 18.0504 18.1818 18.6555 18.1818C19.0589 18.1818 19.3714 18.0085 19.4936 17.6761L20.6129 17.75ZM18.6072 15.483C18.0703 15.483 17.6925 15.8807 17.6669 16.3778H19.4993C19.4964 15.858 19.1328 15.483 18.6072 15.483ZM22.6385 19H21.4283V14.6364H22.6016V15.3977H22.647C22.8061 14.858 23.2067 14.5739 23.6953 14.5739C23.8175 14.5739 23.968 14.5909 24.076 14.6165V15.6903C23.9624 15.6534 23.7322 15.625 23.5646 15.625C23.0305 15.625 22.6385 15.9943 22.6385 16.5312V19ZM26.4205 14.6364H27.2415V15.5455H26.4205V17.6591C26.4205 17.9943 26.5881 18.0852 26.8295 18.0852C26.9293 18.0852 27.04 18.0633 27.1059 18.0503C27.1151 18.0485 27.1234 18.0468 27.1307 18.0455L27.321 18.946C27.1989 18.9858 26.9773 19.0483 26.6648 19.0597C25.7869 19.0966 25.2045 18.6733 25.2102 17.8182V15.5455H24.6136V14.6364H25.2102V13.5909H26.4205V14.6364Z" fill="black"/>
</g>
<defs>
<clipPath id="clip0">
<rect width="32" height="32" fill="white"/>
</clipPath>
</defs>
</svg>
