<svg width="32" height="32" viewBox="0 0 32 32" fill="none" xmlns="http://www.w3.org/2000/svg">
<g clip-path="url(#clip0)">
<path fill-rule="evenodd" clip-rule="evenodd" d="M5.48603 0.83952C3.09344 1.21715 1.21743 3.09314 0.846627 5.48679C-0.278293 12.7486 -0.282195 19.1814 0.834918 26.4374C1.20933 28.8693 3.13588 30.7579 5.56865 31.1266C13.2517 32.2911 18.7483 32.2911 26.4314 31.1266C28.8641 30.7579 30.791 28.869 31.1724 26.4382C32.2892 19.3197 32.2757 13.3648 31.1319 5.64617C30.7655 3.17416 28.8258 1.23446 26.3538 0.868127C18.6078 -0.27976 12.6381 -0.289296 5.48603 0.83952ZM21.7147 15.7273C21.7076 12.5668 19.165 10.017 16.0044 10.017V8.45455C20.0314 8.45455 23.2701 11.7074 23.2772 15.7273C23.2843 19.7472 20.0314 23 16.0044 23C11.9917 23 8.72461 19.7472 8.73171 15.7273H10.2942C10.2871 18.8807 12.851 21.4375 16.0044 21.4375C19.165 21.4375 21.7218 18.8878 21.7147 15.7273ZM10.6919 11.4943L8.73171 13.4545V8.45455H13.7317L11.7715 10.4148L16.5442 15.1875L15.4647 16.267L10.6919 11.4943Z" fill="black"/>
</g>
<defs>
<clipPath id="clip0">
<rect width="32" height="32" fill="white"/>
</clipPath>
</defs>
</svg>
