<svg width="32" height="32" viewBox="0 0 32 32" fill="none" xmlns="http://www.w3.org/2000/svg">
<g clip-path="url(#clip0)">
<path fill-rule="evenodd" clip-rule="evenodd" d="M5.48603 0.83952C3.09344 1.21715 1.21743 3.09314 0.846627 5.48679C-0.278293 12.7486 -0.282195 19.1814 0.834918 26.4374C1.20933 28.8693 3.13588 30.7579 5.56865 31.1266C13.2517 32.2911 18.7483 32.2911 26.4314 31.1266C28.8641 30.7579 30.791 28.869 31.1724 26.4382C32.2892 19.3197 32.2757 13.3648 31.1319 5.64617C30.7655 3.17416 28.8258 1.23446 26.3538 0.868127C18.6078 -0.27976 12.6381 -0.289296 5.48603 0.83952ZM20.0936 15.7273V20.017H11.9118V15.7273H7.59357L16.0027 7.31818L24.4118 15.7273H20.0936ZM13.3322 14.4489V18.7386H18.6731V14.4489H21.2228L16.0027 9.22869L10.7825 14.4489H13.3322ZM20.0936 21.7216V26.0398H11.9118V21.7216H20.0936ZM13.3322 23V24.7614H18.6731V23H13.3322Z" fill="black"/>
</g>
<defs>
<clipPath id="clip0">
<rect width="32" height="32" fill="white"/>
</clipPath>
</defs>
</svg>
