<svg width="32" height="32" viewBox="0 0 32 32" fill="none" xmlns="http://www.w3.org/2000/svg">
<g clip-path="url(#clip0)">
<path fill-rule="evenodd" clip-rule="evenodd" d="M5.48603 0.83952C3.09344 1.21715 1.21743 3.09314 0.846627 5.48679C-0.278293 12.7486 -0.282195 19.1814 0.834918 26.4374C1.20933 28.8693 3.13588 30.7579 5.56865 31.1266C13.2517 32.2911 18.7483 32.2911 26.4314 31.1266C28.8641 30.7579 30.791 28.869 31.1724 26.4382C32.2892 19.3197 32.2757 13.3648 31.1319 5.64617C30.7655 3.17416 28.8258 1.23446 26.3538 0.868127C18.6078 -0.27976 12.6381 -0.289296 5.48603 0.83952ZM14.584 20.2443C14.5769 21.9418 13.1919 23.3267 11.4874 23.3267C9.78995 23.3267 8.40501 21.9418 8.40501 20.2443C8.40501 18.5398 9.78995 17.1548 11.4874 17.1477H13.1351V14.2926H11.4874C9.78995 14.2997 8.40501 12.9148 8.40501 11.2102C8.40501 9.51278 9.78995 8.12784 11.4874 8.12784C13.1919 8.12784 14.5769 9.51278 14.584 11.2102V12.8438H17.4391V11.2102C17.432 9.51278 18.8169 8.12784 20.5215 8.12784C22.2189 8.12784 23.6039 9.51278 23.6039 11.2102C23.6039 12.9148 22.2189 14.2997 20.5215 14.2926H18.888V17.1477H20.5215C22.2189 17.1548 23.6039 18.5398 23.6039 20.2443C23.6039 21.9418 22.2189 23.3267 20.5215 23.3267C18.8169 23.3267 17.432 21.9418 17.4391 20.2443V18.5966H14.584V20.2443ZM9.85387 20.2443C9.85387 21.1463 10.5854 21.8778 11.4874 21.8778C12.3965 21.8778 13.128 21.1463 13.1351 20.2443V18.5966H11.4874C10.5854 18.6037 9.85387 19.3352 9.85387 20.2443ZM9.85387 11.2102C9.85387 12.1193 10.5854 12.8509 11.4874 12.8438H13.1351V11.2102C13.128 10.3082 12.3965 9.5767 11.4874 9.5767C10.5854 9.5767 9.85387 10.3082 9.85387 11.2102ZM18.888 20.2443C18.8809 21.1463 19.6124 21.8778 20.5215 21.8778C21.4235 21.8778 22.155 21.1463 22.155 20.2443C22.155 19.3352 21.4235 18.6037 20.5215 18.5966H18.888V20.2443ZM18.888 11.2102V12.8438H20.5215C21.4235 12.8509 22.155 12.1193 22.155 11.2102C22.155 10.3082 21.4235 9.5767 20.5215 9.5767C19.6124 9.5767 18.8809 10.3082 18.888 11.2102ZM14.584 14.2926V17.1477H17.4391V14.2926H14.584Z" fill="black"/>
</g>
<defs>
<clipPath id="clip0">
<rect width="32" height="32" fill="white"/>
</clipPath>
</defs>
</svg>
