<svg width="32" height="32" viewBox="0 0 32 32" fill="none" xmlns="http://www.w3.org/2000/svg">
<g clip-path="url(#clip0)">
<path fill-rule="evenodd" clip-rule="evenodd" d="M5.48603 0.83952C3.09344 1.21715 1.21743 3.09314 0.846627 5.48679C-0.278293 12.7486 -0.282195 19.1814 0.834918 26.4374C1.20933 28.8693 3.13588 30.7579 5.56865 31.1266C13.2517 32.2911 18.7483 32.2911 26.4314 31.1266C28.8641 30.7579 30.791 28.869 31.1724 26.4382C32.2892 19.3197 32.2757 13.3648 31.1319 5.64617C30.7655 3.17416 28.8258 1.23446 26.3538 0.868127C18.6078 -0.27976 12.6381 -0.289296 5.48603 0.83952ZM18.4973 23H16.2246L16.8141 19.392H13.9732L13.3837 23H11.111L11.7005 19.392H9.71183L10.0882 17.1193H12.0769L12.5314 14.3352H10.5428L10.9263 12.0625H12.9078L13.4973 8.45455H15.7701L15.1806 12.0625H18.0215L18.611 8.45455H20.8837L20.2942 12.0625H22.29L21.9064 14.3352H19.9178L19.4632 17.1193H21.4519L21.0755 19.392H19.0868L18.4973 23ZM14.8042 14.3352L14.3496 17.1193H17.1905L17.6451 14.3352H14.8042Z" fill="black"/>
</g>
<defs>
<clipPath id="clip0">
<rect width="32" height="32" fill="white"/>
</clipPath>
</defs>
</svg>
