<svg width="32" height="32" viewBox="0 0 32 32" fill="none" xmlns="http://www.w3.org/2000/svg">
<g clip-path="url(#clip0)">
<path fill-rule="evenodd" clip-rule="evenodd" d="M5.48603 0.83952C3.09344 1.21715 1.21743 3.09314 0.846627 5.48679C-0.278293 12.7486 -0.282195 19.1814 0.834918 26.4374C1.20933 28.8693 3.13588 30.7579 5.56865 31.1266C13.2517 32.2911 18.7483 32.2911 26.4314 31.1266C28.8641 30.7579 30.791 28.869 31.1724 26.4382C32.2892 19.3197 32.2757 13.3648 31.1319 5.64617C30.7655 3.17416 28.8258 1.23446 26.3538 0.868127C18.6078 -0.27976 12.6381 -0.289296 5.48603 0.83952ZM15.9973 8.25568C19.8539 8.25568 22.8084 10.9688 22.8084 15.7273C22.8084 20.4858 19.8539 23.1989 15.9973 23.1989C12.1195 23.1989 9.18626 20.4645 9.18626 15.7273C9.18626 10.9688 12.1195 8.25568 15.9973 8.25568ZM15.9973 20.4787C18.2275 20.4787 19.6905 18.8097 19.6905 15.7273C19.6905 12.6449 18.2275 10.9759 15.9973 10.9759C13.7601 10.9759 12.3042 12.6449 12.3042 15.7273C12.3042 18.8097 13.7601 20.4787 15.9973 20.4787Z" fill="black"/>
</g>
<defs>
<clipPath id="clip0">
<rect width="32" height="32" fill="white"/>
</clipPath>
</defs>
</svg>
