<svg width="32" height="32" viewBox="0 0 32 32" fill="none" xmlns="http://www.w3.org/2000/svg">
<g clip-path="url(#clip0)">
<path fill-rule="evenodd" clip-rule="evenodd" d="M5.48603 0.83952C3.09344 1.21715 1.21743 3.09314 0.846627 5.48679C-0.278293 12.7486 -0.282195 19.1814 0.834918 26.4374C1.20933 28.8693 3.13588 30.7579 5.56865 31.1266C13.2517 32.2911 18.7483 32.2911 26.4314 31.1266C28.8641 30.7579 30.791 28.869 31.1724 26.4382C32.2892 19.3197 32.2757 13.3648 31.1319 5.64617C30.7655 3.17416 28.8258 1.23446 26.3538 0.868127C18.6078 -0.27976 12.6381 -0.289296 5.48603 0.83952ZM7.96236 14H6.73224V8.18182H9.0277C10.3487 8.18182 11.1129 8.99716 11.1129 10.1534C11.1129 11.3153 10.3345 12.1136 8.99645 12.1136H7.96236V14ZM7.96236 9.1875V11.1278H8.79759C9.50213 11.1278 9.84588 10.7301 9.84588 10.1534C9.84588 9.57386 9.50213 9.1875 8.7919 9.1875H7.96236ZM14.2919 13.3949C14.0788 13.8011 13.6612 14.0824 13.0163 14.0824C12.1839 14.0824 11.5675 13.6449 11.5675 12.7812C11.5675 11.8068 12.343 11.517 13.2067 11.4375C13.9652 11.3636 14.2635 11.3267 14.2635 11.0455V11.0284C14.2635 10.6705 14.0277 10.4631 13.6158 10.4631C13.1811 10.4631 12.9226 10.6761 12.8402 10.9659L11.7209 10.875C11.8885 10.0795 12.576 9.57955 13.6214 9.57955C14.593 9.57955 15.4737 10.017 15.4737 11.0568V14H14.326V13.3949H14.2919ZM12.7237 12.7415C12.7237 13.0739 12.9908 13.2472 13.3629 13.2472C13.8942 13.2472 14.272 12.8977 14.272 12.4403V11.9773C14.1271 12.0739 13.6953 12.1364 13.4311 12.1733C13.005 12.233 12.7237 12.4006 12.7237 12.7415ZM20.5121 14.0426C20.5121 15.1591 19.6257 15.7273 18.3786 15.7273C17.2024 15.7273 16.5291 15.1989 16.3842 14.5114L17.5036 14.3608C17.603 14.625 17.8729 14.858 18.407 14.858C18.9325 14.858 19.3161 14.625 19.3161 14.0256V13.2273H19.2649C19.1058 13.5881 18.7166 13.9375 18.0206 13.9375C17.0376 13.9375 16.2507 13.2614 16.2507 11.8097C16.2507 10.3239 17.0604 9.57955 18.0178 9.57955C18.7479 9.57955 19.103 10.0142 19.2649 10.3693H19.3104V9.63636H20.5121V14.0426ZM17.4865 11.804C17.4865 12.5568 17.8104 13.0284 18.4041 13.0284C18.9865 13.0284 19.3217 12.5739 19.3217 11.804C19.3217 11.0398 18.9922 10.5426 18.4041 10.5426C17.8047 10.5426 17.4865 11.0625 17.4865 11.804ZM25.4411 12.75C25.2706 13.5597 24.5433 14.0852 23.4638 14.0852C22.12 14.0852 21.299 13.2216 21.299 11.8381C21.299 10.4915 22.1314 9.57955 23.4155 9.57955C24.5689 9.57955 25.4666 10.3125 25.4666 11.7955V12.1278H22.495V12.1307C22.495 12.7812 22.8786 13.1818 23.4837 13.1818C23.8871 13.1818 24.1996 13.0085 24.3217 12.6761L25.4411 12.75ZM23.4354 10.483C22.8984 10.483 22.5206 10.8807 22.495 11.3778H24.3274C24.3246 10.858 23.9609 10.483 23.4354 10.483ZM10.2156 21.0852C10.2156 22.9034 9.14169 24 7.36896 24H5.30646V18.1818H7.38601C9.14169 18.1818 10.2156 19.2727 10.2156 21.0852ZM6.53658 19.2358V22.946H7.31783C8.41158 22.946 8.98828 22.3835 8.98828 21.0852C8.98828 19.7926 8.41158 19.2358 7.32067 19.2358H6.53658ZM15.2234 21.8352C15.2234 23.179 14.3995 24.0852 13.0756 24.0852C11.7518 24.0852 10.9279 23.179 10.9279 21.8352C10.9279 20.483 11.7518 19.5795 13.0756 19.5795C14.3995 19.5795 15.2234 20.483 15.2234 21.8352ZM12.158 21.8267C12.158 22.5881 12.4705 23.1477 13.0813 23.1477C13.6808 23.1477 13.9933 22.5881 13.9933 21.8267C13.9933 21.0653 13.6808 20.5028 13.0813 20.5028C12.4705 20.5028 12.158 21.0653 12.158 21.8267ZM18.0401 24H16.7617L15.5742 19.6364H16.7987L17.4748 22.5682H17.5146L18.2191 19.6364H19.4208L20.1367 22.5511H20.1737L20.8384 19.6364H22.06L20.8754 24H19.5941L18.8441 21.2557H18.7901L18.0401 24ZM24.7425 20.5852C24.2539 20.5852 23.9187 20.9148 23.9158 21.4773V24H22.7056V19.6364H23.859V20.4062H23.9102C24.1062 19.8977 24.5749 19.5795 25.2227 19.5795C26.1317 19.5795 26.7283 20.2045 26.7283 21.2216V24H25.5181V21.4375C25.521 20.9034 25.2283 20.5852 24.7425 20.5852Z" fill="black"/>
</g>
<defs>
<clipPath id="clip0">
<rect width="32" height="32" fill="white"/>
</clipPath>
</defs>
</svg>
