<svg width="32" height="32" viewBox="0 0 32 32" fill="none" xmlns="http://www.w3.org/2000/svg">
<g clip-path="url(#clip0)">
<path fill-rule="evenodd" clip-rule="evenodd" d="M5.48603 0.83952C3.09344 1.21715 1.21743 3.09314 0.846627 5.48679C-0.278293 12.7486 -0.282195 19.1814 0.834918 26.4374C1.20933 28.8693 3.13588 30.7579 5.56865 31.1266C13.2517 32.2911 18.7483 32.2911 26.4314 31.1266C28.8641 30.7579 30.791 28.869 31.1724 26.4382C32.2892 19.3197 32.2757 13.3648 31.1319 5.64617C30.7655 3.17416 28.8258 1.23446 26.3538 0.868127C18.6078 -0.27976 12.6381 -0.289296 5.48603 0.83952ZM19.75 23.5043C17.669 23.5043 16.554 22.0199 16.5469 20.2727V19.5057C16.554 17.7585 17.6974 16.2741 19.75 16.2741C21.8381 16.2741 22.9602 17.7443 22.9531 19.5057V20.2727C22.9602 22.0199 21.8097 23.5043 19.75 23.5043ZM12.2784 15.1662C10.2045 15.1662 9.08949 13.696 9.08239 11.9489V11.1818C9.08949 9.42045 10.2472 7.95028 12.2784 7.95028C14.3736 7.95028 15.4957 9.42045 15.4886 11.1818V11.9489C15.4957 13.7102 14.3452 15.1662 12.2784 15.1662ZM11.6321 23H9.77841L19.7784 8.45455H21.6321L11.6321 23ZM19.75 18.0923C18.8977 18.0923 18.6207 18.8097 18.6136 19.5057V20.2727C18.6207 20.9474 18.8835 21.6719 19.75 21.6719C20.6165 21.6719 20.8793 20.9688 20.8722 20.2727V19.5057C20.8793 18.8097 20.6449 18.0923 19.75 18.0923ZM12.2784 9.76847C11.4332 9.76847 11.1705 10.5071 11.1634 11.1818V11.9489C11.1705 12.6449 11.4403 13.348 12.2784 13.348C13.1449 13.348 13.4148 12.6449 13.4077 11.9489V11.1818C13.4148 10.4858 13.1733 9.76847 12.2784 9.76847Z" fill="black"/>
</g>
<defs>
<clipPath id="clip0">
<rect width="32" height="32" fill="white"/>
</clipPath>
</defs>
</svg>
