<svg width="32" height="32" viewBox="0 0 32 32" fill="none" xmlns="http://www.w3.org/2000/svg">
<g clip-path="url(#clip0)">
<path fill-rule="evenodd" clip-rule="evenodd" d="M5.48603 0.83952C3.09344 1.21715 1.21743 3.09314 0.846627 5.48679C-0.278293 12.7486 -0.282195 19.1814 0.834918 26.4374C1.20933 28.8693 3.13588 30.7579 5.56865 31.1266C13.2517 32.2911 18.7483 32.2911 26.4314 31.1266C28.8641 30.7579 30.791 28.869 31.1724 26.4382C32.2892 19.3197 32.2757 13.3648 31.1319 5.64617C30.7655 3.17416 28.8258 1.23446 26.3538 0.868127C18.6078 -0.27976 12.6381 -0.289296 5.48603 0.83952ZM16.8736 18.6392H14.1818V18.3977C14.1889 15.9119 14.8565 15.152 16.0497 14.3991C16.9233 13.8452 17.598 13.2273 17.598 12.2969C17.598 11.3097 16.8239 10.6705 15.8651 10.6705C14.9347 10.6705 14.0753 11.2884 14.0327 12.446H11.1349C11.1989 9.60511 13.3011 8.25568 15.8793 8.25568C18.6989 8.25568 20.7017 9.70455 20.7017 12.1903C20.7017 13.8594 19.8352 14.9034 18.5071 15.6918C17.3849 16.3665 16.8878 17.0128 16.8736 18.3977V18.6392ZM17.2855 21.4801C17.2784 22.4247 16.4901 23.1847 15.581 23.1847C14.6435 23.1847 13.8693 22.4247 13.8764 21.4801C13.8693 20.5497 14.6435 19.7898 15.581 19.7898C16.4901 19.7898 17.2784 20.5497 17.2855 21.4801Z" fill="black"/>
</g>
<defs>
<clipPath id="clip0">
<rect width="32" height="32" fill="white"/>
</clipPath>
</defs>
</svg>
