<svg width="32" height="32" viewBox="0 0 32 32" fill="none" xmlns="http://www.w3.org/2000/svg">
<g clip-path="url(#clip0)">
<path fill-rule="evenodd" clip-rule="evenodd" d="M5.48603 0.83952C3.09344 1.21715 1.21743 3.09314 0.846627 5.48679C-0.278293 12.7486 -0.282195 19.1814 0.834918 26.4374C1.20933 28.8693 3.13588 30.7579 5.56865 31.1266C13.2517 32.2911 18.7483 32.2911 26.4314 31.1266C28.8641 30.7579 30.791 28.869 31.1724 26.4382C32.2892 19.3197 32.2757 13.3648 31.1319 5.64617C30.7655 3.17416 28.8258 1.23446 26.3538 0.868127C18.6078 -0.27976 12.6381 -0.289296 5.48603 0.83952ZM13.777 23H10.7017V8.45455H16.4403C19.7429 8.45455 21.6534 10.3153 21.6534 13.206C21.6534 15.1946 20.7372 16.6364 19.0824 17.3466L22.1719 23H18.777L16.0213 17.8438H13.777V23ZM13.777 10.9688V15.3722H15.8651C17.6264 15.3722 18.4858 14.6477 18.4858 13.206C18.4858 11.7571 17.6264 10.9688 15.8509 10.9688H13.777Z" fill="black"/>
</g>
<defs>
<clipPath id="clip0">
<rect width="32" height="32" fill="white"/>
</clipPath>
</defs>
</svg>
