<svg width="32" height="32" viewBox="0 0 32 32" fill="none" xmlns="http://www.w3.org/2000/svg">
<g clip-path="url(#clip0)">
<path fill-rule="evenodd" clip-rule="evenodd" d="M5.48603 0.83952C3.09344 1.21715 1.21743 3.09314 0.846627 5.48679C-0.278293 12.7486 -0.282195 19.1814 0.834918 26.4374C1.20933 28.8693 3.13588 30.7579 5.56865 31.1266C13.2517 32.2911 18.7483 32.2911 26.4314 31.1266C28.8641 30.7579 30.791 28.869 31.1724 26.4382C32.2892 19.3197 32.2757 13.3648 31.1319 5.64617C30.7655 3.17416 28.8258 1.23446 26.3538 0.868127C18.6078 -0.27976 12.6381 -0.289296 5.48603 0.83952ZM14.9879 21.0114H17.4879L17.4098 21.7926C17.2212 23.6442 16.4345 25.6263 16.0844 26.5084L16.0675 26.5511H14.1072C14.1293 26.4621 14.1554 26.3599 14.1844 26.246C14.4265 25.2962 14.8763 23.5317 14.9524 21.8068L14.9879 21.0114ZM17.9283 13.8452C17.9212 14.7898 17.1328 15.5497 16.2237 15.5497C15.2862 15.5497 14.5121 14.7898 14.5192 13.8452C14.5121 12.9148 15.2862 12.1548 16.2237 12.1548C17.1328 12.1548 17.9212 12.9148 17.9283 13.8452Z" fill="black"/>
</g>
<defs>
<clipPath id="clip0">
<rect width="32" height="32" fill="white"/>
</clipPath>
</defs>
</svg>
