<svg width="32" height="32" viewBox="0 0 32 32" fill="none" xmlns="http://www.w3.org/2000/svg">
<g clip-path="url(#clip0)">
<path fill-rule="evenodd" clip-rule="evenodd" d="M5.48603 0.83952C3.09344 1.21715 1.21743 3.09314 0.846627 5.48679C-0.278293 12.7486 -0.282195 19.1814 0.834918 26.4374C1.20933 28.8693 3.13588 30.7579 5.56865 31.1266C13.2517 32.2911 18.7483 32.2911 26.4314 31.1266C28.8641 30.7579 30.791 28.869 31.1724 26.4382C32.2892 19.3197 32.2757 13.3648 31.1319 5.64617C30.7655 3.17416 28.8258 1.23446 26.3538 0.868127C18.6078 -0.27976 12.6381 -0.289296 5.48603 0.83952ZM10.4203 14.8189H8.94656C8.88974 14.2472 8.43874 13.9134 7.70366 13.9134C6.95082 13.9134 6.53533 14.2578 6.53533 14.7266C6.52468 15.2486 7.0538 15.483 7.6859 15.6286L8.33931 15.7848C9.60352 16.0689 10.5162 16.7116 10.5197 17.9226C10.5162 19.2543 9.47212 20.103 7.69656 20.103C5.93164 20.103 4.80593 19.2898 4.76687 17.7166H6.25479C6.30451 18.4446 6.87979 18.8139 7.6788 18.8139C8.46005 18.8139 8.96431 18.4517 8.96786 17.919C8.96431 17.429 8.52397 17.2017 7.73207 17.0099L6.94016 16.8111C5.71147 16.5163 4.95508 15.902 4.95863 14.8295C4.95153 13.5085 6.11985 12.6278 7.71431 12.6278C9.33363 12.6278 10.399 13.5227 10.4203 14.8189ZM14.0895 15.7315C13.4716 15.7315 13.0419 16.1435 13.0384 16.8466V20H11.5256V12.7273H12.9957V15.5078H13.0597C13.3082 14.8651 13.8622 14.4744 14.6896 14.4744C15.826 14.4744 16.5788 15.2486 16.5753 16.527V20H15.0625V16.7969C15.0661 16.1257 14.7038 15.7315 14.0895 15.7315ZM19.2786 20H17.7658V14.5455H19.2786V20ZM19.3461 13.0753C19.3461 13.4979 18.9767 13.8423 18.5257 13.8423C18.0783 13.8423 17.709 13.4979 17.709 13.0753C17.709 12.6562 18.0783 12.3118 18.5257 12.3118C18.9767 12.3118 19.3461 12.6562 19.3461 13.0753ZM22.3406 14.5455H23.4237V15.6818H22.3406V20H20.8278V15.6818H20.0572V14.5455H20.8278V14.1513C20.8278 12.9652 21.5913 12.3864 22.6175 12.3864C23.0827 12.3864 23.4982 12.4787 23.6864 12.5355L23.4201 13.6719C23.2994 13.6328 23.1147 13.5938 22.9336 13.5938C22.4897 13.5938 22.3406 13.8104 22.3406 14.1797V14.5455ZM26.2228 14.5455H27.2491V15.6818H26.2228V18.3239C26.2228 18.7429 26.4324 18.8565 26.7342 18.8565C26.8589 18.8565 26.9973 18.8292 27.0797 18.8129C27.0911 18.8106 27.1015 18.8086 27.1106 18.8068L27.3485 19.9325C27.1958 19.9822 26.9189 20.0604 26.5282 20.0746C25.4309 20.1207 24.7029 19.5916 24.7101 18.5227V15.6818H23.9643V14.5455H24.7101V13.2386H26.2228V14.5455Z" fill="black"/>
</g>
<defs>
<clipPath id="clip0">
<rect width="32" height="32" fill="white"/>
</clipPath>
</defs>
</svg>
