<svg width="32" height="32" viewBox="0 0 32 32" fill="none" xmlns="http://www.w3.org/2000/svg">
<path fill-rule="evenodd" clip-rule="evenodd" d="M4 8C1.79086 8 0 9.79086 0 12V20C0 22.2091 1.79086 24 4 24H28C30.2091 24 32 22.2091 32 20V12C32 9.79086 30.2091 8 28 8H4ZM8.62997 14.8551H7.45099C7.40554 14.3977 7.04474 14.1307 6.45668 14.1307C5.8544 14.1307 5.52202 14.4062 5.52202 14.7812C5.51349 15.1989 5.93679 15.3864 6.44247 15.5028L6.9652 15.6278C7.97656 15.8551 8.70668 16.3693 8.70952 17.3381C8.70668 18.4034 7.87145 19.0824 6.45099 19.0824C5.03906 19.0824 4.13849 18.4318 4.10724 17.1733H5.29759C5.33736 17.7557 5.79759 18.0511 6.43679 18.0511C7.06179 18.0511 7.4652 17.7614 7.46804 17.3352C7.4652 16.9432 7.11293 16.7614 6.4794 16.608L5.84588 16.4489C4.86293 16.2131 4.25781 15.7216 4.26065 14.8636C4.25497 13.8068 5.18963 13.1023 6.4652 13.1023C7.76065 13.1023 8.61293 13.8182 8.62997 14.8551ZM10.7244 20.6364H9.5142V14.6364H10.7074V15.3693H10.7614C10.9233 15.0142 11.2727 14.5795 12.0028 14.5795C12.9602 14.5795 13.7699 15.3239 13.7699 16.8239C13.7699 18.2841 12.9943 19.071 12 19.071C11.2955 19.071 10.929 18.6648 10.7614 18.3011H10.7244V20.6364ZM11.6165 15.5426C11.0284 15.5426 10.6989 16.0398 10.6989 16.8182C10.6989 17.5966 11.0341 18.108 11.6165 18.108C12.2102 18.108 12.5341 17.5795 12.5341 16.8182C12.5341 16.0625 12.2159 15.5426 11.6165 15.5426ZM17.0966 18.3949C16.8835 18.8011 16.4659 19.0824 15.821 19.0824C14.9886 19.0824 14.3722 18.6449 14.3722 17.7812C14.3722 16.8068 15.1477 16.517 16.0114 16.4375C16.7699 16.3636 17.0682 16.3267 17.0682 16.0455V16.0284C17.0682 15.6705 16.8324 15.4631 16.4205 15.4631C15.9858 15.4631 15.7273 15.6761 15.6449 15.9659L14.5256 15.875C14.6932 15.0795 15.3807 14.5795 16.4261 14.5795C17.3977 14.5795 18.2784 15.017 18.2784 16.0568V19H17.1307V18.3949H17.0966ZM15.5284 17.7415C15.5284 18.0739 15.7955 18.2472 16.1676 18.2472C16.6989 18.2472 17.0767 17.8977 17.0767 17.4403V16.9773C16.9318 17.0739 16.5 17.1364 16.2358 17.1733C15.8097 17.233 15.5284 17.4006 15.5284 17.7415ZM23.1378 17.4006C23.081 18.4034 22.3509 19.0852 21.1889 19.0852C19.8452 19.0852 19.0412 18.1619 19.0412 16.8352C19.0412 15.4972 19.8594 14.5795 21.1832 14.5795C22.3224 14.5795 23.0866 15.2415 23.1378 16.25H21.9957C21.9304 15.8153 21.6463 15.5227 21.2031 15.5227C20.6406 15.5227 20.2713 15.9943 20.2713 16.8182C20.2713 17.6534 20.6378 18.1278 21.2031 18.1278C21.6179 18.1278 21.9247 17.8665 21.9957 17.4006H23.1378ZM27.8786 17.75C27.7081 18.5597 26.9808 19.0852 25.9013 19.0852C24.5575 19.0852 23.7365 18.2216 23.7365 16.8381C23.7365 15.4915 24.5689 14.5795 25.853 14.5795C27.0064 14.5795 27.9041 15.3125 27.9041 16.7955V17.1278H24.9325V17.1307C24.9325 17.7812 25.3161 18.1818 25.9212 18.1818C26.3246 18.1818 26.6371 18.0085 26.7592 17.6761L27.8786 17.75ZM25.8729 15.483C25.3359 15.483 24.9581 15.8807 24.9325 16.3778H26.7649C26.7621 15.858 26.3984 15.483 25.8729 15.483Z" fill="black"/>
</svg>
