<svg width="32" height="32" viewBox="0 0 32 32" fill="none" xmlns="http://www.w3.org/2000/svg">
<g clip-path="url(#clip0)">
<path fill-rule="evenodd" clip-rule="evenodd" d="M5.45034 4.63387C3.07686 4.91561 1.11066 6.64967 0.672851 8.99937C-0.220765 13.7954 -0.22427 18.1514 0.662337 22.944C1.10242 25.3229 3.10828 27.0643 5.51198 27.3385C13.2436 28.2205 18.7564 28.2205 26.488 27.3385C28.8917 27.0643 30.8992 25.3234 31.3482 22.9461C32.2305 18.2739 32.2171 14.1965 31.308 9.16523C30.869 6.73551 28.8433 4.92843 26.3894 4.65506C18.6132 3.78877 12.6292 3.78171 5.45034 4.63387ZM8.24059 12.794H5.56871V11.2727H12.7363V12.794H10.0644V20H8.24059V12.794ZM16.7718 19.0923C16.4522 19.7017 15.8258 20.1236 14.8585 20.1236C13.6099 20.1236 12.6852 19.4673 12.6852 18.1719C12.6852 16.7102 13.8485 16.2756 15.144 16.1563C16.2818 16.0455 16.7292 15.9901 16.7292 15.5682V15.5426C16.7292 15.0057 16.3755 14.6946 15.7576 14.6946C15.1056 14.6946 14.7179 15.0142 14.5943 15.4489L12.9153 15.3125C13.1667 14.1193 14.198 13.3693 15.7662 13.3693C17.2235 13.3693 18.5446 14.0256 18.5446 15.5852V20H16.823V19.0923H16.7718ZM14.4196 18.1122C14.4196 18.6108 14.8201 18.8707 15.3784 18.8707C16.1752 18.8707 16.742 18.3466 16.742 17.6605V16.9659C16.5247 17.1108 15.8769 17.2046 15.4806 17.26C14.8414 17.3494 14.4196 17.6009 14.4196 18.1122ZM21.7768 20H19.987V11.2727H21.8024V14.554H21.8578C22.1007 14.0213 22.6248 13.3693 23.72 13.3693C25.1561 13.3693 26.3706 14.4858 26.3706 16.7358C26.3706 18.9261 25.2072 20.1065 23.7157 20.1065C22.6589 20.1065 22.1092 19.4972 21.8578 18.9517H21.7768V20ZM23.1404 14.8139C22.2583 14.8139 21.764 15.5597 21.764 16.7273C21.764 17.8949 22.2669 18.6619 23.1404 18.6619C24.0311 18.6619 24.5169 17.8693 24.5169 16.7273C24.5169 15.5938 24.0396 14.8139 23.1404 14.8139Z" fill="black"/>
</g>
<defs>
<clipPath id="clip0">
<rect width="32" height="32" fill="white"/>
</clipPath>
</defs>
</svg>
