<svg width="32" height="32" viewBox="0 0 32 32" fill="none" xmlns="http://www.w3.org/2000/svg">
<g clip-path="url(#clip0)">
<path fill-rule="evenodd" clip-rule="evenodd" d="M5.48603 0.83952C3.09344 1.21715 1.21743 3.09314 0.846627 5.48679C-0.278293 12.7486 -0.282195 19.1814 0.834918 26.4374C1.20933 28.8693 3.13588 30.7579 5.56865 31.1266C13.2517 32.2911 18.7483 32.2911 26.4314 31.1266C28.8641 30.7579 30.791 28.869 31.1724 26.4382C32.2892 19.3197 32.2757 13.3648 31.1319 5.64617C30.7655 3.17416 28.8258 1.23446 26.3538 0.868127C18.6078 -0.27976 12.6381 -0.289296 5.48603 0.83952ZM13.0526 19.0724H10.7301C10.6449 16.3807 11.8736 14.9034 13.7983 14.9034C14.6932 14.9034 15.4247 15.223 16.4616 16.1392C17.0085 16.6151 17.3139 16.8778 17.8111 16.8778C18.4787 16.8778 18.9759 16.3736 18.9474 15.2301H21.2628C21.3622 17.9219 20.0767 19.4062 18.1946 19.4062C17.2571 19.4062 16.5114 19.0369 15.517 18.1634C14.9276 17.6449 14.6719 17.4247 14.1889 17.4247C13.5213 17.4247 13.0241 17.8935 13.0526 19.0724Z" fill="black"/>
</g>
<defs>
<clipPath id="clip0">
<rect width="32" height="32" fill="white"/>
</clipPath>
</defs>
</svg>
