<svg width="32" height="32" viewBox="0 0 32 32" fill="none" xmlns="http://www.w3.org/2000/svg">
<path fill-rule="evenodd" clip-rule="evenodd" d="M9.96968 3.4427L12.5 7L12.5436 6.98548C12.198 7.57709 12 8.26542 12 9V13C12 13.7423 12.2022 14.4373 12.5545 15.0331C11.9412 15.1247 11.3508 15.4065 10.8787 15.8787C9.70711 17.0503 9.70711 18.9497 10.8787 20.1213L13.8787 23.1213C15.0503 24.2929 16.9497 24.2929 18.1213 23.1213L21.1213 20.1213C22.2929 18.9497 22.2929 17.0503 21.1213 15.8787C20.6492 15.4065 20.0588 15.1247 19.4455 15.0331C19.7978 14.4373 20 13.7423 20 13V9C20 8.26542 19.802 7.57709 19.4564 6.98548L19.5 7L22.0303 3.44269C22.332 3.01855 22.9137 2.89135 23.325 3.21037C25.0311 4.53379 26.1315 6.57277 26.2123 8.84618L26.6091 20.0069C26.8227 26.014 22.0109 31 16 31C9.98914 31 5.17728 26.014 5.39086 20.0069L5.78769 8.84618C5.86852 6.57278 6.96894 4.53379 8.67498 3.21038C9.08624 2.89135 9.66799 3.01856 9.96968 3.4427ZM14 9C14 7.89543 14.8954 7 16 7C17.1046 7 18 7.89543 18 9V13C18 14.1046 17.1046 15 16 15C14.8954 15 14 14.1046 14 13V9Z" fill="black"/>
<path d="M13 18L16 21L19 18" stroke="black" stroke-width="2" stroke-linecap="round" stroke-linejoin="round"/>
<path d="M13 4L16 1L19 4" stroke="black" stroke-width="2" stroke-linecap="round" stroke-linejoin="round"/>
</svg>
