<svg width="32" height="32" viewBox="0 0 32 32" fill="none" xmlns="http://www.w3.org/2000/svg">
<path fill-rule="evenodd" clip-rule="evenodd" d="M5.78769 8.84618C5.9118 5.35556 8.43961 2.41757 11.8726 1.77389C14.6004 1.26242 17.3996 1.26242 20.1274 1.77389C23.5604 2.41757 26.0882 5.35555 26.2123 8.84618L26.3275 12.0848L24.788 10.5453C23.6164 9.37377 21.7169 9.37377 20.5453 10.5453C19.8023 11.2883 19.5305 12.3241 19.73 13.2813C18.708 13.7596 18 14.7971 18 16C18 17.2029 18.708 18.2404 19.73 18.7187C19.5306 19.6759 19.8023 20.7117 20.5453 21.4547C21.7169 22.6262 23.6164 22.6262 24.788 21.4547L26.5963 19.6463L26.6091 20.0069C26.8227 26.014 22.0109 31 16 31C9.98914 31 5.17728 26.014 5.39086 20.0069L5.78769 8.84618Z" fill="black"/>
<path d="M21 16H26" stroke="black" stroke-width="2" stroke-linecap="round"/>
<path d="M22.6667 12.6667L26 16L22.6667 19.3333" stroke="black" stroke-width="2" stroke-linecap="round" stroke-linejoin="round"/>
</svg>
