<svg width="32" height="32" viewBox="0 0 32 32" fill="none" xmlns="http://www.w3.org/2000/svg">
<path fill-rule="evenodd" clip-rule="evenodd" d="M11.8726 1.77389C8.43961 2.41757 5.9118 5.35556 5.78769 8.84618L5.67254 12.0848L7.21201 10.5453C7.88804 9.86932 8.80643 9.58338 9.68748 9.68752C9.58333 8.80645 9.86927 7.88805 10.5453 7.21201L13.8786 3.87868C15.0502 2.70711 16.9497 2.70711 18.1213 3.87868L21.4546 7.21201C22.1306 7.88805 22.4166 8.80646 22.3124 9.68752C23.1935 9.58336 24.1119 9.8693 24.788 10.5453L26.3275 12.0848L26.2123 8.84618C26.0882 5.35555 23.5604 2.41757 20.1274 1.77389C17.3996 1.26242 14.6004 1.26242 11.8726 1.77389ZM26.5963 19.6463L24.788 21.4547C24.1119 22.1307 23.1935 22.4166 22.3124 22.3125C22.4166 23.1935 22.1307 24.1119 21.4546 24.788L18.1307 28.1119C18.1004 28.1425 18.0694 28.1724 18.0379 28.2016C17.5038 28.6962 16.7895 28.9988 16.0045 29L16 29L15.9861 29C15.5909 28.9982 15.2137 28.92 14.8685 28.7793C14.5083 28.6329 14.1709 28.4135 13.8786 28.1213L10.5453 24.788C9.86927 24.112 9.58333 23.1935 9.68748 22.3125C8.80643 22.4166 7.88804 22.1307 7.21201 21.4547L5.40369 19.6463L5.39086 20.0069C5.17728 26.014 9.98914 31 16 31C22.0109 31 26.8227 26.014 26.6091 20.0069L26.5963 19.6463Z" fill="black"/>
<path d="M16 21V26" stroke="black" stroke-width="2" stroke-linecap="round"/>
<path d="M12.6666 22.6667L16 26L19.3333 22.6667" stroke="black" stroke-width="2" stroke-linecap="round" stroke-linejoin="round"/>
<path d="M6 16H11" stroke="black" stroke-width="2" stroke-linecap="round"/>
<path d="M9.33333 12.6667L6 16L9.33333 19.3333" stroke="black" stroke-width="2" stroke-linecap="round" stroke-linejoin="round"/>
<path d="M21 16H26" stroke="black" stroke-width="2" stroke-linecap="round"/>
<path d="M22.6667 12.6667L26 16L22.6667 19.3333" stroke="black" stroke-width="2" stroke-linecap="round" stroke-linejoin="round"/>
<path d="M16 7V12" stroke="black" stroke-width="2" stroke-linecap="round"/>
<path d="M12.6666 9.33333L16 6L19.3333 9.33333" stroke="black" stroke-width="2" stroke-linecap="round" stroke-linejoin="round"/>
</svg>
