<svg width="32" height="32" viewBox="0 0 32 32" fill="none" xmlns="http://www.w3.org/2000/svg">
<path fill-rule="evenodd" clip-rule="evenodd" d="M11.8726 1.77389C8.43961 2.41757 5.9118 5.35556 5.78769 8.84618L5.39086 20.0069C5.17728 26.014 9.98914 31 16 31C22.0109 31 26.8227 26.014 26.6091 20.0069L26.2123 8.84618C26.0882 5.35555 23.5604 2.41757 20.1274 1.77389C17.3996 1.26242 14.6004 1.26242 11.8726 1.77389ZM16 20C16.5523 20 17 20.4477 17 21V23.5857L18.6262 21.9596C19.0167 21.569 19.6499 21.569 20.0404 21.9596C20.4309 22.3501 20.4309 22.9833 20.0404 23.3738L16.7125 26.7017C16.694 26.7204 16.6748 26.7385 16.6549 26.7557C16.5775 26.8229 16.4923 26.8763 16.4024 26.9158C16.2793 26.9699 16.1431 27 16 27C15.8709 27 15.7475 26.9755 15.6341 26.931C15.5098 26.8822 15.3933 26.8076 15.2929 26.7071L11.9595 23.3738C11.569 22.9833 11.569 22.3501 11.9595 21.9596C12.35 21.569 12.9832 21.569 13.3737 21.9596L15 23.5858V21C15 20.4477 15.4477 20 16 20Z" fill="black"/>
</svg>
