<svg width="32" height="32" viewBox="0 0 32 32" fill="none" xmlns="http://www.w3.org/2000/svg">
<path fill-rule="evenodd" clip-rule="evenodd" d="M11.8726 1.77388C8.43961 2.41757 5.9118 5.35555 5.78769 8.84618L5.39086 20.0069C5.17728 26.014 9.98914 31 16 31C22.0109 31 26.8227 26.014 26.6091 20.0069L26.2123 8.84618C26.0882 5.35555 23.5604 2.41757 20.1274 1.77388C17.3996 1.26242 14.6004 1.26242 11.8726 1.77388ZM13.259 3C10.0304 3 7.38059 5.55497 7.26302 8.78152L7 16H16V4C16 3.44772 15.5523 3 15 3H13.259Z" fill="black"/>
<rect x="13" y="6" width="6" height="10" rx="3" fill="black"/>
</svg>
