# ProBuilder 4.5.2
# https://unity3d.com/unity/features/worldbuilding/probuilder
# 10/23/2021 6:28:07 PM

mtllib ./MetalUnit_1_PT-V1.mtl
o MetalUnit_1_PT-V1

g MetalUnit_1_PT
v 0 0 0
v -4 0 0
v 0 1.501459 1.490116E-08
v -4 1.501459 1.490116E-08
v -4 0 -2
v -4 1.501459 -2
v 0 0 -2
v 0 1.501459 -2

vt 0 0
vt -4 0
vt 0 1.501459
vt -4 1.501459
vt -2 0
vt -2 1.501459
vt 4 0
vt 4 1.501459
vt 2 0
vt 2 1.501459
vt 0 -2
vt 4 -2
vt -4 -2

vn 0 -9.924455E-09 1
vn -1 0 0
vn 0 0 -1
vn 1 0 0
vn 0 1 0
vn 0 -1 0

usemtl DevPlain_1m-512_Mat
f 3/3/1 4/4/1 2/2/1 1/1/1
f 4/3/2 6/6/2 5/5/2 2/1/2
f 6/8/3 8/3/3 7/1/3 5/7/3
f 8/10/4 3/3/4 1/1/4 7/9/4
f 8/11/5 6/12/5 4/7/5 3/1/5
f 1/1/6 2/2/6 5/13/6 7/11/6

