# ProBuilder 4.5.2
# https://unity3d.com/unity/features/worldbuilding/probuilder
# 10/23/2021 6:42:19 PM

mtllib ./MetalUnit_3_PT-V1.mtl
o MetalUnit_3_PT-V1

g MetalUnit_3_PT-V1
v 0 0 -0.4937435
v -5 0 -0.4937435
v 0 3.5 0.2606671
v -5 3.5 0.2606671
v -5 0 -2.506257
v -5 3.5 -3.260667
v 0 0 -2.506257
v 0 3.5 -3.260667

vt 0 -0.1040351
vt -5 -0.1040351
vt 0 3.476347
vt -5 3.476347
vt -0.4937435 0
vt -2.506257 0
vt 0.2606671 3.5
vt -3.260667 3.5
vt 5 0.5280853
vt 0 0.5280853
vt 5 4.108467
vt 0 4.108467
vt 2.506257 0
vt 0.4937435 0
vt 3.260667 3.5
vt -0.2606671 3.5
vt 0 0.2606671
vt 5 0.2606671
vt 0 -3.260667
vt 5 -3.260667
vt 0 -2.506257
vt -5 -2.506257
vt 0 -0.4937435
vt -5 -0.4937435

vn 0 -0.2107068 0.9775493
vn -1 0 0
vn 0 -0.2107068 -0.9775493
vn 1 0 0
vn 0 1 0
vn 0 -1 0

usemtl DevPlain_1m-512_Mat
f 3/3/1 4/4/1 2/2/1 1/1/1
f 4/7/2 6/8/2 5/6/2 2/5/2
f 6/11/3 8/12/3 7/10/3 5/9/3
f 8/15/4 3/16/4 1/14/4 7/13/4
f 8/19/5 6/20/5 4/18/5 3/17/5
f 1/23/6 2/24/6 5/22/6 7/21/6

