# ProBuilder 4.5.2
# https://unity3d.com/unity/features/worldbuilding/probuilder
# 10/24/2021 1:06:36 AM

mtllib ./Billboard_1_PT-V1.mtl
o Billboard_1_PT-V1

g Billboard
v 6 6 0.75
v -6 6 0.75
v 6 12.75 0.75
v -6 12.75 0.75
v -6 6 -0.75
v -6 12.75 -0.75
v 6 6 -0.75
v 6 12.75 -0.75

vt 0 0
vt -12 0
vt 0 6.75
vt -12 6.75
vt -1 0
vt -1 6.75
vt 12 0
vt 12 6.75
vt 1 0
vt 1 6.75
vt 0 -1
vt 12 -1
vt -12 -1

vn 0 0 1
vn -1 0 0
vn 0 0 -1
vn 1 0 0
vn 0 1 0
vn 0 -1 0

usemtl DevPlain_1m-512_Mat
f 3/3/1 4/4/1 2/2/1 1/1/1
f 4/3/2 6/6/2 5/5/2 2/1/2
f 6/8/3 8/3/3 7/1/3 5/7/3
f 8/10/4 3/3/4 1/1/4 7/9/4
f 8/11/5 6/12/5 4/7/5 3/1/5
f 1/1/6 2/2/6 5/13/6 7/11/6

g Pillar
v -0.5 1 0
v -0.5 6 0
v -0.4755283 1 0.1545085
v -0.4755283 6 0.1545085
v -0.4045085 1 0.2938926
v -0.4045085 6 0.2938926
v -0.2938927 1 0.4045085
v -0.2938927 6 0.4045085
v -0.1545085 1 0.4755283
v -0.1545085 6 0.4755283
v 0 1 0.5
v 0 6 0.5
v 0.1545085 1 0.4755283
v 0.1545085 6 0.4755283
v 0.2938926 1 0.4045085
v 0.2938926 6 0.4045085
v 0.4045085 1 0.2938926
v 0.4045085 6 0.2938926
v 0.4755282 1 0.1545085
v 0.4755282 6 0.1545085
v 0.5 1 -4.371139E-08
v 0.5 6 -4.371139E-08
v 0.4755282 1 -0.1545085
v 0.4755282 6 -0.1545085
v 0.4045085 1 -0.2938926
v 0.4045085 6 -0.2938926
v 0.2938927 1 -0.4045084
v 0.2938927 6 -0.4045084
v 0.1545085 1 -0.4755282
v 0.1545085 6 -0.4755282
v 0 1 -0.5
v 0 6 -0.5
v -0.1545086 1 -0.4755282
v -0.1545086 6 -0.4755282
v -0.2938925 1 -0.4045086
v -0.2938925 6 -0.4045086
v -0.4045085 1 -0.2938927
v -0.4045085 6 -0.2938927
v -0.4755283 1 -0.1545085
v -0.4755283 6 -0.1545085
v 0 1 0
v 0 6 0

vt 0 -4
vt 0 1
vt 0.1564345 -4
vt 0.1564345 1
vt 0 0.8454915
vt 0.5 0.8454915
vt 0.02447173 1
vt 0.4755283 1
vt 0 0.8606158
vt 0.4755283 0.7061074
vt 0.07101977 1
vt 0.4755283 0.8606158
vt 0 0.7061074
vt 0.4045085 1
vt 0 0.8893842
vt 0.4045085 0.5954915
vt 0.1106158 1
vt 0.4045085 0.8893842
vt 0 0.5954915
vt 0.2938927 1
vt 0 0.9289802
vt 0.2938927 0.5244718
vt 0.1393842 1
vt 0.2938927 0.9289802
vt 0 0.5244718
vt 0.1545085 1
vt 0 0.9755282
vt 0.1545085 0.5
vt 0.1545085 0.9755282
vt 0 0.5
vt 0.5 0.9999999
vt 0.4755282 0.8454915
vt 0 0.9999999
vt 0.5 1
vt 0.02447176 0.8454915
vt 0.4045085 0.7061074
vt 0.07101971 0.7061074
vt 0.2938927 0.5954916
vt 0.1106158 0.5954916
vt 0.1545085 0.5244718
vt 0.1393842 0.5244718

vn -1 0 -1.508691E-08
vn -0.9510565 0 0.309017
vn -0.809017 0 0.5877852
vn -0.5877852 0 0.809017
vn -0.3090169 0 0.9510565
vn 0 0 1
vn 0.309017 0 0.9510565
vn 0.5877852 0 0.809017
vn 0.809017 0 0.5877852
vn 0.9510565 0 0.3090169
vn 1 0 -6.034762E-08
vn 0.9510565 0 -0.309017
vn 0.8090171 0 -0.5877851
vn 0.5877854 0 -0.8090169
vn 0.3090171 0 -0.9510565
vn 2.263036E-08 0 -1
vn -0.309017 0 -0.9510565
vn -0.5877852 0 -0.8090171
vn -0.8090169 0 -0.5877854
vn -0.9510565 0 -0.309017
vn 0 -1 0
vn 0 1 0

usemtl DevPlain_1m-512_Mat
f 9/18/27 49/19/27 11/20/27
f 11/22/27 49/23/27 13/24/27
f 13/28/27 49/29/27 15/30/27
f 15/34/27 49/35/27 17/36/27
f 17/40/27 49/41/27 19/39/27
f 19/15/27 49/43/27 21/42/27
f 21/39/27 49/38/27 23/37/27
f 23/33/27 49/32/27 25/31/27
f 25/27/27 49/26/27 27/25/27
f 27/21/27 49/18/27 29/19/27
f 29/44/27 49/15/27 31/45/27
f 31/45/27 49/15/27 33/49/27
f 33/49/27 49/15/27 35/51/27
f 35/51/27 49/15/27 37/53/27
f 37/53/27 49/15/27 39/43/27
f 39/41/27 49/39/27 41/38/27
f 41/54/27 49/33/27 43/32/27
f 43/52/27 49/27/27 45/26/27
f 45/50/27 49/21/27 47/18/27
f 47/48/27 49/47/27 9/15/27
f 12/21/28 50/18/28 10/19/28
f 14/27/28 50/26/28 12/25/28
f 16/33/28 50/32/28 14/31/28
f 18/39/28 50/38/28 16/37/28
f 20/15/28 50/43/28 18/42/28
f 22/40/28 50/41/28 20/39/28
f 24/34/28 50/35/28 22/36/28
f 26/28/28 50/29/28 24/30/28
f 28/22/28 50/23/28 26/24/28
f 30/18/28 50/19/28 28/20/28
f 32/48/28 50/47/28 30/46/28
f 34/50/28 50/21/28 32/18/28
f 36/52/28 50/27/28 34/26/28
f 38/54/28 50/33/28 36/32/28
f 40/41/28 50/39/28 38/38/28
f 42/53/28 50/15/28 40/43/28
f 44/51/28 50/15/28 42/53/28
f 46/49/28 50/15/28 44/51/28
f 48/45/28 50/15/28 46/49/28
f 10/47/28 50/15/28 48/45/28
f 12/17/8 10/15/7 9/14/7
f 9/14/7 11/16/8 12/17/8
f 14/17/9 12/15/8 11/14/8
f 11/14/8 13/16/9 14/17/9
f 16/17/10 14/15/9 13/14/9
f 13/14/9 15/16/10 16/17/10
f 18/17/11 16/15/10 15/14/10
f 15/14/10 17/16/11 18/17/11
f 20/17/12 18/15/11 17/14/11
f 17/14/11 19/16/12 20/17/12
f 22/17/13 20/15/12 19/14/12
f 19/14/12 21/16/13 22/17/13
f 24/17/14 22/15/13 21/14/13
f 21/14/13 23/16/14 24/17/14
f 26/17/15 24/15/14 23/14/14
f 23/14/14 25/16/15 26/17/15
f 28/17/16 26/15/15 25/14/15
f 25/14/15 27/16/16 28/17/16
f 30/17/17 28/15/16 27/14/16
f 27/14/16 29/16/17 30/17/17
f 32/17/18 30/15/17 29/14/17
f 29/14/17 31/16/18 32/17/18
f 34/17/19 32/15/18 31/14/18
f 31/14/18 33/16/19 34/17/19
f 36/17/20 34/15/19 33/14/19
f 33/14/19 35/16/20 36/17/20
f 38/17/21 36/15/20 35/14/20
f 35/14/20 37/16/21 38/17/21
f 40/17/22 38/15/21 37/14/21
f 37/14/21 39/16/22 40/17/22
f 42/17/23 40/15/22 39/14/22
f 39/14/22 41/16/23 42/17/23
f 44/17/24 42/15/23 41/14/23
f 41/14/23 43/16/24 44/17/24
f 46/17/25 44/15/24 43/14/24
f 43/14/24 45/16/25 46/17/25
f 48/17/26 46/15/25 45/14/25
f 45/14/25 47/16/26 48/17/26
f 10/17/7 48/15/26 47/14/26
f 47/14/26 9/16/7 10/17/7

g Foundation
v -0.75 0 0
v -0.75 1 0
v -0.7132924 0 0.2317628
v -0.7132924 1 0.2317628
v -0.6067628 0 0.4408389
v -0.6067628 1 0.4408389
v -0.440839 0 0.6067628
v -0.440839 1 0.6067628
v -0.2317628 0 0.7132924
v -0.2317628 1 0.7132924
v 5.960464E-08 0 0.75
v 5.960464E-08 1 0.75
v 0.2317627 0 0.7132924
v 0.2317627 1 0.7132924
v 0.4408388 0 0.6067628
v 0.4408388 1 0.6067628
v 0.6067628 0 0.4408389
v 0.6067628 1 0.4408389
v 0.7132924 0 0.2317628
v 0.7132924 1 0.2317628
v 0.75 0 -6.556708E-08
v 0.75 1 -6.556708E-08
v 0.7132924 0 -0.2317627
v 0.7132924 1 -0.2317627
v 0.6067628 0 -0.4408388
v 0.6067628 1 -0.4408388
v 0.4408391 0 -0.6067626
v 0.4408391 1 -0.6067626
v 0.2317628 0 -0.7132924
v 0.2317628 1 -0.7132924
v 0 0 -0.75
v 0 1 -0.75
v -0.2317628 0 -0.7132924
v -0.2317628 1 -0.7132924
v -0.4408388 0 -0.6067628
v -0.4408388 1 -0.6067628
v -0.6067627 0 -0.440839
v -0.6067627 1 -0.440839
v -0.7132924 0 -0.2317627
v -0.7132924 1 -0.2317627
v 0 0 0
v 0 1 0

vt 0 0
vt 0 1
vt 0.2346517 0
vt 0.2346517 1
vt 0 0.7682372
vt 0.75 0.7682372
vt 0.03670758 1
vt 0.7132924 1
vt 0 0.7909238
vt 0.7132924 0.5591611
vt 0.1065297 1
vt 0.7132924 0.7909238
vt 0 0.5591611
vt 0.6067628 1
vt 0 0.8340762
vt 0.6067628 0.3932372
vt 0.1659238 1
vt 0.6067628 0.8340762
vt 0 0.3932372
vt 0.440839 1
vt 0 0.8934703
vt 0.440839 0.2867076
vt 0.2090762 1
vt 0.440839 0.8934703
vt 0 0.2867076
vt 0.2317628 1
vt 0 0.9632924
vt 0.2317628 0.25
vt 0.2317628 0.9632924
vt 5.960464E-08 0.25
vt 0.75 0.9999999
vt 0.7132924 0.7682372
vt 0 0.9999999
vt 0.75 1
vt 0.03670764 0.7682372
vt 0.6067628 0.5591612
vt 0.1065296 0.5591612
vt 0.4408391 0.3932374
vt 0.1659237 0.3932374
vt 0.2317628 0.2867076
vt 0.2090762 0.2867076

vn -1 0 -1.508691E-08
vn -0.9510565 0 0.3090169
vn -0.8090171 0 0.5877852
vn -0.5877854 0 0.8090169
vn -0.3090169 0 0.9510565
vn 6.034762E-08 0 1
vn 0.3090171 0 0.9510565
vn 0.5877852 0 0.809017
vn 0.8090169 0 0.5877854
vn 0.9510565 0 0.309017
vn 1 0 -4.526072E-08
vn 0.9510565 0 -0.3090171
vn 0.8090171 0 -0.5877851
vn 0.5877855 0 -0.8090168
vn 0.3090171 0 -0.9510564
vn 0 0 -1
vn -0.309017 0 -0.9510565
vn -0.5877851 0 -0.8090171
vn -0.8090169 0 -0.5877854
vn -0.9510565 0 -0.309017
vn 0 -1 0
vn 0 1 0

usemtl DevPlain_1m-512_Mat
f 51/59/49 91/60/49 53/61/49
f 53/63/49 91/64/49 55/65/49
f 55/69/49 91/70/49 57/71/49
f 57/75/49 91/76/49 59/77/49
f 59/81/49 91/82/49 61/80/49
f 61/56/49 91/84/49 63/83/49
f 63/80/49 91/79/49 65/78/49
f 65/74/49 91/73/49 67/72/49
f 67/68/49 91/67/49 69/66/49
f 69/62/49 91/59/49 71/60/49
f 71/85/49 91/56/49 73/86/49
f 73/86/49 91/56/49 75/90/49
f 75/90/49 91/56/49 77/92/49
f 77/92/49 91/56/49 79/94/49
f 79/94/49 91/56/49 81/84/49
f 81/82/49 91/80/49 83/79/49
f 83/95/49 91/74/49 85/73/49
f 85/93/49 91/68/49 87/67/49
f 87/91/49 91/62/49 89/59/49
f 89/89/49 91/88/49 51/56/49
f 54/62/50 92/59/50 52/60/50
f 56/68/50 92/67/50 54/66/50
f 58/74/50 92/73/50 56/72/50
f 60/80/50 92/79/50 58/78/50
f 62/56/50 92/84/50 60/83/50
f 64/81/50 92/82/50 62/80/50
f 66/75/50 92/76/50 64/77/50
f 68/69/50 92/70/50 66/71/50
f 70/63/50 92/64/50 68/65/50
f 72/59/50 92/60/50 70/61/50
f 74/89/50 92/88/50 72/87/50
f 76/91/50 92/62/50 74/59/50
f 78/93/50 92/68/50 76/67/50
f 80/95/50 92/74/50 78/73/50
f 82/82/50 92/80/50 80/79/50
f 84/94/50 92/56/50 82/84/50
f 86/92/50 92/56/50 84/94/50
f 88/90/50 92/56/50 86/92/50
f 90/86/50 92/56/50 88/90/50
f 52/88/50 92/56/50 90/86/50
f 54/58/30 52/56/29 51/55/29
f 51/55/29 53/57/30 54/58/30
f 56/58/31 54/56/30 53/55/30
f 53/55/30 55/57/31 56/58/31
f 58/58/32 56/56/31 55/55/31
f 55/55/31 57/57/32 58/58/32
f 60/58/33 58/56/32 57/55/32
f 57/55/32 59/57/33 60/58/33
f 62/58/34 60/56/33 59/55/33
f 59/55/33 61/57/34 62/58/34
f 64/58/35 62/56/34 61/55/34
f 61/55/34 63/57/35 64/58/35
f 66/58/36 64/56/35 63/55/35
f 63/55/35 65/57/36 66/58/36
f 68/58/37 66/56/36 65/55/36
f 65/55/36 67/57/37 68/58/37
f 70/58/38 68/56/37 67/55/37
f 67/55/37 69/57/38 70/58/38
f 72/58/39 70/56/38 69/55/38
f 69/55/38 71/57/39 72/58/39
f 74/58/40 72/56/39 71/55/39
f 71/55/39 73/57/40 74/58/40
f 76/58/41 74/56/40 73/55/40
f 73/55/40 75/57/41 76/58/41
f 78/58/42 76/56/41 75/55/41
f 75/55/41 77/57/42 78/58/42
f 80/58/43 78/56/42 77/55/42
f 77/55/42 79/57/43 80/58/43
f 82/58/44 80/56/43 79/55/43
f 79/55/43 81/57/44 82/58/44
f 84/58/45 82/56/44 81/55/44
f 81/55/44 83/57/45 84/58/45
f 86/58/46 84/56/45 83/55/45
f 83/55/45 85/57/46 86/58/46
f 88/58/47 86/56/46 85/55/46
f 85/55/46 87/57/47 88/58/47
f 90/58/48 88/56/47 87/55/47
f 87/55/47 89/57/48 90/58/48
f 52/58/29 90/56/48 89/55/48
f 89/55/48 51/57/29 52/58/29

