# ProBuilder 4.5.2
# https://unity3d.com/unity/features/worldbuilding/probuilder
# 10/24/2021 12:06:46 AM

mtllib ./GarbageBin_1_PT-V1.mtl
o GarbageBin_1_PT-V1

g Cube
v 0.377 0 0.37
v -0.373 0 0.37
v 0.377 1.25 0.37
v -0.373 1.25 0.37
v -0.373 0 -0.38
v -0.373 1.25 -0.38
v 0.377 0 -0.38
v 0.377 1.25 -0.38

vt 0 0
vt -0.75 0
vt 0 1.25
vt -0.75 1.25
vt 0.75 0
vt 0.75 1.25
vt 0 -0.75
vt 0.75 -0.75
vt -0.75 -0.75

vn 0 0 1
vn -1 0 0
vn 0 0 -1
vn 1 0 0
vn 0 1 0
vn 0 -1 0

usemtl DevPlain_1m-512_Mat
f 3/3/1 4/4/1 2/2/1 1/1/1
f 4/3/2 6/4/2 5/2/2 2/1/2
f 6/6/3 8/3/3 7/1/3 5/5/3
f 8/6/4 3/3/4 1/1/4 7/5/4
f 8/7/5 6/8/5 4/5/5 3/1/5
f 1/1/6 2/2/6 5/9/6 7/7/6

