<svg width="32" height="32" viewBox="0 0 32 32" fill="none" xmlns="http://www.w3.org/2000/svg">
<g clip-path="url(#clip0)">
<path d="M1.83484 5.63987C2.13889 3.67711 3.67736 2.13736 5.64193 1.82729C12.6858 0.715551 18.5532 0.723067 26.2072 1.85732C28.2434 2.15907 29.8409 3.75656 30.1427 5.79276C31.273 13.4199 31.2843 19.2728 30.1845 26.2832C29.8718 28.2761 28.2899 29.8335 26.2815 30.1379C18.6978 31.2874 13.3022 31.2874 5.71851 30.1379C3.70976 29.8334 2.12987 28.2767 1.82327 26.2852C0.721755 19.1305 0.725567 12.8006 1.83484 5.63987Z" stroke="black" stroke-width="2"/>
<path d="M10.8801 23H21.2495V20.4858H15.1415V20.3864L17.2651 18.3054C20.2551 15.5781 21.0577 14.2145 21.0577 12.5597C21.0577 10.0384 18.998 8.25568 15.8801 8.25568C12.8262 8.25568 10.731 10.081 10.7381 12.9361H13.6571C13.65 11.544 14.5307 10.6918 15.8588 10.6918C17.1373 10.6918 18.089 11.4872 18.089 12.7656C18.089 13.9233 17.3787 14.7188 16.0577 15.9901L10.8801 20.7841V23Z" fill="black"/>
</g>
<defs>
<clipPath id="clip0">
<rect width="32" height="32" fill="white"/>
</clipPath>
</defs>
</svg>
