<svg width="32" height="32" viewBox="0 0 32 32" fill="none" xmlns="http://www.w3.org/2000/svg">
<g clip-path="url(#clip0)">
<path d="M1.83484 5.63987C2.13889 3.67711 3.67736 2.13736 5.64193 1.82729C12.6858 0.715551 18.5532 0.723067 26.2072 1.85732C28.2434 2.15907 29.8409 3.75656 30.1427 5.79276C31.273 13.4199 31.2843 19.2728 30.1845 26.2832C29.8718 28.2761 28.2899 29.8335 26.2815 30.1379C18.6978 31.2874 13.3022 31.2874 5.71851 30.1379C3.70976 29.8334 2.12987 28.2767 1.82327 26.2852C0.721755 19.1305 0.725567 12.8006 1.83484 5.63987Z" stroke="black" stroke-width="2"/>
<path d="M15.9636 23.1989C19.2306 23.1989 21.5673 21.402 21.5602 18.9162C21.5673 17.1051 20.4167 15.8125 18.2789 15.5426V15.429C19.9054 15.1378 21.0275 13.9872 21.0204 12.3537C21.0275 10.0597 19.0176 8.25568 16.0062 8.25568C13.0233 8.25568 10.7789 10.0028 10.7363 12.517H13.6838C13.7193 11.4091 14.7349 10.6918 15.992 10.6918C17.2349 10.6918 18.0659 11.4446 18.0588 12.5384C18.0659 13.6818 17.0929 14.456 15.6937 14.456H14.3372V16.7145H15.6937C17.3414 16.7145 18.3713 17.5384 18.3642 18.7102C18.3713 19.8679 17.377 20.6634 15.9707 20.6634C14.6142 20.6634 13.5985 19.9531 13.5417 18.8878H10.4451C10.4949 21.4304 12.7676 23.1989 15.9636 23.1989Z" fill="black"/>
</g>
<defs>
<clipPath id="clip0">
<rect width="32" height="32" fill="white"/>
</clipPath>
</defs>
</svg>
