<svg width="32" height="32" viewBox="0 0 32 32" fill="none" xmlns="http://www.w3.org/2000/svg">
<g clip-path="url(#clip0)">
<path d="M1.83484 5.63987C2.13889 3.67711 3.67736 2.13736 5.64193 1.82729C12.6858 0.715551 18.5532 0.723067 26.2072 1.85732C28.2434 2.15907 29.8409 3.75656 30.1427 5.79276C31.273 13.4199 31.2843 19.2728 30.1845 26.2832C29.8718 28.2761 28.2899 29.8335 26.2815 30.1379C18.6978 31.2874 13.3022 31.2874 5.71851 30.1379C3.70976 29.8334 2.12987 28.2767 1.82327 26.2852C0.721755 19.1305 0.725567 12.8006 1.83484 5.63987Z" stroke="black" stroke-width="2"/>
<path d="M16.0462 23.1989C19.2848 23.1989 21.4865 21.0895 21.4794 18.1491C21.4865 15.3651 19.5405 13.3622 16.9197 13.3622C15.6413 13.3622 14.5405 13.8949 14.0291 14.6122H13.9439L14.3203 10.9688H20.6768V8.45455H11.7848L11.0959 16.125L13.8303 16.6151C14.2777 16.0114 15.1442 15.6349 16.0036 15.6349C17.4666 15.642 18.5178 16.7003 18.5178 18.2273C18.5178 19.7401 17.4879 20.7841 16.0462 20.7841C14.8246 20.7841 13.8374 20.017 13.7663 18.8878H10.7834C10.8402 21.402 13.0348 23.1989 16.0462 23.1989Z" fill="black"/>
</g>
<defs>
<clipPath id="clip0">
<rect width="32" height="32" fill="white"/>
</clipPath>
</defs>
</svg>
