<svg width="32" height="32" viewBox="0 0 32 32" fill="none" xmlns="http://www.w3.org/2000/svg">
<g clip-path="url(#clip0)">
<path d="M1.83484 5.63987C2.13889 3.67711 3.67736 2.13736 5.64193 1.82729C12.6858 0.715551 18.5532 0.723067 26.2072 1.85732C28.2434 2.15907 29.8409 3.75656 30.1427 5.79276C31.273 13.4199 31.2843 19.2728 30.1845 26.2832C29.8718 28.2761 28.2899 29.8335 26.2815 30.1379C18.6978 31.2874 13.3022 31.2874 5.71851 30.1379C3.70976 29.8334 2.12987 28.2767 1.82327 26.2852C0.721755 19.1305 0.725567 12.8006 1.83484 5.63987Z" stroke="black" stroke-width="2"/>
<path d="M16.1598 23.1989C19.3984 23.2131 21.6072 21.0895 21.6001 18.1278C21.6072 15.4006 19.7038 13.4332 17.1257 13.4332C15.5277 13.4332 14.1143 14.2003 13.4609 15.4858H13.3615C13.3757 12.652 14.37 10.8906 16.2663 10.8906C17.3814 10.8906 18.1839 11.5014 18.4183 12.517H21.451C21.1598 10.1236 19.1712 8.25568 16.2663 8.25568C12.6726 8.25568 10.3643 11.1676 10.3501 16.054C10.343 21.3807 13.1697 23.1847 16.1598 23.1989ZM16.1456 20.7841C14.7251 20.7841 13.674 19.6406 13.674 18.2202C13.6811 16.8068 14.7536 15.6562 16.1669 15.6562C17.5874 15.6562 18.6243 16.7713 18.6172 18.2131C18.6243 19.669 17.5661 20.7841 16.1456 20.7841Z" fill="black"/>
</g>
<defs>
<clipPath id="clip0">
<rect width="32" height="32" fill="white"/>
</clipPath>
</defs>
</svg>
