<svg width="32" height="32" viewBox="0 0 32 32" fill="none" xmlns="http://www.w3.org/2000/svg">
<g clip-path="url(#clip0)">
<path d="M1.83484 5.63987C2.13889 3.67711 3.67736 2.13736 5.64193 1.82729C12.6858 0.715551 18.5532 0.723067 26.2072 1.85732C28.2434 2.15907 29.8409 3.75656 30.1427 5.79276C31.273 13.4199 31.2843 19.2728 30.1845 26.2832C29.8718 28.2761 28.2899 29.8335 26.2815 30.1379C18.6978 31.2874 13.3022 31.2874 5.71851 30.1379C3.70976 29.8334 2.12987 28.2767 1.82327 26.2852C0.721755 19.1305 0.725567 12.8006 1.83484 5.63987Z" stroke="black" stroke-width="2"/>
<path d="M15.9938 23.1989C19.275 23.1989 21.633 21.4446 21.6401 19.0866C21.633 17.2685 20.2338 15.7841 18.4867 15.4929V15.3935C20.0066 15.081 21.0932 13.767 21.1003 12.169C21.0932 9.91761 18.9341 8.25568 15.9938 8.25568C13.0463 8.25568 10.8873 9.91761 10.8944 12.169C10.8873 13.7599 11.9597 15.081 13.508 15.3935V15.4929C11.7324 15.7841 10.3475 17.2685 10.3546 19.0866C10.3475 21.4446 12.7125 23.1989 15.9938 23.1989ZM15.9938 20.9403C14.5307 20.9403 13.5506 20.0739 13.5506 18.8452C13.5506 17.5881 14.5804 16.679 15.9938 16.679C17.4 16.679 18.437 17.5881 18.437 18.8452C18.437 20.081 17.4498 20.9403 15.9938 20.9403ZM15.9938 14.4418C14.7651 14.4418 13.8915 13.6392 13.8915 12.4886C13.8915 11.3523 14.7509 10.571 15.9938 10.571C17.2296 10.571 18.0961 11.3594 18.0961 12.4886C18.0961 13.6392 17.2154 14.4418 15.9938 14.4418Z" fill="black"/>
</g>
<defs>
<clipPath id="clip0">
<rect width="32" height="32" fill="white"/>
</clipPath>
</defs>
</svg>
