<svg width="32" height="32" viewBox="0 0 32 32" fill="none" xmlns="http://www.w3.org/2000/svg">
<g clip-path="url(#clip0)">
<path d="M1.83484 5.63987C2.13889 3.67711 3.67736 2.13736 5.64193 1.82729C12.6858 0.715551 18.5532 0.723067 26.2072 1.85732C28.2434 2.15907 29.8409 3.75656 30.1427 5.79276C31.273 13.4199 31.2843 19.2728 30.1845 26.2832C29.8718 28.2761 28.2899 29.8335 26.2815 30.1379C18.6978 31.2874 13.3022 31.2874 5.71851 30.1379C3.70976 29.8334 2.12987 28.2767 1.82327 26.2852C0.721755 19.1305 0.725567 12.8006 1.83484 5.63987Z" stroke="black" stroke-width="2"/>
<path d="M15.8402 8.25568C12.5874 8.24148 10.3928 10.3722 10.407 13.2983C10.4141 16.0114 12.2962 17.9787 14.8743 17.9787C16.4723 17.9787 17.8928 17.2045 18.5391 15.9261H18.6385C18.6314 18.8097 17.63 20.5639 15.7337 20.5639C14.6186 20.5639 13.8161 19.9531 13.5817 18.8949H10.549C10.8331 21.3452 12.8217 23.1989 15.7337 23.1989C19.3345 23.1989 21.657 20.2869 21.6499 15.3509C21.6428 10.081 18.8303 8.26989 15.8402 8.25568ZM15.8615 10.6705C17.2749 10.6705 18.3189 11.821 18.3331 13.206C18.3402 14.598 17.2393 15.7486 15.8331 15.7486C14.4126 15.7486 13.397 14.6406 13.3899 13.2131C13.3757 11.7926 14.4339 10.6705 15.8615 10.6705Z" fill="black"/>
</g>
<defs>
<clipPath id="clip0">
<rect width="32" height="32" fill="white"/>
</clipPath>
</defs>
</svg>
