<svg width="32" height="32" viewBox="0 0 32 32" fill="none" xmlns="http://www.w3.org/2000/svg">
<g clip-path="url(#clip0)">
<path d="M1.83484 5.63987C2.13889 3.67711 3.67736 2.13736 5.64193 1.82729C12.6858 0.715551 18.5532 0.723067 26.2072 1.85732C28.2434 2.15907 29.8409 3.75656 30.1427 5.79276C31.273 13.4199 31.2843 19.2728 30.1845 26.2832C29.8718 28.2761 28.2899 29.8335 26.2815 30.1379C18.6978 31.2874 13.3022 31.2874 5.71851 30.1379C3.70976 29.8334 2.12987 28.2767 1.82327 26.2852C0.721755 19.1305 0.725567 12.8006 1.83484 5.63987Z" stroke="black" stroke-width="2"/>
<path d="M9.80771 20L10.4554 18.0099H13.6046L14.2523 20H16.2296L13.2211 11.2727H10.8432L7.83043 20H9.80771ZM10.9242 16.5696L11.998 13.267H12.0662L13.1401 16.5696H10.9242ZM19.0613 11.2727H17.2459V20H19.0613V11.2727ZM23.997 13.4545H22.7654V11.8864H20.9501V13.4545H20.0552V14.8182H20.9501V18.2273C20.9416 19.5099 21.8152 20.1449 23.1319 20.0895C23.6007 20.0724 23.9331 19.9787 24.1163 19.919L23.8308 18.5682C23.7413 18.5852 23.5495 18.6278 23.3791 18.6278C23.0169 18.6278 22.7654 18.4915 22.7654 17.9886V14.8182H23.997V13.4545Z" fill="black"/>
</g>
<defs>
<clipPath id="clip0">
<rect width="32" height="32" fill="white"/>
</clipPath>
</defs>
</svg>
