<svg width="32" height="32" viewBox="0 0 32 32" fill="none" xmlns="http://www.w3.org/2000/svg">
<g clip-path="url(#clip0)">
<path d="M1.83484 5.63987C2.13889 3.67711 3.67736 2.13736 5.64193 1.82729C12.6858 0.715551 18.5532 0.723067 26.2072 1.85732C28.2434 2.15907 29.8409 3.75656 30.1427 5.79276C31.273 13.4199 31.2843 19.2728 30.1845 26.2832C29.8718 28.2761 28.2899 29.8335 26.2815 30.1379C18.6978 31.2874 13.3022 31.2874 5.71851 30.1379C3.70976 29.8334 2.12987 28.2767 1.82327 26.2852C0.721755 19.1305 0.725567 12.8006 1.83484 5.63987Z" stroke="black" stroke-width="2"/>
<path d="M15.0501 16.6364H16.9606L16.7759 13.8878L19.0771 15.429L20.0288 13.7528L17.5572 12.5455L20.0288 11.3381L19.0771 9.66193L16.7759 11.2031L16.9606 8.45455H15.0501L15.2276 11.2031L12.9265 9.66193L11.9748 11.3381L14.4535 12.5455L11.9748 13.7528L12.9265 15.429L15.2276 13.8878L15.0501 16.6364Z" fill="black"/>
</g>
<defs>
<clipPath id="clip0">
<rect width="32" height="32" fill="white"/>
</clipPath>
</defs>
</svg>
