<svg width="32" height="32" viewBox="0 0 32 32" fill="none" xmlns="http://www.w3.org/2000/svg">
<g clip-path="url(#clip0)">
<path d="M1.83484 5.63987C2.13889 3.67711 3.67736 2.13736 5.64193 1.82729C12.6858 0.715551 18.5532 0.723067 26.2072 1.85732C28.2434 2.15907 29.8409 3.75656 30.1427 5.79276C31.273 13.4199 31.2843 19.2728 30.1845 26.2832C29.8718 28.2761 28.2899 29.8335 26.2815 30.1379C18.6978 31.2874 13.3022 31.2874 5.71851 30.1379C3.70976 29.8334 2.12987 28.2767 1.82327 26.2852C0.721755 19.1305 0.725567 12.8006 1.83484 5.63987Z" stroke="black" stroke-width="2"/>
<path d="M16.4288 27.1903C18.4529 27.1903 20.4345 26.7145 21.3223 26.2102L20.6191 24.1506C19.8592 24.4631 18.2257 24.875 16.5922 24.875C11.9615 24.875 9.44727 22.4176 9.43306 17.929C9.44727 13.8665 11.7626 10.8054 16.4856 10.8054C19.9018 10.8054 23.0765 12.4389 23.0694 16.8991C23.0765 19.6761 22.5652 20.9403 21.5851 20.9403C21.095 20.9403 20.7967 20.571 20.7896 19.9105V12.9787H18.5666V13.7741H18.4672C18.2257 13.1491 16.72 12.5597 15.122 12.8011C13.2257 13.0781 11.1802 14.6335 11.166 17.929C11.1802 21.2741 13.0836 22.9858 15.3279 23.1065C16.9402 23.1989 18.389 22.5241 18.7228 21.6648H18.8081C18.9643 22.6449 19.6177 23.3125 21.2654 23.1918C24.3336 23.0213 25.5055 20.5497 25.4984 17.0625C25.5055 12.0128 22.1674 8.51847 16.5211 8.51847C10.4132 8.51847 6.91175 12.304 6.90465 18.0142C6.91175 23.8168 10.3848 27.1903 16.4288 27.1903ZM16.1021 20.7699C14.2484 20.7699 13.6234 19.3494 13.6163 17.8438C13.6234 16.2244 14.5112 15.1662 16.0879 15.1662C17.8848 15.1662 18.4245 16.1179 18.4316 17.8224C18.4529 19.7543 17.8422 20.7699 16.1021 20.7699Z" fill="black"/>
</g>
<defs>
<clipPath id="clip0">
<rect width="32" height="32" fill="white"/>
</clipPath>
</defs>
</svg>
