<svg width="32" height="32" viewBox="0 0 32 32" fill="none" xmlns="http://www.w3.org/2000/svg">
<g clip-path="url(#clip0)">
<path d="M1.83484 5.63987C2.13889 3.67711 3.67736 2.13736 5.64193 1.82729C12.6858 0.715551 18.5532 0.723067 26.2072 1.85732C28.2434 2.15907 29.8409 3.75656 30.1427 5.79276C31.273 13.4199 31.2843 19.2728 30.1845 26.2832C29.8718 28.2761 28.2899 29.8335 26.2815 30.1379C18.6978 31.2874 13.3022 31.2874 5.71851 30.1379C3.70976 29.8334 2.12987 28.2767 1.82327 26.2852C0.721755 19.1305 0.725567 12.8006 1.83484 5.63987Z" stroke="black" stroke-width="2"/>
<path d="M22.5785 13.5469C22.1737 10.1875 19.631 8.25568 16.2646 8.25568C12.4222 8.25568 9.48899 10.9688 9.48899 15.7273C9.48899 20.4716 12.3725 23.1989 16.2646 23.1989C19.9933 23.1989 22.2447 20.7202 22.5785 18.0426L19.4677 18.0284C19.1765 19.5838 17.9549 20.4787 16.3143 20.4787C14.1055 20.4787 12.6069 18.8381 12.6069 15.7273C12.6069 12.7017 14.0842 10.9759 16.3356 10.9759C18.0188 10.9759 19.2333 11.9489 19.4677 13.5469H22.5785Z" fill="black"/>
</g>
<defs>
<clipPath id="clip0">
<rect width="32" height="32" fill="white"/>
</clipPath>
</defs>
</svg>
