<svg width="32" height="32" viewBox="0 0 32 32" fill="none" xmlns="http://www.w3.org/2000/svg">
<g clip-path="url(#clip0)">
<path d="M1.83484 5.63987C2.13889 3.67711 3.67736 2.13736 5.64193 1.82729C12.6858 0.715551 18.5532 0.723067 26.2072 1.85732C28.2434 2.15907 29.8409 3.75656 30.1427 5.79276C31.273 13.4199 31.2843 19.2728 30.1845 26.2832C29.8718 28.2761 28.2899 29.8335 26.2815 30.1379C18.6978 31.2874 13.3022 31.2874 5.71851 30.1379C3.70976 29.8334 2.12987 28.2767 1.82327 26.2852C0.721755 19.1305 0.725567 12.8006 1.83484 5.63987Z" stroke="black" stroke-width="2"/>
<path d="M10.4172 9.27344C10.2148 7.59375 8.94345 6.62784 7.26021 6.62784C5.33904 6.62784 3.87243 7.98438 3.87243 10.3636C3.87243 12.7358 5.31419 14.0994 7.26021 14.0994C9.12456 14.0994 10.2503 12.8601 10.4172 11.5213L8.86177 11.5142C8.71618 12.2919 8.10538 12.7393 7.28507 12.7393C6.18066 12.7393 5.43137 11.919 5.43137 10.3636C5.43137 8.85085 6.17001 7.98793 7.29572 7.98793C8.13734 7.98793 8.74458 8.47443 8.86177 9.27344H10.4172ZM13.0468 14.103C13.8529 14.103 14.3749 13.7514 14.6412 13.2436H14.6839V14H16.1185V10.321C16.1185 9.02131 15.0177 8.47443 13.8032 8.47443C12.4964 8.47443 11.637 9.09943 11.4275 10.0938L12.8266 10.2074C12.9296 9.84517 13.2528 9.57884 13.7961 9.57884C14.311 9.57884 14.6057 9.83807 14.6057 10.2855V10.3068C14.6057 10.6584 14.2329 10.7045 13.2847 10.7969C12.2052 10.8963 11.2357 11.2585 11.2357 12.4766C11.2357 13.5561 12.0063 14.103 13.0468 14.103ZM13.48 13.0589C13.0148 13.0589 12.681 12.8423 12.681 12.4268C12.681 12.0007 13.0326 11.7912 13.5653 11.7166C13.8955 11.6705 14.4353 11.5923 14.6164 11.4716V12.0504C14.6164 12.6222 14.1441 13.0589 13.48 13.0589ZM17.2922 16.0455H18.805V13.1264H18.8511C19.0606 13.581 19.5187 14.0888 20.3994 14.0888C21.6423 14.0888 22.6118 13.1051 22.6118 11.2798C22.6118 9.40483 21.5997 8.47443 20.403 8.47443C19.4903 8.47443 19.0535 9.01776 18.8511 9.46165H18.7836V8.54545H17.2922V16.0455ZM18.773 11.2727C18.773 10.2997 19.1849 9.67827 19.92 9.67827C20.6693 9.67827 21.067 10.3281 21.067 11.2727C21.067 12.2244 20.6622 12.8849 19.92 12.8849C19.192 12.8849 18.773 12.2457 18.773 11.2727ZM28.1586 10.1009C28.0237 9.09588 27.214 8.47443 25.8362 8.47443C24.4406 8.47443 23.5209 9.12074 23.5244 10.1719C23.5209 10.9886 24.0358 11.5178 25.1011 11.7308L26.0457 11.919C26.5216 12.0149 26.7382 12.1889 26.7453 12.4624C26.7382 12.7855 26.3866 13.0163 25.8575 13.0163C25.3177 13.0163 24.9591 12.7855 24.8667 12.3416L23.3788 12.4197C23.5209 13.4638 24.4086 14.1065 25.854 14.1065C27.2673 14.1065 28.2794 13.3857 28.2829 12.3097C28.2794 11.5213 27.7645 11.049 26.7062 10.8324L25.719 10.6335C25.2112 10.5234 25.023 10.3494 25.0265 10.0866C25.023 9.75994 25.3923 9.54688 25.8611 9.54688C26.3866 9.54688 26.6991 9.83452 26.7737 10.1861L28.1586 10.1009ZM4.88406 26H9.5396V24.7322H6.4217V18.7273H4.88406V26ZM12.994 26.1065C14.6488 26.1065 15.6786 24.9737 15.6786 23.294C15.6786 21.6037 14.6488 20.4744 12.994 20.4744C11.3391 20.4744 10.3093 21.6037 10.3093 23.294C10.3093 24.9737 11.3391 26.1065 12.994 26.1065ZM13.0011 24.9347C12.2376 24.9347 11.8469 24.2351 11.8469 23.2834C11.8469 22.3317 12.2376 21.6286 13.0011 21.6286C13.7504 21.6286 14.141 22.3317 14.141 23.2834C14.141 24.2351 13.7504 24.9347 13.0011 24.9347ZM19.1268 26.1065C20.5792 26.1065 21.4918 25.2543 21.5629 24.0007H20.1353C20.0465 24.5831 19.663 24.9098 19.1445 24.9098C18.4379 24.9098 17.9798 24.3168 17.9798 23.2727C17.9798 22.2429 18.4414 21.6534 19.1445 21.6534C19.6985 21.6534 20.0536 22.0192 20.1353 22.5625H21.5629C21.4989 21.3018 20.5437 20.4744 19.1197 20.4744C17.4648 20.4744 16.4421 21.6214 16.4421 23.294C16.4421 24.9524 17.4471 26.1065 19.1268 26.1065ZM22.5314 26H24.0442V24.267L24.4526 23.8018L25.9405 26H27.7125L25.5854 22.907L27.6096 20.5455H25.873L24.1259 22.6158H24.0442V18.7273H22.5314V26Z" fill="black"/>
</g>
<defs>
<clipPath id="clip0">
<rect width="32" height="32" fill="white"/>
</clipPath>
</defs>
</svg>
