<svg width="32" height="32" viewBox="0 0 32 32" fill="none" xmlns="http://www.w3.org/2000/svg">
<g clip-path="url(#clip0)">
<path d="M1.83484 5.63987C2.13889 3.67711 3.67736 2.13736 5.64193 1.82729C12.6858 0.715551 18.5532 0.723067 26.2072 1.85732C28.2434 2.15907 29.8409 3.75656 30.1427 5.79276C31.273 13.4199 31.2843 19.2728 30.1845 26.2832C29.8718 28.2761 28.2899 29.8335 26.2815 30.1379C18.6978 31.2874 13.3022 31.2874 5.71851 30.1379C3.70976 29.8334 2.12987 28.2767 1.82327 26.2852C0.721755 19.1305 0.725567 12.8006 1.83484 5.63987Z" stroke="black" stroke-width="2"/>
<path d="M15.9973 15.5497C16.9064 15.5497 17.6948 14.7898 17.7019 13.8452C17.6948 12.9148 16.9064 12.1548 15.9973 12.1548C15.0598 12.1548 14.2857 12.9148 14.2928 13.8452C14.2857 14.7898 15.0598 15.5497 15.9973 15.5497ZM15.9973 23.1847C16.9064 23.1847 17.6948 22.4247 17.7019 21.4801C17.6948 20.5497 16.9064 19.7898 15.9973 19.7898C15.0598 19.7898 14.2857 20.5497 14.2928 21.4801C14.2857 22.4247 15.0598 23.1847 15.9973 23.1847Z" fill="black"/>
</g>
<defs>
<clipPath id="clip0">
<rect width="32" height="32" fill="white"/>
</clipPath>
</defs>
</svg>
