<svg width="32" height="32" viewBox="0 0 32 32" fill="none" xmlns="http://www.w3.org/2000/svg">
<g clip-path="url(#clip0)">
<path d="M1.83484 5.63987C2.13889 3.67711 3.67736 2.13736 5.64193 1.82729C12.6858 0.715551 18.5532 0.723067 26.2072 1.85732C28.2434 2.15907 29.8409 3.75656 30.1427 5.79276C31.273 13.4199 31.2843 19.2728 30.1845 26.2832C29.8718 28.2761 28.2899 29.8335 26.2815 30.1379C18.6978 31.2874 13.3022 31.2874 5.71851 30.1379C3.70976 29.8334 2.12987 28.2767 1.82327 26.2852C0.721755 19.1305 0.725567 12.8006 1.83484 5.63987Z" stroke="black" stroke-width="2"/>
<path d="M13.5252 14.3281C13.2823 12.3125 11.7567 11.1534 9.73686 11.1534C7.43146 11.1534 5.67152 12.7812 5.67152 15.6364C5.67152 18.483 7.40163 20.1193 9.73686 20.1193C11.9741 20.1193 13.3249 18.6321 13.5252 17.0256L11.6587 17.017C11.484 17.9503 10.7511 18.4872 9.76669 18.4872C8.44141 18.4872 7.54226 17.5028 7.54226 15.6364C7.54226 13.821 8.42862 12.7855 9.77947 12.7855C10.7894 12.7855 11.5181 13.3693 11.6587 14.3281H13.5252ZM18.2958 13.4545H17.0643V11.8864H15.2489V13.4545H14.354V14.8182H15.2489V18.2273C15.2404 19.5099 16.114 20.1449 17.4308 20.0895C17.8995 20.0724 18.2319 19.9787 18.4151 19.919L18.1296 18.5682C18.0401 18.5852 17.8484 18.6278 17.6779 18.6278C17.3157 18.6278 17.0643 18.4915 17.0643 17.9886V14.8182H18.2958V13.4545ZM19.4783 20H21.2937V16.2969C21.2937 15.4915 21.8817 14.9375 22.6829 14.9375C22.9343 14.9375 23.2795 14.9801 23.4499 15.0355V13.4247C23.288 13.3864 23.0621 13.3608 22.8789 13.3608C22.146 13.3608 21.5451 13.7869 21.3065 14.5966H21.2383V13.4545H19.4783V20ZM26.2038 11.2727H24.3885V20H26.2038V11.2727Z" fill="black"/>
</g>
<defs>
<clipPath id="clip0">
<rect width="32" height="32" fill="white"/>
</clipPath>
</defs>
</svg>
