<svg width="32" height="32" viewBox="0 0 32 32" fill="none" xmlns="http://www.w3.org/2000/svg">
<g clip-path="url(#clip0)">
<path d="M1.83484 5.63987C2.13889 3.67711 3.67736 2.13736 5.64193 1.82729C12.6858 0.715551 18.5532 0.723067 26.2072 1.85732C28.2434 2.15907 29.8409 3.75656 30.1427 5.79276C31.273 13.4199 31.2843 19.2728 30.1845 26.2832C29.8718 28.2761 28.2899 29.8335 26.2815 30.1379C18.6978 31.2874 13.3022 31.2874 5.71851 30.1379C3.70976 29.8334 2.12987 28.2767 1.82327 26.2852C0.721755 19.1305 0.725567 12.8006 1.83484 5.63987Z" stroke="black" stroke-width="2"/>
<path d="M12.3699 8.17756V10.4432C14.0531 10.4432 14.394 11.0895 14.394 12.4602V14.5341C14.394 15.6278 14.8627 16.608 16.9224 17.027V17.3111C14.8627 17.7301 14.394 18.7102 14.394 19.7969V21.8707C14.394 23.2486 14.0531 23.8949 12.3699 23.8949V26.1534C15.2392 26.1534 17.2917 25.6776 17.2917 22.1761V20.6065C17.2917 19.1506 17.8386 18.5327 19.4721 18.5327V15.8054C17.8386 15.8054 17.2917 15.1875 17.2917 13.7315V12.1548C17.2917 8.65341 15.2392 8.17756 12.3699 8.17756Z" fill="black"/>
</g>
<defs>
<clipPath id="clip0">
<rect width="32" height="32" fill="white"/>
</clipPath>
</defs>
</svg>
