<svg width="32" height="32" viewBox="0 0 32 32" fill="none" xmlns="http://www.w3.org/2000/svg">
<g clip-path="url(#clip0)">
<path d="M1.83484 5.63987C2.13889 3.67711 3.67736 2.13736 5.64193 1.82729C12.6858 0.715551 18.5532 0.723067 26.2072 1.85732C28.2434 2.15907 29.8409 3.75656 30.1427 5.79276C31.273 13.4199 31.2843 19.2728 30.1845 26.2832C29.8718 28.2761 28.2899 29.8335 26.2815 30.1379C18.6978 31.2874 13.3022 31.2874 5.71851 30.1379C3.70976 29.8334 2.12987 28.2767 1.82327 26.2852C0.721755 19.1305 0.725567 12.8006 1.83484 5.63987Z" stroke="black" stroke-width="2"/>
<path d="M5.86506 19C7.63778 19 8.71165 17.9034 8.71165 16.0852C8.71165 14.2727 7.63778 13.1818 5.8821 13.1818H3.80256V19H5.86506ZM5.03267 17.946V14.2358H5.81676C6.90767 14.2358 7.48438 14.7926 7.48438 16.0852C7.48438 17.3835 6.90767 17.946 5.81392 17.946H5.03267ZM11.5888 19.0852C12.6683 19.0852 13.3956 18.5597 13.5661 17.75L12.4467 17.6761C12.3246 18.0085 12.0121 18.1818 11.6087 18.1818C11.0036 18.1818 10.62 17.7812 10.62 17.1307V17.1278H13.5916V16.7955C13.5916 15.3125 12.6939 14.5795 11.5405 14.5795C10.2564 14.5795 9.42401 15.4915 9.42401 16.8381C9.42401 18.2216 10.245 19.0852 11.5888 19.0852ZM10.62 16.3778C10.6456 15.8807 11.0234 15.483 11.5604 15.483C12.0859 15.483 12.4496 15.858 12.4524 16.3778H10.62ZM15.5916 13.1818H14.3814V19H15.5916V13.1818ZM18.5497 19.0852C19.6293 19.0852 20.3565 18.5597 20.527 17.75L19.4077 17.6761C19.2855 18.0085 18.973 18.1818 18.5696 18.1818C17.9645 18.1818 17.581 17.7812 17.581 17.1307V17.1278H20.5526V16.7955C20.5526 15.3125 19.6548 14.5795 18.5014 14.5795C17.2173 14.5795 16.3849 15.4915 16.3849 16.8381C16.3849 18.2216 17.206 19.0852 18.5497 19.0852ZM17.581 16.3778C17.6065 15.8807 17.9844 15.483 18.5213 15.483C19.0469 15.483 19.4105 15.858 19.4134 16.3778H17.581ZM23.6634 14.6364H22.8423V13.5909H21.6321V14.6364H21.0355V15.5455H21.6321V17.8182C21.6264 18.6733 22.2088 19.0966 23.0866 19.0597C23.3991 19.0483 23.6207 18.9858 23.7429 18.946L23.5526 18.0455C23.4929 18.0568 23.3651 18.0852 23.2514 18.0852C23.0099 18.0852 22.8423 17.9943 22.8423 17.6591V15.5455H23.6634V14.6364ZM26.3935 19.0852C27.473 19.0852 28.2003 18.5597 28.3707 17.75L27.2514 17.6761C27.1293 18.0085 26.8168 18.1818 26.4134 18.1818C25.8082 18.1818 25.4247 17.7812 25.4247 17.1307V17.1278H28.3963V16.7955C28.3963 15.3125 27.4986 14.5795 26.3452 14.5795C25.0611 14.5795 24.2287 15.4915 24.2287 16.8381C24.2287 18.2216 25.0497 19.0852 26.3935 19.0852ZM25.4247 16.3778C25.4503 15.8807 25.8281 15.483 26.3651 15.483C26.8906 15.483 27.2543 15.858 27.2571 16.3778H25.4247Z" fill="black"/>
</g>
<defs>
<clipPath id="clip0">
<rect width="32" height="32" fill="white"/>
</clipPath>
</defs>
</svg>
