<svg width="32" height="32" viewBox="0 0 32 32" fill="none" xmlns="http://www.w3.org/2000/svg">
<g clip-path="url(#clip0)">
<path d="M1.83484 5.63987C2.13889 3.67711 3.67736 2.13736 5.64193 1.82729C12.6858 0.715551 18.5532 0.723067 26.2072 1.85732C28.2434 2.15907 29.8409 3.75656 30.1427 5.79276C31.273 13.4199 31.2843 19.2728 30.1845 26.2832C29.8718 28.2761 28.2899 29.8335 26.2815 30.1379C18.6978 31.2874 13.3022 31.2874 5.71851 30.1379C3.70976 29.8334 2.12987 28.2767 1.82327 26.2852C0.721755 19.1305 0.725567 12.8006 1.83484 5.63987Z" stroke="black" stroke-width="2"/>
<path d="M15.193 24.8182H16.8691L16.8833 23.1776C19.9586 22.9432 21.7413 21.3097 21.7484 18.8452C21.7413 16.4233 19.916 15.1378 17.3876 14.5696L16.9686 14.4702L16.997 10.919C17.9416 11.1392 18.5169 11.7429 18.6021 12.6378H21.5495C21.514 10.2869 19.7598 8.60369 17.0254 8.3054L17.0396 6.63636H15.3635L15.3493 8.29119C12.5723 8.56108 10.612 10.2372 10.6262 12.6591C10.6191 14.804 12.1319 16.0327 14.5893 16.6222L15.2711 16.7926L15.2356 20.5497C14.0779 20.3295 13.2967 19.6193 13.2186 18.4332H10.2427C10.3137 21.3026 12.1958 22.9077 15.2072 23.1705L15.193 24.8182ZM16.9118 20.5497L16.9402 17.233C18.041 17.581 18.6376 18.0284 18.6447 18.8381C18.6376 19.6974 17.9842 20.3366 16.9118 20.5497ZM15.2924 14.0369C14.4047 13.7315 13.7654 13.2699 13.7797 12.4531C13.7797 11.6932 14.3194 11.1037 15.3208 10.8977L15.2924 14.0369Z" fill="black"/>
</g>
<defs>
<clipPath id="clip0">
<rect width="32" height="32" fill="white"/>
</clipPath>
</defs>
</svg>
