<svg width="32" height="32" viewBox="0 0 32 32" fill="none" xmlns="http://www.w3.org/2000/svg">
<g clip-path="url(#clip0)">
<path d="M1.83484 5.63987C2.13889 3.67711 3.67736 2.13736 5.64193 1.82729C12.6858 0.715551 18.5532 0.723067 26.2072 1.85732C28.2434 2.15907 29.8409 3.75656 30.1427 5.79276C31.273 13.4199 31.2843 19.2728 30.1845 26.2832C29.8718 28.2761 28.2899 29.8335 26.2815 30.1379C18.6978 31.2874 13.3022 31.2874 5.71851 30.1379C3.70976 29.8334 2.12987 28.2767 1.82327 26.2852C0.721755 19.1305 0.725567 12.8006 1.83484 5.63987Z" stroke="black" stroke-width="2"/>
<path d="M9.02521 19H12.957V17.9858H10.2553V16.5966H12.744V15.5824H10.2553V14.196H12.9457V13.1818H9.02521V19ZM15.1112 16.4773C15.114 15.9148 15.4492 15.5852 15.9379 15.5852C16.4237 15.5852 16.7163 15.9034 16.7134 16.4375V19H17.9237V16.2216C17.9237 15.2045 17.3271 14.5795 16.418 14.5795C15.7702 14.5795 15.3015 14.8977 15.1055 15.4062H15.0543V14.6364H13.9009V19H15.1112V16.4773ZM20.4854 19.071C21.19 19.071 21.5565 18.6648 21.7241 18.3011H21.7752V19H22.9684V13.1818H21.761V15.3693H21.7241C21.5621 15.0142 21.2127 14.5795 20.4826 14.5795C19.5252 14.5795 18.7156 15.3239 18.7156 16.8239C18.7156 18.2841 19.4911 19.071 20.4854 19.071ZM20.869 18.108C20.2752 18.108 19.9513 17.5795 19.9513 16.8182C19.9513 16.0625 20.2695 15.5426 20.869 15.5426C21.457 15.5426 21.7866 16.0398 21.7866 16.8182C21.7866 17.5966 21.4513 18.108 20.869 18.108Z" fill="black"/>
</g>
<defs>
<clipPath id="clip0">
<rect width="32" height="32" fill="white"/>
</clipPath>
</defs>
</svg>
