<svg width="32" height="32" viewBox="0 0 32 32" fill="none" xmlns="http://www.w3.org/2000/svg">
<g clip-path="url(#clip0)">
<path d="M1.83484 5.63987C2.13889 3.67711 3.67736 2.13736 5.64193 1.82729C12.6858 0.715551 18.5532 0.723067 26.2072 1.85732C28.2434 2.15907 29.8409 3.75656 30.1427 5.79276C31.273 13.4199 31.2843 19.2728 30.1845 26.2832C29.8718 28.2761 28.2899 29.8335 26.2815 30.1379C18.6978 31.2874 13.3022 31.2874 5.71851 30.1379C3.70976 29.8334 2.12987 28.2767 1.82327 26.2852C0.721755 19.1305 0.725567 12.8006 1.83484 5.63987Z" stroke="black" stroke-width="2"/>
<path d="M6.19407 20H12.0918V18.4787H8.03924V16.3949H11.7722V14.8736H8.03924V12.794H12.0748V11.2727H6.19407V20ZM18.9537 15.321C18.7917 14.1151 17.8201 13.3693 16.1667 13.3693C14.492 13.3693 13.3883 14.1449 13.3926 15.4062C13.3883 16.3864 14.0062 17.0213 15.2846 17.277L16.4181 17.5028C16.9892 17.6179 17.2491 17.8267 17.2576 18.1548C17.2491 18.5426 16.8272 18.8196 16.1923 18.8196C15.5446 18.8196 15.1142 18.5426 15.0034 18.0099L13.2179 18.1037C13.3883 19.3565 14.4537 20.1278 16.188 20.1278C17.8841 20.1278 19.0985 19.2628 19.1028 17.9716C19.0985 17.0256 18.4806 16.4588 17.2108 16.1989L16.0261 15.9602C15.4167 15.8281 15.1909 15.6193 15.1951 15.304C15.1909 14.9119 15.6341 14.6562 16.1966 14.6562C16.8272 14.6562 17.2022 15.0014 17.2917 15.4233L18.9537 15.321ZM23.2033 20.1278C24.9462 20.1278 26.0414 19.1051 26.1266 17.6009H24.4135C24.307 18.2997 23.8468 18.6918 23.2246 18.6918C22.3766 18.6918 21.8269 17.9801 21.8269 16.7273C21.8269 15.4915 22.3809 14.7841 23.2246 14.7841C23.8894 14.7841 24.3155 15.223 24.4135 15.875H26.1266C26.0499 14.3622 24.9036 13.3693 23.1948 13.3693C21.209 13.3693 19.9817 14.7457 19.9817 16.7528C19.9817 18.7429 21.1877 20.1278 23.2033 20.1278Z" fill="black"/>
</g>
<defs>
<clipPath id="clip0">
<rect width="32" height="32" fill="white"/>
</clipPath>
</defs>
</svg>
