<svg width="32" height="32" viewBox="0 0 32 32" fill="none" xmlns="http://www.w3.org/2000/svg">
<g clip-path="url(#clip0)">
<path d="M1.65593 9.18254C2.00847 7.29048 3.60086 5.86043 5.56822 5.6269C12.6651 4.78447 18.5722 4.79038 26.2787 5.64891C28.3153 5.87579 29.9675 7.37016 30.3239 9.34304C31.213 14.2635 31.2235 18.2174 30.3655 22.7605C30.004 24.6751 28.376 26.1166 26.3747 26.3449C18.7183 27.2184 13.2817 27.2184 5.62532 26.3449C3.624 26.1166 1.9996 24.6754 1.64565 22.7621C0.781401 18.0903 0.784765 13.8581 1.65593 9.18254Z" stroke="black" stroke-width="2"/>
<path d="M6.18235 20H8.02752V16.3949H11.5772V14.8736H8.02752V12.794H11.9608V11.2727H6.18235V20ZM16.9476 11.2727H15.2132L13.0527 12.6406V14.277L15.0513 13.0241H15.1025V20H16.9476V11.2727ZM22.4437 20.1918C24.6383 20.1918 25.9636 18.5213 25.9679 15.6449C25.9721 12.7898 24.6298 11.1534 22.4437 11.1534C20.2534 11.1534 18.9238 12.7855 18.9196 15.6449C18.911 18.5128 20.2449 20.1875 22.4437 20.1918ZM22.4437 18.6619C21.4423 18.6619 20.7946 17.6562 20.7988 15.6449C20.8031 13.6634 21.4466 12.6662 22.4437 12.6662C23.4366 12.6662 24.0843 13.6634 24.0843 15.6449C24.0886 17.6562 23.4409 18.6619 22.4437 18.6619Z" fill="black"/>
</g>
<defs>
<clipPath id="clip0">
<rect width="32" height="32" fill="white"/>
</clipPath>
</defs>
</svg>
