<svg width="32" height="32" viewBox="0 0 32 32" fill="none" xmlns="http://www.w3.org/2000/svg">
<g clip-path="url(#clip0)">
<path d="M1.65593 9.18254C2.00847 7.29048 3.60086 5.86043 5.56822 5.6269C12.6651 4.78447 18.5722 4.79038 26.2787 5.64891C28.3153 5.87579 29.9675 7.37016 30.3239 9.34304C31.213 14.2635 31.2235 18.2174 30.3655 22.7605C30.004 24.6751 28.376 26.1166 26.3747 26.3449C18.7183 27.2184 13.2817 27.2184 5.62532 26.3449C3.624 26.1166 1.9996 24.6754 1.64565 22.7621C0.781401 18.0903 0.784765 13.8581 1.65593 9.18254Z" stroke="black" stroke-width="2"/>
<path d="M7.37766 20H9.22283V16.3949H12.7726V14.8736H9.22283V12.794H13.1561V11.2727H7.37766V20ZM18.1429 11.2727H16.4086L14.248 12.6406V14.277L16.2466 13.0241H16.2978V20H18.1429V11.2727ZM24.014 11.2727H22.2797L20.1191 12.6406V14.277L22.1177 13.0241H22.1689V20H24.014V11.2727Z" fill="black"/>
</g>
<defs>
<clipPath id="clip0">
<rect width="32" height="32" fill="white"/>
</clipPath>
</defs>
</svg>
