<svg width="32" height="32" viewBox="0 0 32 32" fill="none" xmlns="http://www.w3.org/2000/svg">
<g clip-path="url(#clip0)">
<path d="M1.65593 9.18254C2.00847 7.29048 3.60086 5.86043 5.56822 5.6269C12.6651 4.78447 18.5722 4.79038 26.2787 5.64891C28.3153 5.87579 29.9675 7.37016 30.3239 9.34304C31.213 14.2635 31.2235 18.2174 30.3655 22.7605C30.004 24.6751 28.376 26.1166 26.3747 26.3449C18.7183 27.2184 13.2817 27.2184 5.62532 26.3449C3.624 26.1166 1.9996 24.6754 1.64565 22.7621C0.781401 18.0903 0.784765 13.8581 1.65593 9.18254Z" stroke="black" stroke-width="2"/>
<path d="M6.53391 20H8.37908V16.3949H11.9288V14.8736H8.37908V12.794H12.3123V11.2727H6.53391V20ZM17.2992 11.2727H15.5648L13.4043 12.6406V14.277L15.4029 13.0241H15.454V20H17.2992V11.2727ZM19.3734 20H25.595V18.4915H21.9302V18.4318L23.2044 17.1832C24.9984 15.5469 25.4799 14.7287 25.4799 13.7358C25.4799 12.223 24.2441 11.1534 22.3734 11.1534C20.541 11.1534 19.2839 12.2486 19.2882 13.9616H21.0396C21.0353 13.1264 21.5637 12.6151 22.3606 12.6151C23.1277 12.6151 23.6987 13.0923 23.6987 13.8594C23.6987 14.554 23.2725 15.0312 22.4799 15.794L19.3734 18.6705V20Z" fill="black"/>
</g>
<defs>
<clipPath id="clip0">
<rect width="32" height="32" fill="white"/>
</clipPath>
</defs>
</svg>
