<svg width="32" height="32" viewBox="0 0 32 32" fill="none" xmlns="http://www.w3.org/2000/svg">
<g clip-path="url(#clip0)">
<path d="M1.65593 9.18254C2.00847 7.29048 3.60086 5.86043 5.56822 5.6269C12.6651 4.78447 18.5722 4.79038 26.2787 5.64891C28.3153 5.87579 29.9675 7.37016 30.3239 9.34304C31.213 14.2635 31.2235 18.2174 30.3655 22.7605C30.004 24.6751 28.376 26.1166 26.3747 26.3449C18.7183 27.2184 13.2817 27.2184 5.62532 26.3449C3.624 26.1166 1.9996 24.6754 1.64565 22.7621C0.781401 18.0903 0.784765 13.8581 1.65593 9.18254Z" stroke="black" stroke-width="2"/>
<path d="M9.46946 20H11.3146V16.3949H14.8643V14.8736H11.3146V12.794H15.2479V11.2727H9.46946V20ZM16.4379 20H22.6594V18.4915H18.9947V18.4318L20.2688 17.1832C22.0629 15.5469 22.5444 14.7287 22.5444 13.7358C22.5444 12.223 21.3086 11.1534 19.4379 11.1534C17.6055 11.1534 16.3484 12.2486 16.3526 13.9616H18.104C18.0998 13.1264 18.6282 12.6151 19.4251 12.6151C20.1921 12.6151 20.7631 13.0923 20.7631 13.8594C20.7631 14.554 20.337 15.0312 19.5444 15.794L16.4379 18.6705V20Z" fill="black"/>
</g>
<defs>
<clipPath id="clip0">
<rect width="32" height="32" fill="white"/>
</clipPath>
</defs>
</svg>
