<svg width="32" height="32" viewBox="0 0 32 32" fill="none" xmlns="http://www.w3.org/2000/svg">
<g clip-path="url(#clip0)">
<path d="M1.65593 9.18254C2.00847 7.29048 3.60086 5.86043 5.56822 5.6269C12.6651 4.78447 18.5722 4.79038 26.2787 5.64891C28.3153 5.87579 29.9675 7.37016 30.3239 9.34304C31.213 14.2635 31.2235 18.2174 30.3655 22.7605C30.004 24.6751 28.376 26.1166 26.3747 26.3449C18.7183 27.2184 13.2817 27.2184 5.62532 26.3449C3.624 26.1166 1.9996 24.6754 1.64565 22.7621C0.781401 18.0903 0.784765 13.8581 1.65593 9.18254Z" stroke="black" stroke-width="2"/>
<path d="M9.38157 20H11.2267V16.3949H14.7765V14.8736H11.2267V12.794H15.16V11.2727H9.38157V20ZM19.5375 20.1193C21.4806 20.1193 22.8017 18.8537 22.7974 17.0895C22.8017 15.419 21.6341 14.2173 20.0616 14.2173C19.2946 14.2173 18.6341 14.5369 18.3272 14.9673H18.2761L18.502 12.7812H22.3159V11.2727H16.9806L16.5673 15.875L18.2079 16.169C18.4764 15.8068 18.9963 15.581 19.5119 15.581C20.3897 15.5852 21.0204 16.2202 21.0204 17.1364C21.0204 18.044 20.4025 18.6705 19.5375 18.6705C18.8045 18.6705 18.2122 18.2102 18.1696 17.5327H16.3798C16.4139 19.0412 17.7306 20.1193 19.5375 20.1193Z" fill="black"/>
</g>
<defs>
<clipPath id="clip0">
<rect width="32" height="32" fill="white"/>
</clipPath>
</defs>
</svg>
