<svg width="32" height="32" viewBox="0 0 32 32" fill="none" xmlns="http://www.w3.org/2000/svg">
<g clip-path="url(#clip0)">
<path d="M1.65593 9.18254C2.00847 7.29048 3.60086 5.86043 5.56822 5.6269C12.6651 4.78447 18.5722 4.79038 26.2787 5.64891C28.3153 5.87579 29.9675 7.37016 30.3239 9.34304C31.213 14.2635 31.2235 18.2174 30.3655 22.7605C30.004 24.6751 28.376 26.1166 26.3747 26.3449C18.7183 27.2184 13.2817 27.2184 5.62532 26.3449C3.624 26.1166 1.9996 24.6754 1.64565 22.7621C0.781401 18.0903 0.784765 13.8581 1.65593 9.18254Z" stroke="black" stroke-width="2"/>
<path d="M9.28782 20H11.133V16.3949H14.6827V14.8736H11.133V12.794H15.0662V11.2727H9.28782V20ZM19.6056 20.1193C21.5488 20.1278 22.8741 18.8537 22.8699 17.0767C22.8741 15.4403 21.7321 14.2599 20.1852 14.2599C19.2264 14.2599 18.3784 14.7202 17.9863 15.4915H17.9267C17.9352 13.7912 18.5318 12.7344 19.6696 12.7344C20.3386 12.7344 20.8201 13.1009 20.9608 13.7102H22.7804C22.6056 12.2741 21.4125 11.1534 19.6696 11.1534C17.5133 11.1534 16.1284 12.9006 16.1199 15.8324C16.1156 19.0284 17.8116 20.1108 19.6056 20.1193ZM19.5971 18.6705C18.7449 18.6705 18.1142 17.9844 18.1142 17.1321C18.1184 16.2841 18.7619 15.5938 19.6099 15.5938C20.4622 15.5938 21.0843 16.2628 21.0801 17.1278C21.0843 18.0014 20.4494 18.6705 19.5971 18.6705Z" fill="black"/>
</g>
<defs>
<clipPath id="clip0">
<rect width="32" height="32" fill="white"/>
</clipPath>
</defs>
</svg>
