<svg width="32" height="32" viewBox="0 0 32 32" fill="none" xmlns="http://www.w3.org/2000/svg">
<g clip-path="url(#clip0)">
<path d="M1.65593 9.18254C2.00847 7.29048 3.60086 5.86043 5.56822 5.6269C12.6651 4.78447 18.5722 4.79038 26.2787 5.64891C28.3153 5.87579 29.9675 7.37016 30.3239 9.34304C31.213 14.2635 31.2235 18.2174 30.3655 22.7605C30.004 24.6751 28.376 26.1166 26.3747 26.3449C18.7183 27.2184 13.2817 27.2184 5.62532 26.3449C3.624 26.1166 1.9996 24.6754 1.64565 22.7621C0.781401 18.0903 0.784765 13.8581 1.65593 9.18254Z" stroke="black" stroke-width="2"/>
<path d="M9.6804 20H11.5256V16.3949H15.0753V14.8736H11.5256V12.794H15.4588V11.2727H9.6804V20ZM16.994 20H18.8988L22.521 12.8026V11.2727H16.3974V12.7812H20.6119V12.8409L16.994 20Z" fill="black"/>
</g>
<defs>
<clipPath id="clip0">
<rect width="32" height="32" fill="white"/>
</clipPath>
</defs>
</svg>
