<svg width="32" height="32" viewBox="0 0 32 32" fill="none" xmlns="http://www.w3.org/2000/svg">
<g clip-path="url(#clip0)">
<path d="M1.65593 9.18254C2.00847 7.29048 3.60086 5.86043 5.56822 5.6269C12.6651 4.78447 18.5722 4.79038 26.2787 5.64891C28.3153 5.87579 29.9675 7.37016 30.3239 9.34304C31.213 14.2635 31.2235 18.2174 30.3655 22.7605C30.004 24.6751 28.376 26.1166 26.3747 26.3449C18.7183 27.2184 13.2817 27.2184 5.62532 26.3449C3.624 26.1166 1.9996 24.6754 1.64565 22.7621C0.781401 18.0903 0.784765 13.8581 1.65593 9.18254Z" stroke="black" stroke-width="2"/>
<path d="M9.28782 20H11.133V16.3949H14.6827V14.8736H11.133V12.794H15.0662V11.2727H9.28782V20ZM19.4139 11.1534C17.4622 11.1449 16.1454 12.4233 16.1539 14.179C16.1582 15.8068 17.2875 16.9872 18.8343 16.9872C19.7931 16.9872 20.6454 16.5227 21.0332 15.7557H21.0929C21.0886 17.4858 20.4877 18.5384 19.35 18.5384C18.6809 18.5384 18.1994 18.1719 18.0588 17.5369H16.2392C16.4096 19.0071 17.6028 20.1193 19.35 20.1193C21.5105 20.1193 22.9039 18.3722 22.8997 15.4105C22.8954 12.2486 21.2079 11.1619 19.4139 11.1534ZM19.4267 12.6023C20.2747 12.6023 20.9011 13.2926 20.9096 14.1236C20.9139 14.9588 20.2534 15.6491 19.4096 15.6491C18.5574 15.6491 17.948 14.9844 17.9437 14.1278C17.9352 13.2756 18.5701 12.6023 19.4267 12.6023Z" fill="black"/>
</g>
<defs>
<clipPath id="clip0">
<rect width="32" height="32" fill="white"/>
</clipPath>
</defs>
</svg>
