<svg width="32" height="32" viewBox="0 0 32 32" fill="none" xmlns="http://www.w3.org/2000/svg">
<g clip-path="url(#clip0)">
<path d="M1.83484 5.63987C2.13889 3.67711 3.67736 2.13736 5.64193 1.82729C12.6858 0.715551 18.5532 0.723067 26.2072 1.85732C28.2434 2.15907 29.8409 3.75656 30.1427 5.79276C31.273 13.4199 31.2843 19.2728 30.1845 26.2832C29.8718 28.2761 28.2899 29.8335 26.2815 30.1379C18.6978 31.2874 13.3022 31.2874 5.71851 30.1379C3.70976 29.8334 2.12987 28.2767 1.82327 26.2852C0.721755 19.1305 0.725567 12.8006 1.83484 5.63987Z" stroke="black" stroke-width="2"/>
<path d="M19.3017 13.1562H22.4267C22.0289 10.2798 19.4934 8.25568 16.2051 8.25568C12.3627 8.25568 9.4011 11.0256 9.4011 15.7415C9.4011 20.3438 12.171 23.1989 16.269 23.1989C19.9409 23.1989 22.5616 20.8764 22.5616 17.0483V15.2159H16.475V17.5312H19.6C19.5574 19.3352 18.3287 20.4787 16.2832 20.4787C13.975 20.4787 12.519 18.7528 12.519 15.7131C12.519 12.6875 14.0318 10.9759 16.2548 10.9759C17.8386 10.9759 18.911 11.7926 19.3017 13.1562Z" fill="black"/>
</g>
<defs>
<clipPath id="clip0">
<rect width="32" height="32" fill="white"/>
</clipPath>
</defs>
</svg>
