<svg width="32" height="32" viewBox="0 0 32 32" fill="none" xmlns="http://www.w3.org/2000/svg">
<g clip-path="url(#clip0)">
<path d="M1.83484 5.63987C2.13889 3.67711 3.67736 2.13736 5.64193 1.82729C12.6858 0.715551 18.5532 0.723067 26.2072 1.85732C28.2434 2.15907 29.8409 3.75656 30.1427 5.79276C31.273 13.4199 31.2843 19.2728 30.1845 26.2832C29.8718 28.2761 28.2899 29.8335 26.2815 30.1379C18.6978 31.2874 13.3022 31.2874 5.71851 30.1379C3.70976 29.8334 2.12987 28.2767 1.82327 26.2852C0.721755 19.1305 0.725567 12.8006 1.83484 5.63987Z" stroke="black" stroke-width="2"/>
<path d="M5.02912 19H6.25923V16.5966H8.75639V19H9.98366V13.1818H8.75639V15.5824H6.25923V13.1818H5.02912V19ZM12.9467 19.0852C14.2706 19.0852 15.0945 18.179 15.0945 16.8352C15.0945 15.483 14.2706 14.5795 12.9467 14.5795C11.6229 14.5795 10.799 15.483 10.799 16.8352C10.799 18.179 11.6229 19.0852 12.9467 19.0852ZM12.9524 18.1477C12.3416 18.1477 12.0291 17.5881 12.0291 16.8267C12.0291 16.0653 12.3416 15.5028 12.9524 15.5028C13.5518 15.5028 13.8643 16.0653 13.8643 16.8267C13.8643 17.5881 13.5518 18.1477 12.9524 18.1477ZM15.8814 19H17.0916V16.3807C17.0916 15.8977 17.3984 15.5767 17.8018 15.5767C18.1996 15.5767 18.4666 15.8494 18.4666 16.2784V19H19.6399V16.3352C19.6399 15.8835 19.8984 15.5767 20.3388 15.5767C20.7251 15.5767 21.0149 15.8182 21.0149 16.304V19H22.2223V16.0653C22.2223 15.1193 21.6598 14.5795 20.8473 14.5795C20.2081 14.5795 19.7109 14.9062 19.532 15.4062H19.4865C19.3473 14.9006 18.9013 14.5795 18.3018 14.5795C17.7138 14.5795 17.2678 14.892 17.0859 15.4062H17.0348V14.6364H15.8814V19ZM25.1669 19.0852C26.2464 19.0852 26.9737 18.5597 27.1442 17.75L26.0249 17.6761C25.9027 18.0085 25.5902 18.1818 25.1868 18.1818C24.5817 18.1818 24.1982 17.7812 24.1982 17.1307V17.1278H27.1697V16.7955C27.1697 15.3125 26.272 14.5795 25.1186 14.5795C23.8345 14.5795 23.0021 15.4915 23.0021 16.8381C23.0021 18.2216 23.8232 19.0852 25.1669 19.0852ZM24.1982 16.3778C24.2237 15.8807 24.6016 15.483 25.1385 15.483C25.6641 15.483 26.0277 15.858 26.0305 16.3778H24.1982Z" fill="black"/>
</g>
<defs>
<clipPath id="clip0">
<rect width="32" height="32" fill="white"/>
</clipPath>
</defs>
</svg>
