<svg width="32" height="32" viewBox="0 0 32 32" fill="none" xmlns="http://www.w3.org/2000/svg">
<g clip-path="url(#clip0)">
<path d="M1.83484 5.63987C2.13889 3.67711 3.67736 2.13736 5.64193 1.82729C12.6858 0.715551 18.5532 0.723067 26.2072 1.85732C28.2434 2.15907 29.8409 3.75656 30.1427 5.79276C31.273 13.4199 31.2843 19.2728 30.1845 26.2832C29.8718 28.2761 28.2899 29.8335 26.2815 30.1379C18.6978 31.2874 13.3022 31.2874 5.71851 30.1379C3.70976 29.8334 2.12987 28.2767 1.82327 26.2852C0.721755 19.1305 0.725567 12.8006 1.83484 5.63987Z" stroke="black" stroke-width="2"/>
<path d="M6.18892 13.1818H4.95881V19H6.18892V13.1818ZM8.38849 16.4773C8.39134 15.9148 8.72656 15.5852 9.2152 15.5852C9.70099 15.5852 9.99361 15.9034 9.99077 16.4375V19H11.201V16.2216C11.201 15.2045 10.6044 14.5795 9.69531 14.5795C9.04759 14.5795 8.57884 14.8977 8.38281 15.4062H8.33168V14.6364H7.17827V19H8.38849V16.4773ZM15.7855 15.8807C15.6776 15.0767 15.0298 14.5795 13.9276 14.5795C12.8111 14.5795 12.0753 15.0966 12.0781 15.9375C12.0753 16.5909 12.4872 17.0142 13.3395 17.1847L14.0952 17.3352C14.4759 17.4119 14.6491 17.5511 14.6548 17.7699C14.6491 18.0284 14.3679 18.2131 13.9446 18.2131C13.5128 18.2131 13.2259 18.0284 13.152 17.6733L11.9616 17.7358C12.0753 18.571 12.7855 19.0852 13.9418 19.0852C15.0724 19.0852 15.8821 18.5085 15.8849 17.6477C15.8821 17.017 15.4702 16.6392 14.6236 16.4659L13.8338 16.3068C13.4276 16.2188 13.277 16.0795 13.2798 15.8693C13.277 15.608 13.5724 15.4375 13.9474 15.4375C14.3679 15.4375 14.6179 15.6676 14.6776 15.9489L15.7855 15.8807ZM18.6357 19.0852C19.7152 19.0852 20.4425 18.5597 20.6129 17.75L19.4936 17.6761C19.3714 18.0085 19.0589 18.1818 18.6555 18.1818C18.0504 18.1818 17.6669 17.7812 17.6669 17.1307V17.1278H20.6385V16.7955C20.6385 15.3125 19.7408 14.5795 18.5874 14.5795C17.3033 14.5795 16.4709 15.4915 16.4709 16.8381C16.4709 18.2216 17.2919 19.0852 18.6357 19.0852ZM17.6669 16.3778C17.6925 15.8807 18.0703 15.483 18.6072 15.483C19.1328 15.483 19.4964 15.858 19.4993 16.3778H17.6669ZM21.4283 19H22.6385V16.5312C22.6385 15.9943 23.0305 15.625 23.5646 15.625C23.7322 15.625 23.9624 15.6534 24.076 15.6903V14.6165C23.968 14.5909 23.8175 14.5739 23.6953 14.5739C23.2067 14.5739 22.8061 14.858 22.647 15.3977H22.6016V14.6364H21.4283V19ZM27.2415 14.6364H26.4205V13.5909H25.2102V14.6364H24.6136V15.5455H25.2102V17.8182C25.2045 18.6733 25.7869 19.0966 26.6648 19.0597C26.9773 19.0483 27.1989 18.9858 27.321 18.946L27.1307 18.0455C27.071 18.0568 26.9432 18.0852 26.8295 18.0852C26.5881 18.0852 26.4205 17.9943 26.4205 17.6591V15.5455H27.2415V14.6364Z" fill="black"/>
</g>
<defs>
<clipPath id="clip0">
<rect width="32" height="32" fill="white"/>
</clipPath>
</defs>
</svg>
