<svg width="32" height="32" viewBox="0 0 32 32" fill="none" xmlns="http://www.w3.org/2000/svg">
<g clip-path="url(#clip0)">
<path d="M1.83484 5.63987C2.13889 3.67711 3.67736 2.13736 5.64193 1.82729C12.6858 0.715551 18.5532 0.723067 26.2072 1.85732C28.2434 2.15907 29.8409 3.75656 30.1427 5.79276C31.273 13.4199 31.2843 19.2728 30.1845 26.2832C29.8718 28.2761 28.2899 29.8335 26.2815 30.1379C18.6978 31.2874 13.3022 31.2874 5.71851 30.1379C3.70976 29.8334 2.12987 28.2767 1.82327 26.2852C0.721755 19.1305 0.725567 12.8006 1.83484 5.63987Z" stroke="black" stroke-width="2"/>
<path d="M12.7623 23H26.3418V8.45455H12.7623L5.53214 15.7273L12.7623 23ZM13.3944 21.4375L7.71254 15.7273L13.3944 10.017H24.8077V21.4375H13.3944ZM22.0165 18.9375L18.7992 15.7273L22.0165 12.517L20.9796 11.4659L17.7551 14.6832L14.5307 11.4659L13.4938 12.517L16.7111 15.7273L13.4938 18.9375L14.5307 19.9886L17.7551 16.7713L20.9796 19.9886L22.0165 18.9375Z" fill="black"/>
</g>
<defs>
<clipPath id="clip0">
<rect width="32" height="32" fill="white"/>
</clipPath>
</defs>
</svg>
