<svg width="32" height="32" viewBox="0 0 32 32" fill="none" xmlns="http://www.w3.org/2000/svg">
<g clip-path="url(#clip0)">
<path d="M1.83484 5.63987C2.13889 3.67711 3.67736 2.13736 5.64193 1.82729C12.6858 0.715551 18.5532 0.723067 26.2072 1.85732C28.2434 2.15907 29.8409 3.75656 30.1427 5.79276C31.273 13.4199 31.2843 19.2728 30.1845 26.2832C29.8718 28.2761 28.2899 29.8335 26.2815 30.1379C18.6978 31.2874 13.3022 31.2874 5.71851 30.1379C3.70976 29.8334 2.12987 28.2767 1.82327 26.2852C0.721755 19.1305 0.725567 12.8006 1.83484 5.63987Z" stroke="black" stroke-width="2"/>
<path d="M11.4874 23.3267C13.1919 23.3267 14.5769 21.9418 14.584 20.2443V18.5966H17.4391V20.2443C17.432 21.9418 18.8169 23.3267 20.5215 23.3267C22.2189 23.3267 23.6039 21.9418 23.6039 20.2443C23.6039 18.5398 22.2189 17.1548 20.5215 17.1477H18.888V14.2926H20.5215C22.2189 14.2997 23.6039 12.9148 23.6039 11.2102C23.6039 9.51278 22.2189 8.12784 20.5215 8.12784C18.8169 8.12784 17.432 9.51278 17.4391 11.2102V12.8438H14.584V11.2102C14.5769 9.51278 13.1919 8.12784 11.4874 8.12784C9.78995 8.12784 8.40501 9.51278 8.40501 11.2102C8.40501 12.9148 9.78995 14.2997 11.4874 14.2926H13.1351V17.1477H11.4874C9.78995 17.1548 8.40501 18.5398 8.40501 20.2443C8.40501 21.9418 9.78995 23.3267 11.4874 23.3267ZM11.4874 21.8778C10.5854 21.8778 9.85387 21.1463 9.85387 20.2443C9.85387 19.3352 10.5854 18.6037 11.4874 18.5966H13.1351V20.2443C13.128 21.1463 12.3965 21.8778 11.4874 21.8778ZM11.4874 12.8438C10.5854 12.8509 9.85387 12.1193 9.85387 11.2102C9.85387 10.3082 10.5854 9.5767 11.4874 9.5767C12.3965 9.5767 13.128 10.3082 13.1351 11.2102V12.8438H11.4874ZM20.5215 21.8778C19.6124 21.8778 18.8809 21.1463 18.888 20.2443V18.5966H20.5215C21.4235 18.6037 22.155 19.3352 22.155 20.2443C22.155 21.1463 21.4235 21.8778 20.5215 21.8778ZM18.888 12.8438V11.2102C18.8809 10.3082 19.6124 9.5767 20.5215 9.5767C21.4235 9.5767 22.155 10.3082 22.155 11.2102C22.155 12.1193 21.4235 12.8509 20.5215 12.8438H18.888ZM14.584 17.1477V14.2926H17.4391V17.1477H14.584Z" fill="black"/>
</g>
<defs>
<clipPath id="clip0">
<rect width="32" height="32" fill="white"/>
</clipPath>
</defs>
</svg>
