<svg width="32" height="32" viewBox="0 0 32 32" fill="none" xmlns="http://www.w3.org/2000/svg">
<g clip-path="url(#clip0)">
<path d="M1.83484 5.63987C2.13889 3.67711 3.67736 2.13736 5.64193 1.82729C12.6858 0.715551 18.5532 0.723067 26.2072 1.85732C28.2434 2.15907 29.8409 3.75656 30.1427 5.79276C31.273 13.4199 31.2843 19.2728 30.1845 26.2832C29.8718 28.2761 28.2899 29.8335 26.2815 30.1379C18.6978 31.2874 13.3022 31.2874 5.71851 30.1379C3.70976 29.8334 2.12987 28.2767 1.82327 26.2852C0.721755 19.1305 0.725567 12.8006 1.83484 5.63987Z" stroke="black" stroke-width="2"/>
<path d="M16.0044 10.017C19.165 10.017 21.7076 12.5668 21.7147 15.7273C21.7218 18.8878 19.165 21.4375 16.0044 21.4375C12.851 21.4375 10.2871 18.8807 10.2942 15.7273H8.73171C8.72461 19.7472 11.9917 23 16.0044 23C20.0314 23 23.2843 19.7472 23.2772 15.7273C23.2701 11.7074 20.0314 8.45455 16.0044 8.45455V10.017ZM8.73171 13.4545L10.6919 11.4943L15.4647 16.267L16.5442 15.1875L11.7715 10.4148L13.7317 8.45455H8.73171V13.4545Z" fill="black"/>
</g>
<defs>
<clipPath id="clip0">
<rect width="32" height="32" fill="white"/>
</clipPath>
</defs>
</svg>
