<svg width="32" height="32" viewBox="0 0 32 32" fill="none" xmlns="http://www.w3.org/2000/svg">
<g clip-path="url(#clip0)">
<path d="M1.83484 5.63987C2.13889 3.67711 3.67736 2.13736 5.64193 1.82729C12.6858 0.715551 18.5532 0.723067 26.2072 1.85732C28.2434 2.15907 29.8409 3.75656 30.1427 5.79276C31.273 13.4199 31.2843 19.2728 30.1845 26.2832C29.8718 28.2761 28.2899 29.8335 26.2815 30.1379C18.6978 31.2874 13.3022 31.2874 5.71851 30.1379C3.70976 29.8334 2.12987 28.2767 1.82327 26.2852C0.721755 19.1305 0.725567 12.8006 1.83484 5.63987Z" stroke="black" stroke-width="2"/>
<path d="M16.2246 23H18.4973L19.0868 19.392H21.0755L21.4519 17.1193H19.4632L19.9178 14.3352H21.9064L22.29 12.0625H20.2942L20.8837 8.45455H18.611L18.0215 12.0625H15.1806L15.7701 8.45455H13.4973L12.9078 12.0625H10.9263L10.5428 14.3352H12.5314L12.0769 17.1193H10.0882L9.71183 19.392H11.7005L11.111 23H13.3837L13.9732 19.392H16.8141L16.2246 23ZM14.3496 17.1193L14.8042 14.3352H17.6451L17.1905 17.1193H14.3496Z" fill="black"/>
</g>
<defs>
<clipPath id="clip0">
<rect width="32" height="32" fill="white"/>
</clipPath>
</defs>
</svg>
