<svg width="32" height="32" viewBox="0 0 32 32" fill="none" xmlns="http://www.w3.org/2000/svg">
<g clip-path="url(#clip0)">
<path d="M1.83484 5.63987C2.13889 3.67711 3.67736 2.13736 5.64193 1.82729C12.6858 0.715551 18.5532 0.723067 26.2072 1.85732C28.2434 2.15907 29.8409 3.75656 30.1427 5.79276C31.273 13.4199 31.2843 19.2728 30.1845 26.2832C29.8718 28.2761 28.2899 29.8335 26.2815 30.1379C18.6978 31.2874 13.3022 31.2874 5.71851 30.1379C3.70976 29.8334 2.12987 28.2767 1.82327 26.2852C0.721755 19.1305 0.725567 12.8006 1.83484 5.63987Z" stroke="black" stroke-width="2"/>
<path d="M6.73224 14H7.96236V12.1136H8.99645C10.3345 12.1136 11.1129 11.3153 11.1129 10.1534C11.1129 8.99716 10.3487 8.18182 9.0277 8.18182H6.73224V14ZM7.96236 11.1278V9.1875H8.7919C9.50213 9.1875 9.84588 9.57386 9.84588 10.1534C9.84588 10.7301 9.50213 11.1278 8.79759 11.1278H7.96236ZM13.0163 14.0824C13.6612 14.0824 14.0788 13.8011 14.2919 13.3949H14.326V14H15.4737V11.0568C15.4737 10.017 14.593 9.57955 13.6214 9.57955C12.576 9.57955 11.8885 10.0795 11.7209 10.875L12.8402 10.9659C12.9226 10.6761 13.1811 10.4631 13.6158 10.4631C14.0277 10.4631 14.2635 10.6705 14.2635 11.0284V11.0455C14.2635 11.3267 13.9652 11.3636 13.2067 11.4375C12.343 11.517 11.5675 11.8068 11.5675 12.7812C11.5675 13.6449 12.1839 14.0824 13.0163 14.0824ZM13.3629 13.2472C12.9908 13.2472 12.7237 13.0739 12.7237 12.7415C12.7237 12.4006 13.005 12.233 13.4311 12.1733C13.6953 12.1364 14.1271 12.0739 14.272 11.9773V12.4403C14.272 12.8977 13.8942 13.2472 13.3629 13.2472ZM18.3786 15.7273C19.6257 15.7273 20.5121 15.1591 20.5121 14.0426V9.63636H19.3104V10.3693H19.2649C19.103 10.0142 18.7479 9.57955 18.0178 9.57955C17.0604 9.57955 16.2507 10.3239 16.2507 11.8097C16.2507 13.2614 17.0376 13.9375 18.0206 13.9375C18.7166 13.9375 19.1058 13.5881 19.2649 13.2273H19.3161V14.0256C19.3161 14.625 18.9325 14.858 18.407 14.858C17.8729 14.858 17.603 14.625 17.5036 14.3608L16.3842 14.5114C16.5291 15.1989 17.2024 15.7273 18.3786 15.7273ZM18.4041 13.0284C17.8104 13.0284 17.4865 12.5568 17.4865 11.804C17.4865 11.0625 17.8047 10.5426 18.4041 10.5426C18.9922 10.5426 19.3217 11.0398 19.3217 11.804C19.3217 12.5739 18.9865 13.0284 18.4041 13.0284ZM23.4638 14.0852C24.5433 14.0852 25.2706 13.5597 25.4411 12.75L24.3217 12.6761C24.1996 13.0085 23.8871 13.1818 23.4837 13.1818C22.8786 13.1818 22.495 12.7812 22.495 12.1307V12.1278H25.4666V11.7955C25.4666 10.3125 24.5689 9.57955 23.4155 9.57955C22.1314 9.57955 21.299 10.4915 21.299 11.8381C21.299 13.2216 22.12 14.0852 23.4638 14.0852ZM22.495 11.3778C22.5206 10.8807 22.8984 10.483 23.4354 10.483C23.9609 10.483 24.3246 10.858 24.3274 11.3778H22.495ZM7.36896 24C9.14169 24 10.2156 22.9034 10.2156 21.0852C10.2156 19.2727 9.14169 18.1818 7.38601 18.1818H5.30646V24H7.36896ZM6.53658 22.946V19.2358H7.32067C8.41158 19.2358 8.98828 19.7926 8.98828 21.0852C8.98828 22.3835 8.41158 22.946 7.31783 22.946H6.53658ZM13.0756 24.0852C14.3995 24.0852 15.2234 23.179 15.2234 21.8352C15.2234 20.483 14.3995 19.5795 13.0756 19.5795C11.7518 19.5795 10.9279 20.483 10.9279 21.8352C10.9279 23.179 11.7518 24.0852 13.0756 24.0852ZM13.0813 23.1477C12.4705 23.1477 12.158 22.5881 12.158 21.8267C12.158 21.0653 12.4705 20.5028 13.0813 20.5028C13.6808 20.5028 13.9933 21.0653 13.9933 21.8267C13.9933 22.5881 13.6808 23.1477 13.0813 23.1477ZM16.7617 24H18.0401L18.7901 21.2557H18.8441L19.5941 24H20.8754L22.06 19.6364H20.8384L20.1737 22.5511H20.1367L19.4208 19.6364H18.2191L17.5146 22.5682H17.4748L16.7987 19.6364H15.5742L16.7617 24ZM23.9158 21.4773C23.9187 20.9148 24.2539 20.5852 24.7425 20.5852C25.2283 20.5852 25.521 20.9034 25.5181 21.4375V24H26.7283V21.2216C26.7283 20.2045 26.1317 19.5795 25.2227 19.5795C24.5749 19.5795 24.1062 19.8977 23.9102 20.4062H23.859V19.6364H22.7056V24H23.9158V21.4773Z" fill="black"/>
</g>
<defs>
<clipPath id="clip0">
<rect width="32" height="32" fill="white"/>
</clipPath>
</defs>
</svg>
