<svg width="32" height="32" viewBox="0 0 32 32" fill="none" xmlns="http://www.w3.org/2000/svg">
<g clip-path="url(#clip0)">
<path d="M1.83484 5.63987C2.13889 3.67711 3.67736 2.13736 5.64193 1.82729C12.6858 0.715551 18.5532 0.723067 26.2072 1.85732C28.2434 2.15907 29.8409 3.75656 30.1427 5.79276C31.273 13.4199 31.2843 19.2728 30.1845 26.2832C29.8718 28.2761 28.2899 29.8335 26.2815 30.1379C18.6978 31.2874 13.3022 31.2874 5.71851 30.1379C3.70976 29.8334 2.12987 28.2767 1.82327 26.2852C0.721755 19.1305 0.725567 12.8006 1.83484 5.63987Z" stroke="black" stroke-width="2"/>
<path d="M16.5469 20.2727C16.554 22.0199 17.669 23.5043 19.75 23.5043C21.8097 23.5043 22.9602 22.0199 22.9531 20.2727V19.5057C22.9602 17.7443 21.8381 16.2741 19.75 16.2741C17.6974 16.2741 16.554 17.7585 16.5469 19.5057V20.2727ZM9.08239 11.9489C9.08949 13.696 10.2045 15.1662 12.2784 15.1662C14.3452 15.1662 15.4957 13.7102 15.4886 11.9489V11.1818C15.4957 9.42045 14.3736 7.95028 12.2784 7.95028C10.2472 7.95028 9.08949 9.42045 9.08239 11.1818V11.9489ZM9.77841 23H11.6321L21.6321 8.45455H19.7784L9.77841 23ZM18.6136 19.5057C18.6207 18.8097 18.8977 18.0923 19.75 18.0923C20.6449 18.0923 20.8793 18.8097 20.8722 19.5057V20.2727C20.8793 20.9688 20.6165 21.6719 19.75 21.6719C18.8835 21.6719 18.6207 20.9474 18.6136 20.2727V19.5057ZM11.1634 11.1818C11.1705 10.5071 11.4332 9.76847 12.2784 9.76847C13.1733 9.76847 13.4148 10.4858 13.4077 11.1818V11.9489C13.4148 12.6449 13.1449 13.348 12.2784 13.348C11.4403 13.348 11.1705 12.6449 11.1634 11.9489V11.1818Z" fill="black"/>
</g>
<defs>
<clipPath id="clip0">
<rect width="32" height="32" fill="white"/>
</clipPath>
</defs>
</svg>
