<svg width="32" height="32" viewBox="0 0 32 32" fill="none" xmlns="http://www.w3.org/2000/svg">
<g clip-path="url(#clip0)">
<path d="M1.83484 5.63987C2.13889 3.67711 3.67736 2.13736 5.64193 1.82729C12.6858 0.715551 18.5532 0.723067 26.2072 1.85732C28.2434 2.15907 29.8409 3.75656 30.1427 5.79276C31.273 13.4199 31.2843 19.2728 30.1845 26.2832C29.8718 28.2761 28.2899 29.8335 26.2815 30.1379C18.6978 31.2874 13.3022 31.2874 5.71851 30.1379C3.70976 29.8334 2.12987 28.2767 1.82327 26.2852C0.721755 19.1305 0.725567 12.8006 1.83484 5.63987Z" stroke="black" stroke-width="2"/>
<path d="M14.1818 18.6392H16.8736V18.3977C16.8878 17.0128 17.3849 16.3665 18.5071 15.6918C19.8352 14.9034 20.7017 13.8594 20.7017 12.1903C20.7017 9.70455 18.6989 8.25568 15.8793 8.25568C13.3011 8.25568 11.1989 9.60511 11.1349 12.446H14.0327C14.0753 11.2884 14.9347 10.6705 15.8651 10.6705C16.8239 10.6705 17.598 11.3097 17.598 12.2969C17.598 13.2273 16.9233 13.8452 16.0497 14.3991C14.8565 15.152 14.1889 15.9119 14.1818 18.3977V18.6392ZM15.581 23.1847C16.4901 23.1847 17.2784 22.4247 17.2855 21.4801C17.2784 20.5497 16.4901 19.7898 15.581 19.7898C14.6435 19.7898 13.8693 20.5497 13.8764 21.4801C13.8693 22.4247 14.6435 23.1847 15.581 23.1847Z" fill="black"/>
</g>
<defs>
<clipPath id="clip0">
<rect width="32" height="32" fill="white"/>
</clipPath>
</defs>
</svg>
