<svg width="32" height="32" viewBox="0 0 32 32" fill="none" xmlns="http://www.w3.org/2000/svg">
<g clip-path="url(#clip0)">
<path d="M1.83484 5.63987C2.13889 3.67711 3.67736 2.13736 5.64193 1.82729C12.6858 0.715551 18.5532 0.723067 26.2072 1.85732C28.2434 2.15907 29.8409 3.75656 30.1427 5.79276C31.273 13.4199 31.2843 19.2728 30.1845 26.2832C29.8718 28.2761 28.2899 29.8335 26.2815 30.1379C18.6978 31.2874 13.3022 31.2874 5.71851 30.1379C3.70976 29.8334 2.12987 28.2767 1.82327 26.2852C0.721755 19.1305 0.725567 12.8006 1.83484 5.63987Z" stroke="black" stroke-width="2"/>
<path d="M8.94656 14.8189H10.4203C10.399 13.5227 9.33363 12.6278 7.71431 12.6278C6.11985 12.6278 4.95153 13.5085 4.95863 14.8295C4.95508 15.902 5.71147 16.5163 6.94016 16.8111L7.73207 17.0099C8.52397 17.2017 8.96431 17.429 8.96786 17.919C8.96431 18.4517 8.46005 18.8139 7.6788 18.8139C6.87979 18.8139 6.30451 18.4446 6.25479 17.7166H4.76687C4.80593 19.2898 5.93164 20.103 7.69656 20.103C9.47212 20.103 10.5162 19.2543 10.5197 17.9226C10.5162 16.7116 9.60352 16.0689 8.33931 15.7848L7.6859 15.6286C7.0538 15.483 6.52468 15.2486 6.53533 14.7266C6.53533 14.2578 6.95082 13.9134 7.70366 13.9134C8.43874 13.9134 8.88974 14.2472 8.94656 14.8189ZM13.0384 16.8466C13.0419 16.1435 13.4716 15.7315 14.0895 15.7315C14.7038 15.7315 15.0661 16.1257 15.0625 16.7969V20H16.5753V16.527C16.5788 15.2486 15.826 14.4744 14.6896 14.4744C13.8622 14.4744 13.3082 14.8651 13.0597 15.5078H12.9957V12.7273H11.5256V20H13.0384V16.8466ZM17.7658 20H19.2786V14.5455H17.7658V20ZM18.5257 13.8423C18.9767 13.8423 19.3461 13.4979 19.3461 13.0753C19.3461 12.6562 18.9767 12.3118 18.5257 12.3118C18.0783 12.3118 17.709 12.6562 17.709 13.0753C17.709 13.4979 18.0783 13.8423 18.5257 13.8423ZM23.4237 14.5455H22.3406V14.1797C22.3406 13.8104 22.4897 13.5938 22.9336 13.5938C23.1147 13.5938 23.2994 13.6328 23.4201 13.6719L23.6864 12.5355C23.4982 12.4787 23.0827 12.3864 22.6175 12.3864C21.5913 12.3864 20.8278 12.9652 20.8278 14.1513V14.5455H20.0572V15.6818H20.8278V20H22.3406V15.6818H23.4237V14.5455ZM27.2491 14.5455H26.2228V13.2386H24.71V14.5455H23.9643V15.6818H24.71V18.5227C24.7029 19.5916 25.4309 20.1207 26.5282 20.0746C26.9189 20.0604 27.1958 19.9822 27.3485 19.9325L27.1106 18.8068C27.036 18.821 26.8762 18.8565 26.7342 18.8565C26.4324 18.8565 26.2228 18.7429 26.2228 18.3239V15.6818H27.2491V14.5455Z" fill="black"/>
</g>
<defs>
<clipPath id="clip0">
<rect width="32" height="32" fill="white"/>
</clipPath>
</defs>
</svg>
