<svg width="32" height="32" viewBox="0 0 32 32" fill="none" xmlns="http://www.w3.org/2000/svg">
<rect x="1" y="9" width="30" height="14" rx="3" stroke="black" stroke-width="2"/>
<path d="M7.45099 14.8551H8.62997C8.61293 13.8182 7.76065 13.1023 6.4652 13.1023C5.18963 13.1023 4.25497 13.8068 4.26065 14.8636C4.25781 15.7216 4.86293 16.2131 5.84588 16.4489L6.4794 16.608C7.11293 16.7614 7.4652 16.9432 7.46804 17.3352C7.4652 17.7614 7.06179 18.0511 6.43679 18.0511C5.79759 18.0511 5.33736 17.7557 5.29759 17.1733H4.10724C4.13849 18.4318 5.03906 19.0824 6.45099 19.0824C7.87145 19.0824 8.70668 18.4034 8.70952 17.3381C8.70668 16.3693 7.97656 15.8551 6.9652 15.6278L6.44247 15.5028C5.93679 15.3864 5.51349 15.1989 5.52202 14.7812C5.52202 14.4062 5.8544 14.1307 6.45668 14.1307C7.04474 14.1307 7.40554 14.3977 7.45099 14.8551ZM9.5142 20.6364H10.7244V18.3011H10.7614C10.929 18.6648 11.2955 19.071 12 19.071C12.9943 19.071 13.7699 18.2841 13.7699 16.8239C13.7699 15.3239 12.9602 14.5795 12.0028 14.5795C11.2727 14.5795 10.9233 15.0142 10.7614 15.3693H10.7074V14.6364H9.5142V20.6364ZM10.6989 16.8182C10.6989 16.0398 11.0284 15.5426 11.6165 15.5426C12.2159 15.5426 12.5341 16.0625 12.5341 16.8182C12.5341 17.5795 12.2102 18.108 11.6165 18.108C11.0341 18.108 10.6989 17.5966 10.6989 16.8182ZM15.821 19.0824C16.4659 19.0824 16.8835 18.8011 17.0966 18.3949H17.1307V19H18.2784V16.0568C18.2784 15.017 17.3977 14.5795 16.4261 14.5795C15.3807 14.5795 14.6932 15.0795 14.5256 15.875L15.6449 15.9659C15.7273 15.6761 15.9858 15.4631 16.4205 15.4631C16.8324 15.4631 17.0682 15.6705 17.0682 16.0284V16.0455C17.0682 16.3267 16.7699 16.3636 16.0114 16.4375C15.1477 16.517 14.3722 16.8068 14.3722 17.7812C14.3722 18.6449 14.9886 19.0824 15.821 19.0824ZM16.1676 18.2472C15.7955 18.2472 15.5284 18.0739 15.5284 17.7415C15.5284 17.4006 15.8097 17.233 16.2358 17.1733C16.5 17.1364 16.9318 17.0739 17.0767 16.9773V17.4403C17.0767 17.8977 16.6989 18.2472 16.1676 18.2472ZM21.1889 19.0852C22.3509 19.0852 23.081 18.4034 23.1378 17.4006H21.9957C21.9247 17.8665 21.6179 18.1278 21.2031 18.1278C20.6378 18.1278 20.2713 17.6534 20.2713 16.8182C20.2713 15.9943 20.6406 15.5227 21.2031 15.5227C21.6463 15.5227 21.9304 15.8153 21.9957 16.25H23.1378C23.0866 15.2415 22.3224 14.5795 21.1832 14.5795C19.8594 14.5795 19.0412 15.4972 19.0412 16.8352C19.0412 18.1619 19.8452 19.0852 21.1889 19.0852ZM25.9013 19.0852C26.9808 19.0852 27.7081 18.5597 27.8786 17.75L26.7592 17.6761C26.6371 18.0085 26.3246 18.1818 25.9212 18.1818C25.3161 18.1818 24.9325 17.7812 24.9325 17.1307V17.1278H27.9041V16.7955C27.9041 15.3125 27.0064 14.5795 25.853 14.5795C24.5689 14.5795 23.7365 15.4915 23.7365 16.8381C23.7365 18.2216 24.5575 19.0852 25.9013 19.0852ZM24.9325 16.3778C24.9581 15.8807 25.3359 15.483 25.8729 15.483C26.3984 15.483 26.7621 15.858 26.7649 16.3778H24.9325Z" fill="black"/>
</svg>
