<svg width="32" height="32" viewBox="0 0 32 32" fill="none" xmlns="http://www.w3.org/2000/svg">
<g clip-path="url(#clip0)">
<path d="M1.65593 9.18254C2.00847 7.29048 3.60086 5.86043 5.56822 5.6269C12.6651 4.78447 18.5722 4.79038 26.2787 5.64891C28.3153 5.87579 29.9675 7.37016 30.3239 9.34304C31.213 14.2635 31.2235 18.2174 30.3655 22.7605C30.004 24.6751 28.376 26.1166 26.3747 26.3449C18.7183 27.2184 13.2817 27.2184 5.62532 26.3449C3.624 26.1166 1.9996 24.6754 1.64565 22.7621C0.781401 18.0903 0.784765 13.8581 1.65593 9.18254Z" stroke="black" stroke-width="2"/>
<path d="M5.56871 12.794H8.24059V20H10.0645V12.794H12.7363V11.2727H5.56871V12.794ZM14.8585 20.1236C15.8258 20.1236 16.4522 19.7017 16.7718 19.0923H16.823V20H18.5446V15.5852C18.5446 14.0256 17.2235 13.3693 15.7662 13.3693C14.198 13.3693 13.1667 14.1193 12.9153 15.3125L14.5943 15.4489C14.7179 15.0142 15.1056 14.6946 15.7576 14.6946C16.3755 14.6946 16.7292 15.0057 16.7292 15.5426V15.5682C16.7292 15.9901 16.2818 16.0455 15.144 16.1562C13.8485 16.2756 12.6852 16.7102 12.6852 18.1719C12.6852 19.4673 13.6099 20.1236 14.8585 20.1236ZM15.3784 18.8707C14.8201 18.8707 14.4196 18.6108 14.4196 18.1122C14.4196 17.6009 14.8414 17.3494 15.4806 17.2599C15.877 17.2045 16.5247 17.1108 16.742 16.9659V17.6605C16.742 18.3466 16.1752 18.8707 15.3784 18.8707ZM19.987 20H21.7768V18.9517H21.8578C22.1092 19.4972 22.6589 20.1065 23.7157 20.1065C25.2072 20.1065 26.3706 18.9261 26.3706 16.7358C26.3706 14.4858 25.1561 13.3693 23.72 13.3693C22.6248 13.3693 22.1007 14.0213 21.8578 14.554H21.8024V11.2727H19.987V20ZM21.764 16.7273C21.764 15.5597 22.2583 14.8139 23.1404 14.8139C24.0396 14.8139 24.5169 15.5938 24.5169 16.7273C24.5169 17.8693 24.0311 18.6619 23.1404 18.6619C22.2669 18.6619 21.764 17.8949 21.764 16.7273Z" fill="black"/>
</g>
<defs>
<clipPath id="clip0">
<rect width="32" height="32" fill="white"/>
</clipPath>
</defs>
</svg>
