<svg width="32" height="32" viewBox="0 0 32 32" fill="none" xmlns="http://www.w3.org/2000/svg">
<g clip-path="url(#clip0)">
<path d="M1.83484 5.63987C2.13889 3.67711 3.67736 2.13736 5.64193 1.82729C12.6858 0.715551 18.5532 0.723067 26.2072 1.85732C28.2434 2.15907 29.8409 3.75656 30.1427 5.79276C31.273 13.4199 31.2843 19.2728 30.1845 26.2832C29.8718 28.2761 28.2899 29.8335 26.2815 30.1379C18.6978 31.2874 13.3022 31.2874 5.71851 30.1379C3.70976 29.8334 2.12987 28.2767 1.82327 26.2852C0.721755 19.1305 0.725567 12.8006 1.83484 5.63987Z" stroke="black" stroke-width="2"/>
<path d="M10.7301 19.0724H13.0526C13.0241 17.8935 13.5213 17.4247 14.1889 17.4247C14.6719 17.4247 14.9276 17.6449 15.517 18.1634C16.5114 19.0369 17.2571 19.4062 18.1946 19.4062C20.0767 19.4062 21.3622 17.9219 21.2628 15.2301H18.9474C18.9759 16.3736 18.4787 16.8778 17.8111 16.8778C17.3139 16.8778 17.0085 16.6151 16.4616 16.1392C15.4247 15.223 14.6932 14.9034 13.7983 14.9034C11.8736 14.9034 10.6449 16.3807 10.7301 19.0724Z" fill="black"/>
</g>
<defs>
<clipPath id="clip0">
<rect width="32" height="32" fill="white"/>
</clipPath>
</defs>
</svg>
