<svg width="32" height="32" viewBox="0 0 32 32" fill="none" xmlns="http://www.w3.org/2000/svg">
<rect x="13.5" y="6.5" width="5" height="9" rx="2.5" fill="black" stroke="black"/>
<path d="M13 4L16 1L19 4" stroke="black" stroke-width="2" stroke-linecap="round" stroke-linejoin="round"/>
<path d="M13 18L16 21L19 18" stroke="black" stroke-width="2" stroke-linecap="round" stroke-linejoin="round"/>
<path d="M22.0671 3.62412C21.8166 4.09381 21.9823 4.67063 22.3802 5.02418C23.4684 5.99099 24.159 7.38101 24.2136 8.91725L24.6104 20.078C24.7837 24.9534 20.8784 29 16 29C11.1216 29 7.21625 24.9534 7.3896 20.078L7.78643 8.91725C7.84105 7.38102 8.53161 5.991 9.61978 5.02419C10.0177 4.67064 10.1834 4.09382 9.93286 3.62413C9.66213 3.11651 9.017 2.93343 8.56889 3.29422C6.92343 4.61906 5.86683 6.62026 5.78769 8.84618L5.39086 20.0069C5.17728 26.014 9.98914 31 16 31C22.0109 31 26.8227 26.014 26.6091 20.0069L26.2123 8.84618C26.1332 6.62025 25.0766 4.61905 23.4311 3.29422C22.983 2.93342 22.3379 3.1165 22.0671 3.62412Z" fill="black"/>
</svg>
