<svg width="32" height="32" viewBox="0 0 32 32" fill="none" xmlns="http://www.w3.org/2000/svg">
<path d="M6.78706 8.88172C6.89455 5.85866 9.08375 3.31422 12.0569 2.75676C14.6629 2.26813 17.3371 2.26813 19.9431 2.75676C22.9162 3.31422 25.1055 5.85866 25.2129 8.88171L25.6098 20.0425C25.8032 25.4837 21.4446 30 16 30C10.5554 30 6.19677 25.4837 6.39023 20.0425L6.78706 8.88172Z" stroke="black" stroke-width="2"/>
<rect x="13.5" y="6.5" width="5" height="9" rx="2.5" stroke="black"/>
<path fill-rule="evenodd" clip-rule="evenodd" d="M13 2.5C9.68629 2.5 7 5.18629 7 8.5V16H16C14.3431 16 13 14.6569 13 13V9C13 7.34315 14.3431 6 16 6V2.5H13Z" fill="black"/>
</svg>
