<svg width="32" height="32" viewBox="0 0 32 32" fill="none" xmlns="http://www.w3.org/2000/svg">
<path fill-rule="evenodd" clip-rule="evenodd" d="M24.2136 8.91725L24.6104 20.078C24.7837 24.9534 20.8784 29 16 29C11.673 29 8.11157 25.8165 7.48267 21.6949C7.38888 21.6212 7.29846 21.5411 7.21201 21.4547L5.40369 19.6463L5.39086 20.0069C5.17728 26.014 9.98914 31 16 31C22.0109 31 26.8227 26.014 26.6091 20.0069L26.2123 8.84618C26.0882 5.35555 23.5604 2.41757 20.1274 1.77389C17.3996 1.26242 14.6004 1.26242 11.8726 1.77389C8.43961 2.41757 5.9118 5.35556 5.78769 8.84618L5.67254 12.0848L7.21201 10.5453C7.37624 10.3811 7.55477 10.2399 7.7436 10.1217L7.78643 8.91725C7.87729 6.36177 9.72789 4.21087 12.2412 3.73963C14.7254 3.27384 17.2746 3.27384 19.7588 3.73963C22.2721 4.21087 24.1227 6.36176 24.2136 8.91725Z" fill="black"/>
<path d="M6 16H11" stroke="black" stroke-width="2" stroke-linecap="round"/>
<path d="M9.33333 12.6667L6 16L9.33333 19.3333" stroke="black" stroke-width="2" stroke-linecap="round" stroke-linejoin="round"/>
</svg>
