<svg width="32" height="32" viewBox="0 0 32 32" fill="none" xmlns="http://www.w3.org/2000/svg">
<path fill-rule="evenodd" clip-rule="evenodd" d="M24.2564 10.1217L24.2136 8.91725C24.1227 6.36176 22.2721 4.21087 19.7588 3.73963C17.2746 3.27384 14.7254 3.27384 12.2412 3.73963C9.72789 4.21087 7.87729 6.36177 7.78643 8.91725L7.3896 20.078C7.21625 24.9534 11.1216 29 16 29C20.327 29 23.8884 25.8165 24.5173 21.6949C24.6111 21.6212 24.7015 21.5411 24.788 21.4547L26.5963 19.6463L26.6091 20.0069C26.8227 26.014 22.0109 31 16 31C9.98914 31 5.17728 26.014 5.39086 20.0069L5.78769 8.84618C5.9118 5.35556 8.43961 2.41757 11.8726 1.77389C14.6004 1.26242 17.3996 1.26242 20.1274 1.77389C23.5604 2.41757 26.0882 5.35555 26.2123 8.84618L26.3275 12.0848L24.788 10.5453C24.6238 10.3811 24.4452 10.2399 24.2564 10.1217Z" fill="black"/>
<path d="M21 16H26" stroke="black" stroke-width="2" stroke-linecap="round"/>
<path d="M22.6667 12.6667L26 16L22.6667 19.3333" stroke="black" stroke-width="2" stroke-linecap="round" stroke-linejoin="round"/>
</svg>
